SplineFontDB: 3.0
FontName: TengwarAnnatarGlaemscrafu
FullName: Tengwar Annatar Glaemscrafu
FamilyName: Tengwar Annatar Glaemscrafu
Weight: Book
Copyright: Copyright (c) 2004-2005 by Johan Winge, \nModified by Talagan (Benjamin Babut) for Glaemscrafu.
Version: 1.20
ItalicAngle: 0
UnderlinePosition: -250
UnderlineWidth: 100
Ascent: 1638
Descent: 410
InvalidEm: 0
sfntRevision: 0x00013333
LayerCount: 2
Layer: 0 1 "Back" 1
Layer: 1 1 "Fore" 0
XUID: [1021 413 -2007676463 5058573]
StyleMap: 0x0040
FSType: 0
OS2Version: 1
OS2_WeightWidthSlopeOnly: 0
OS2_UseTypoMetrics: 0
CreationTime: 1107308838
ModificationTime: 1515338855
PfmFamily: 17
TTFWeight: 400
TTFWidth: 5
LineGap: 0
VLineGap: 0
Panose: 2 0 5 3 0 0 0 0 0 0
OS2TypoAscent: 1638
OS2TypoAOffset: 0
OS2TypoDescent: -410
OS2TypoDOffset: 0
OS2TypoLinegap: 0
OS2WinAscent: 1957
OS2WinAOffset: 0
OS2WinDescent: 1172
OS2WinDOffset: 0
HheadAscent: 1957
HheadAOffset: 0
HheadDescent: -1172
HheadDOffset: 0
OS2SubXSize: 1331
OS2SubYSize: 1433
OS2SubXOff: 0
OS2SubYOff: 286
OS2SupXSize: 1331
OS2SupYSize: 1433
OS2SupXOff: 0
OS2SupYOff: 983
OS2StrikeYSize: 102
OS2StrikeYPos: 530
OS2Vendor: 'PfEd'
OS2CodePages: 00000001.c0d40000
OS2UnicodeRanges: 8000002f.00000008.00000000.00000000
Lookup: 258 0 0 "'kern' Horizontal Kerning in Latin lookup 0" { "'kern' Horizontal Kerning in Latin lookup 0 subtable"  } ['kern' ('DFLT' <'dflt' > 'latn' <'dflt' > ) ]
MarkAttachClasses: 1
DEI: 91125
ShortTable: maxp 16
  1
  0
  215
  168
  3
  0
  0
  2
  0
  1
  1
  0
  64
  0
  0
  0
EndShort
LangName: 1033 "" "" "Regular" "" "" "" "" "" "" "Johan Winge" "" "" "http://home.student.uu.se/jowi4905/fonts/"
GaspTable: 1 65535 2 0
Encoding: UnicodeBmp
UnicodeInterp: none
NameList: AGL For New Fonts
DisplaySize: -48
AntiAlias: 1
FitToEm: 0
WinInfo: 200 25 9
BeginPrivate: 0
EndPrivate
BeginChars: 65539 328

StartChar: uniE018
Encoding: 57368 57368 4
Width: 1259
Flags: W
LayerCount: 2
Fore
SplineSet
667 224 m 0,0,1
 702 224 702 224 745 190 c 0,2,3
 786 157 786 157 811 153 c 0,4,5
 819 151 819 151 827 151 c 0,6,7
 892 151 892 151 936 183 c 0,8,9
 966 205 966 205 988 287 c 0,10,11
 1002 341 1002 341 1002 396 c 0,12,13
 1002 506 1002 506 936 601 c 0,14,15
 857 715 857 715 733 721 c 1,16,-1
 725 721 l 2,17,18
 609 721 609 721 488 636 c 0,19,20
 396 571 396 571 356 492 c 0,21,22
 322 425 322 425 317 311 c 2,23,-1
 309 26 l 2,24,25
 304 -75 304 -75 294 -182 c 0,26,27
 268 -468 268 -468 230 -606 c 0,28,29
 174 -808 174 -808 48 -934 c 0,30,31
 -15 -997 -15 -997 -49 -997 c 0,32,33
 -63 -997 -63 -997 -63 -982 c 0,34,35
 -63 -962 -63 -962 -37 -931 c 0,36,37
 14 -869 14 -869 42 -796 c 0,38,39
 66 -730 66 -730 83 -639 c 0,40,41
 127 -406 127 -406 139 -145 c 0,42,43
 150 82 150 82 151 502 c 0,44,45
 152 1055 152 1055 185 1268 c 0,46,47
 201 1372 201 1372 230 1460 c 0,48,49
 279 1604 279 1604 384 1711 c 0,50,51
 438 1767 438 1767 476 1779 c 0,52,53
 482 1782 482 1782 490 1782 c 0,54,55
 504 1782 504 1782 504 1768 c 0,56,57
 504 1740 504 1740 480 1714 c 0,58,59
 439 1671 439 1671 419 1632 c 0,60,61
 366 1527 366 1527 340 1304 c 0,62,63
 319 1123 319 1123 319 786 c 0,64,65
 319 754 319 754 319 717 c 2,66,-1
 319 575 l 1,67,68
 396 667 396 667 519 753 c 0,69,70
 709 889 709 889 859 889 c 0,71,72
 975 889 975 889 1060 803 c 0,73,74
 1155 707 1155 707 1168 567 c 0,75,76
 1170 548 1170 548 1170 529 c 0,77,78
 1170 359 1170 359 1048 201 c 0,79,80
 946 68 946 68 812 12 c 0,81,82
 745 -16 745 -16 685 -16 c 0,83,84
 543 -16 543 -16 532 77 c 0,85,86
 531 84 531 84 531 92 c 0,87,88
 531 162 531 162 595 202 c 0,89,90
 631 224 631 224 667 224 c 0,0,1
EndSplineSet
EndChar

StartChar: uniEC02
Encoding: 60418 60418 5
Width: 0
Flags: W
LayerCount: 2
Fore
SplineSet
-1758 -221 m 0,0,1
 -1758 -184 -1758 -184 -1694 -130 c 0,2,3
 -1650 -94 -1650 -94 -1631 -94 c 2,4,-1
 -1490 -117 l 2,5,6
 -1449 -123 -1449 -123 -1407 -125 c 0,7,8
 -1363 -128 -1363 -128 -916 -128 c 0,9,10
 -459 -128 -459 -128 -379 -122 c 0,11,12
 -320 -117 -320 -117 -236 -100 c 0,13,14
 -205 -94 -205 -94 -200 -94 c 0,15,16
 -189 -94 -189 -94 -189 -106 c 0,17,18
 -189 -133 -189 -133 -233 -180 c 0,19,20
 -271 -221 -271 -221 -307 -233 c 0,21,22
 -424 -272 -424 -272 -834 -271 c 2,23,-1
 -1032 -270 l 2,24,25
 -1496 -270 -1496 -270 -1582 -263 c 0,26,27
 -1641 -258 -1641 -258 -1736 -238 c 1,28,29
 -1756 -229 -1756 -229 -1758 -221 c 0,0,1
EndSplineSet
EndChar

StartChar: uniEC43
Encoding: 60483 60483 6
Width: 0
Flags: W
LayerCount: 2
Fore
SplineSet
-1058 1568 m 0,0,1
 -1058 1580 -1058 1580 -984 1652 c 0,2,3
 -933 1702 -933 1702 -923 1702 c 0,4,5
 -909 1702 -909 1702 -837 1629 c 0,6,7
 -788 1578 -788 1578 -788 1568 c 0,8,9
 -788 1555 -788 1555 -860 1484 c 0,10,11
 -912 1433 -912 1433 -923 1433 c 0,12,13
 -937 1433 -937 1433 -1011 1510 c 0,14,15
 -1058 1559 -1058 1559 -1058 1568 c 0,0,1
-1241 1306 m 0,16,17
 -1241 1320 -1241 1320 -1168 1391 c 0,18,19
 -1116 1442 -1116 1442 -1105 1442 c 0,20,21
 -1092 1442 -1092 1442 -1020 1368 c 0,22,23
 -970 1317 -970 1317 -970 1307 c 0,24,25
 -970 1291 -970 1291 -1051 1216 c 0,26,27
 -1098 1172 -1098 1172 -1105 1172 c 0,28,29
 -1118 1172 -1118 1172 -1190 1245 c 0,30,31
 -1241 1296 -1241 1296 -1241 1306 c 0,16,17
-876 1306 m 0,32,33
 -876 1322 -876 1322 -800 1394 c 0,34,35
 -750 1442 -750 1442 -740 1442 c 0,36,37
 -727 1442 -727 1442 -655 1369 c 0,38,39
 -604 1317 -604 1317 -604 1307 c 0,40,41
 -604 1291 -604 1291 -686 1215 c 0,42,43
 -732 1172 -732 1172 -740 1172 c 0,44,45
 -751 1172 -751 1172 -822 1242 c 0,46,47
 -876 1296 -876 1296 -876 1306 c 0,32,33
EndSplineSet
EndChar

StartChar: uniEC53
Encoding: 60499 60499 7
Width: 0
Flags: W
LayerCount: 2
Fore
SplineSet
-1095 1100 m 1,0,1
 -1119 1105 -1119 1105 -1122 1126 c 0,2,3
 -1122 1144 -1122 1144 -1093 1169 c 0,4,5
 -860 1386 -860 1386 -672 1536 c 0,6,7
 -549 1632 -549 1632 -520 1632 c 0,8,9
 -482 1632 -482 1632 -468 1599 c 0,10,11
 -464 1589 -464 1589 -464 1578 c 0,12,13
 -464 1547 -464 1547 -501 1515 c 0,14,15
 -510 1508 -510 1508 -527 1494 c 0,16,17
 -747 1323 -747 1323 -949 1186 c 0,18,19
 -1075 1100 -1075 1100 -1095 1100 c 1,0,1
EndSplineSet
EndChar

StartChar: uniEC63
Encoding: 60515 60515 8
Width: 0
Flags: W
LayerCount: 2
Fore
SplineSet
-1110 1307 m 0,0,1
 -1110 1320 -1110 1320 -1035 1393 c 0,2,3
 -985 1442 -985 1442 -976 1442 c 0,4,5
 -961 1442 -961 1442 -888 1365 c 0,6,7
 -840 1316 -840 1316 -840 1306 c 0,8,9
 -840 1294 -840 1294 -908 1226 c 0,10,11
 -962 1172 -962 1172 -975 1172 c 0,12,13
 -991 1172 -991 1172 -1063 1249 c 0,14,15
 -1110 1298 -1110 1298 -1110 1307 c 0,0,1
EndSplineSet
EndChar

StartChar: uniEC83
Encoding: 60547 60547 9
Width: 0
Flags: W
LayerCount: 2
Fore
SplineSet
-934 1606 m 0,0,1
 -934 1628 -934 1628 -885 1678 c 0,2,3
 -797 1766 -797 1766 -700 1780 c 0,4,5
 -686 1782 -686 1782 -672 1782 c 0,6,7
 -578 1782 -578 1782 -529 1712 c 0,8,9
 -499 1670 -499 1670 -499 1617 c 0,10,11
 -499 1519 -499 1519 -597 1418 c 0,12,13
 -624 1390 -624 1390 -656 1366 c 0,14,15
 -747 1297 -747 1297 -1021 1180 c 0,16,17
 -1194 1106 -1194 1106 -1223 1106 c 0,18,19
 -1245 1106 -1245 1106 -1248 1123 c 0,20,21
 -1249 1125 -1249 1125 -1249 1128 c 0,22,23
 -1249 1153 -1249 1153 -1134 1209 c 2,24,-1
 -922 1310 l 1,25,26
 -698 1424 -698 1424 -669 1518 c 0,27,28
 -664 1534 -664 1534 -664 1549 c 0,29,30
 -664 1603 -664 1603 -728 1633 c 0,31,32
 -760 1648 -760 1648 -792 1648 c 0,33,34
 -827 1648 -827 1648 -866 1618 c 0,35,36
 -898 1594 -898 1594 -919 1594 c 0,37,38
 -934 1594 -934 1594 -934 1606 c 0,0,1
EndSplineSet
EndChar

StartChar: uniEC01
Encoding: 60417 60417 10
Width: 0
Flags: W
LayerCount: 2
Fore
SplineSet
-1097 -219 m 0,0,1
 -1095 -181 -1095 -181 -1031 -128 c 0,2,3
 -989 -93 -989 -93 -970 -93 c 0,4,5
 -967 -93 -967 -93 -937 -105 c 0,6,7
 -902 -117 -902 -117 -846 -126 c 0,8,9
 -835 -127 -835 -127 -601 -128 c 0,10,11
 -352 -128 -352 -128 -314 -123 c 0,12,13
 -282 -119 -282 -119 -239 -102 c 0,14,15
 -216 -93 -216 -93 -210 -93 c 0,16,17
 -198 -93 -198 -93 -198 -107 c 0,18,19
 -198 -132 -198 -132 -235 -173 c 0,20,21
 -281 -223 -281 -223 -350 -246 c 0,22,23
 -409 -265 -409 -265 -465 -268 c 0,24,25
 -506 -270 -506 -270 -695 -270 c 0,26,27
 -951 -270 -951 -270 -996 -263 c 0,28,29
 -1029 -259 -1029 -259 -1075 -240 c 1,30,31
 -1096 -226 -1096 -226 -1097 -219 c 0,0,1
EndSplineSet
EndChar

StartChar: uni6028
Encoding: 24616 24616 11
Width: 0
Flags: W
LayerCount: 2
Fore
SplineSet
-1126 -460 m 0,0,1
 -1126 -449 -1126 -449 -1056 -379 c 0,2,3
 -1002 -325 -1002 -325 -991 -325 c 0,4,5
 -977 -325 -977 -325 -902 -404 c 0,6,7
 -856 -452 -856 -452 -856 -460 c 0,8,9
 -856 -472 -856 -472 -925 -541 c 0,10,11
 -979 -596 -979 -596 -992 -596 c 0,12,13
 -1008 -596 -1008 -596 -1083 -514 c 0,14,15
 -1126 -467 -1126 -467 -1126 -460 c 0,0,1
EndSplineSet
EndChar

StartChar: uni6029
Encoding: 24617 24617 12
Width: 0
Flags: W
LayerCount: 2
Fore
SplineSet
-338 1699 m 0,0,1
 -143 1699 -143 1699 -39 1784 c 1,2,-1
 19 1835 l 2,3,4
 39 1849 39 1849 59 1849 c 0,5,6
 72 1849 72 1849 72 1837 c 0,7,8
 72 1808 72 1808 16 1748 c 0,9,10
 -91 1635 -91 1635 -255 1586 c 0,11,12
 -350 1557 -350 1557 -453 1557 c 0,13,14
 -600 1557 -600 1557 -831 1607 c 0,15,16
 -1050 1655 -1050 1655 -1137 1665 c 0,17,18
 -1209 1673 -1209 1673 -1275 1673 c 0,19,20
 -1476 1673 -1476 1673 -1579 1588 c 1,21,-1
 -1637 1537 l 2,22,23
 -1656 1523 -1656 1523 -1676 1523 c 0,24,25
 -1689 1523 -1689 1523 -1689 1537 c 0,26,27
 -1687 1573 -1687 1573 -1622 1636 c 0,28,29
 -1506 1747 -1506 1747 -1339 1792 c 0,30,31
 -1253 1815 -1253 1815 -1164 1815 c 0,32,33
 -1023 1815 -1023 1815 -781 1764 c 0,34,35
 -550 1715 -550 1715 -456 1705 c 0,36,37
 -394 1699 -394 1699 -338 1699 c 0,0,1
EndSplineSet
EndChar

StartChar: uni602A
Encoding: 24618 24618 13
Width: 1198
Flags: W
LayerCount: 2
Fore
SplineSet
525 -51 m 0,0,1
 369 -51 369 -51 257 75 c 0,2,3
 138 209 138 209 124 422 c 0,4,5
 123 446 123 446 123 470 c 0,6,7
 123 884 123 884 382 1253 c 0,8,9
 537 1472 537 1472 737 1616 c 0,10,11
 880 1718 880 1718 961 1724 c 0,12,13
 964 1724 964 1724 968 1724 c 0,14,15
 975 1724 975 1724 978 1723 c 0,16,17
 987 1723 987 1723 989 1711 c 0,18,19
 989 1684 989 1684 930 1647 c 2,20,-1
 789 1562 l 1,21,22
 603 1440 603 1440 486 1265 c 0,23,24
 310 999 310 999 293 668 c 0,25,26
 291 638 291 638 291 610 c 0,27,28
 291 392 291 392 403 251 c 0,29,30
 500 129 500 129 638 118 c 0,31,32
 650 117 650 117 662 117 c 0,33,34
 740 117 740 117 816 146 c 0,35,36
 873 167 873 167 896 200 c 0,37,38
 942 276 942 276 944 369 c 0,39,40
 944 433 944 433 902 483 c 0,41,42
 869 523 869 523 863 535 c 0,43,44
 853 556 853 556 853 580 c 0,45,46
 853 637 853 637 899 679 c 0,47,48
 937 714 937 714 986 714 c 0,49,50
 1056 714 1056 714 1091 632 c 0,51,52
 1112 582 1112 582 1112 516 c 0,53,54
 1112 326 1112 326 957 160 c 0,55,56
 930 131 930 131 899 104 c 0,57,58
 723 -51 723 -51 525 -51 c 0,0,1
EndSplineSet
EndChar

StartChar: uniEBD8
Encoding: 60376 60376 14
Width: 696
Flags: W
LayerCount: 2
Fore
SplineSet
-196 8 m 2,0,-1
 -592 0 l 1,1,2
 -612 6 -612 6 -614 15 c 0,3,4
 -614 56 -614 56 -547 113 c 0,5,6
 -523 133 -523 133 -507 141 c 0,7,8
 -477 155 -477 155 -122 158 c 0,9,10
 -107 158 -107 158 -97 158 c 0,11,12
 114 158 114 158 266 132 c 0,13,14
 393 111 393 111 486 20 c 0,15,16
 594 -86 594 -86 594 -242 c 0,17,18
 594 -411 594 -411 454 -557 c 0,19,20
 316 -702 316 -702 143 -721 c 0,21,22
 125 -722 125 -722 108 -722 c 0,23,24
 2 -722 2 -722 -95 -660 c 0,25,26
 -212 -585 -212 -585 -221 -469 c 0,27,28
 -221 -462 -221 -462 -221 -454 c 0,29,30
 -221 -356 -221 -356 -133 -272 c 0,31,32
 -82 -222 -82 -222 -46 -217 c 0,33,34
 -30 -217 -30 -217 -30 -233 c 0,35,36
 -30 -252 -30 -252 -51 -280 c 128,-1,37
 -72 -308 -72 -308 -72 -336 c 0,38,39
 -72 -416 -72 -416 3 -486 c 0,40,41
 93 -571 93 -571 225 -572 c 0,42,43
 298 -572 298 -572 357 -544 c 0,44,45
 390 -528 390 -528 404 -506 c 0,46,47
 443 -446 443 -446 444 -359 c 0,48,49
 444 -220 444 -220 343 -119 c 0,50,51
 260 -38 260 -38 130 -14 c 0,52,53
 78 -5 78 -5 -30 3 c 0,54,55
 -108 8 -108 8 -196 8 c 2,0,-1
EndSplineSet
EndChar

StartChar: uniE027
Encoding: 57383 57383 15
Width: 1196
Flags: W
LayerCount: 2
Fore
SplineSet
92 359 m 0,0,1
 92 541 92 541 238 703 c 0,2,3
 356 835 356 835 514 893 c 0,4,5
 595 923 595 923 667 923 c 0,6,7
 857 923 857 923 974 812 c 0,8,9
 1081 711 1081 711 1081 563 c 0,10,11
 1081 336 1081 336 912 119 c 1,12,-1
 900 103 l 1,13,14
 968 72 968 72 1019 4 c 0,15,16
 1081 -79 1081 -79 1081 -184 c 0,17,18
 1081 -489 1081 -489 706 -767 c 0,19,20
 633 -822 633 -822 546 -874 c 0,21,22
 446 -934 446 -934 410 -941 c 0,23,24
 401 -942 401 -942 392 -942 c 0,25,26
 372 -942 372 -942 372 -929 c 0,27,28
 372 -901 372 -901 455 -848 c 2,29,-1
 633 -736 l 1,30,31
 818 -612 818 -612 874 -495 c 0,32,33
 913 -413 913 -413 913 -316 c 0,34,35
 913 -177 913 -177 793 -90 c 0,36,37
 752 -60 752 -60 713 -48 c 0,38,39
 701 -45 701 -45 701 -34 c 0,40,41
 701 -5 701 -5 747 43 c 0,42,43
 810 112 810 112 832 142 c 0,44,45
 913 258 913 258 913 420 c 0,46,47
 913 562 913 562 807 658 c 0,48,49
 700 755 700 755 541 755 c 0,50,51
 413 755 413 755 340 702 c 0,52,53
 312 681 312 681 298 655 c 0,54,55
 260 586 260 586 260 502 c 0,56,57
 260 440 260 440 301 391 c 0,58,59
 333 352 333 352 340 339 c 0,60,61
 350 318 350 318 350 293 c 0,62,63
 350 248 350 248 318 207 c 0,64,65
 280 158 280 158 213 158 c 0,66,67
 149 158 149 158 115 238 c 0,68,69
 92 290 92 290 92 359 c 0,0,1
EndSplineSet
EndChar

StartChar: colon
Encoding: 58 58 16
Width: 487
Flags: W
LayerCount: 2
Fore
SplineSet
124 718 m 4,0,1
 124 730 124 730 197 802 c 4,2,3
 250 853 250 853 260 853 c 4,4,5
 272 853 272 853 343 781 c 4,6,7
 395 728 395 728 395 718 c 4,8,9
 395 705 395 705 323 634 c 4,10,11
 271 583 271 583 260 583 c 4,12,13
 246 583 246 583 173 659 c 4,14,15
 124 709 124 709 124 718 c 4,0,1
124 155 m 4,16,17
 124 167 124 167 198 239 c 4,18,19
 250 290 250 290 260 290 c 4,20,21
 274 290 274 290 347 213 c 4,22,23
 395 164 395 164 395 154 c 4,24,25
 395 142 395 142 327 74 c 4,26,27
 273 20 273 20 260 20 c 4,28,29
 244 20 244 20 171 98 c 4,30,31
 124 146 124 146 124 155 c 4,16,17
EndSplineSet
EndChar

StartChar: uniE02B
Encoding: 57387 57387 17
Width: 1069
Flags: W
LayerCount: 2
Fore
SplineSet
84 366 m 0,0,1
 84 545 84 545 230 701 c 0,2,3
 340 818 340 818 474 867 c 0,4,5
 533 888 533 888 581 888 c 0,6,7
 593 889 593 889 606 889 c 0,8,9
 793 889 793 889 915 749 c 0,10,11
 950 708 950 708 970 667 c 0,12,13
 1007 591 1007 591 1007 509 c 0,14,15
 1007 327 1007 327 848 164 c 0,16,17
 673 -16 673 -16 468 -16 c 0,18,19
 307 -16 307 -16 195 96 c 0,20,21
 181 110 181 110 169 125 c 0,22,23
 84 231 84 231 84 366 c 0,0,1
838 368 m 0,24,25
 838 504 838 504 745 604 c 0,26,27
 635 720 635 720 455 720 c 0,28,29
 400 720 400 720 341 696 c 0,30,31
 305 682 305 682 294 663 c 0,32,33
 252 594 252 594 252 505 c 0,34,35
 252 370 252 370 344 269 c 0,36,37
 358 253 358 253 375 239 c 0,38,39
 477 152 477 152 604 152 c 0,40,41
 759 152 759 152 809 237 c 0,42,43
 838 286 838 286 838 368 c 0,24,25
EndSplineSet
EndChar

StartChar: uni602F
Encoding: 24623 24623 18
Width: 0
Flags: W
LayerCount: 2
Fore
SplineSet
-527 -875 m 0,0,1
 -428 -875 -428 -875 -363 -824 c 0,2,3
 -330 -798 -330 -798 -320 -794 c 0,4,5
 -314 -792 -314 -792 -308 -792 c 0,6,7
 -297 -792 -297 -792 -295 -806 c 0,8,9
 -295 -836 -295 -836 -348 -891 c 0,10,11
 -442 -987 -442 -987 -572 -1012 c 0,12,13
 -607 -1018 -607 -1018 -643 -1018 c 0,14,15
 -717 -1018 -717 -1018 -875 -984 c 0,16,17
 -1017 -954 -1017 -954 -1092 -954 c 0,18,19
 -1188 -954 -1188 -954 -1254 -1004 c 0,20,21
 -1289 -1031 -1289 -1031 -1299 -1034 c 0,22,23
 -1306 -1036 -1306 -1036 -1312 -1036 c 0,24,25
 -1324 -1036 -1324 -1036 -1324 -1023 c 0,26,27
 -1324 -993 -1324 -993 -1272 -939 c 0,28,29
 -1178 -842 -1178 -842 -1049 -818 c 0,30,31
 -1013 -811 -1013 -811 -977 -811 c 0,32,33
 -898 -811 -898 -811 -745 -844 c 0,34,35
 -605 -875 -605 -875 -527 -875 c 0,0,1
EndSplineSet
EndChar

StartChar: uni6030
Encoding: 24624 24624 19
Width: 0
Flags: W
LayerCount: 2
Fore
SplineSet
-195 1736 m 0,0,1
 -96 1736 -96 1736 -31 1788 c 0,2,3
 1 1814 1 1814 11 1817 c 0,4,5
 16 1818 16 1818 22 1818 c 0,6,7
 37 1818 37 1818 37 1804 c 0,8,9
 37 1779 37 1779 -9 1727 c 0,10,11
 -101 1626 -101 1626 -236 1600 c 0,12,13
 -274 1593 -274 1593 -313 1593 c 0,14,15
 -383 1593 -383 1593 -545 1627 c 0,16,17
 -688 1657 -688 1657 -761 1657 c 0,18,19
 -859 1657 -859 1657 -899 1624 c 2,20,-1
 -935 1594 l 2,21,22
 -950 1583 -950 1583 -969 1577 c 0,23,24
 -976 1575 -976 1575 -980 1575 c 0,25,26
 -992 1575 -992 1575 -992 1589 c 0,27,28
 -992 1618 -992 1618 -940 1671 c 0,29,30
 -847 1769 -847 1769 -718 1794 c 0,31,32
 -683 1800 -683 1800 -647 1800 c 0,33,34
 -563 1800 -563 1800 -423 1768 c 128,-1,35
 -283 1736 -283 1736 -195 1736 c 0,0,1
EndSplineSet
EndChar

StartChar: uniE000
Encoding: 57344 57344 20
Width: 1372
Flags: W
LayerCount: 2
Fore
SplineSet
434 575 m 1,0,1
 509 665 509 665 632 753 c 0,2,3
 823 889 823 889 973 889 c 0,4,5
 1093 889 1093 889 1181 798 c 0,6,7
 1247 730 1247 730 1274 624 c 0,8,9
 1285 579 1285 579 1285 529 c 0,10,11
 1285 373 1285 373 1171 216 c 0,12,13
 1075 84 1075 84 949 22 c 0,14,15
 872 -16 872 -16 794 -16 c 0,16,17
 680 -16 680 -16 653 52 c 0,18,19
 646 70 646 70 646 92 c 0,20,21
 646 168 646 168 713 206 c 0,22,23
 746 224 746 224 780 224 c 0,24,25
 816 224 816 224 860 190 c 0,26,27
 903 157 903 157 929 153 c 0,28,29
 937 152 937 152 945 152 c 0,30,31
 1003 152 1003 152 1045 181 c 0,32,33
 1053 186 1053 186 1057 191 c 0,34,35
 1111 264 1111 264 1117 373 c 1,36,-1
 1117 387 l 2,37,38
 1117 533 1117 533 1025 632 c 2,39,-1
 1016 642 l 1,40,41
 937 721 937 721 839 721 c 0,42,43
 724 721 724 721 605 638 c 0,44,45
 512 574 512 574 472 494 c 0,46,47
 435 420 435 420 432 327 c 0,48,49
 432 314 432 314 432 299 c 0,50,51
 422 -557 422 -557 255 -819 c 0,52,53
 196 -913 196 -913 124 -968 c 0,54,55
 87 -996 87 -996 65 -996 c 0,56,57
 51 -996 51 -996 51 -982 c 0,58,59
 51 -960 51 -960 105 -892 c 0,60,61
 129 -862 129 -862 134 -851 c 0,62,63
 265 -600 265 -600 265 401 c 0,64,65
 265 614 265 614 247 664 c 0,66,67
 232 704 232 704 194 704 c 0,68,69
 150 704 150 704 114 675 c 0,70,71
 87 654 87 654 67 654 c 0,72,73
 57 654 57 654 53 668 c 1,74,75
 53 697 53 697 106 755 c 0,76,77
 190 847 190 847 288 867 c 0,78,79
 308 871 308 871 329 871 c 0,80,81
 401 871 401 871 421 788 c 0,82,83
 432 744 432 744 433 654 c 2,84,-1
 434 575 l 1,0,1
EndSplineSet
EndChar

StartChar: uniE004
Encoding: 57348 57348 21
Width: 2002
Flags: W
LayerCount: 2
Fore
SplineSet
434 592 m 1,0,1
 637 818 637 818 819 874 c 0,2,3
 865 888 865 888 904 888 c 0,4,5
 1049 888 1049 888 1131 754 c 0,6,7
 1166 696 1166 696 1181 626 c 2,8,-1
 1186 605 l 1,9,-1
 1261 685 l 1,10,11
 1465 888 1465 888 1644 888 c 0,12,13
 1776 888 1776 888 1858 744 c 0,14,15
 1879 707 1879 707 1891 671 c 0,16,17
 1912 606 1912 606 1912 537 c 0,18,19
 1912 360 1912 360 1787 196 c 0,20,21
 1688 67 1688 67 1565 11 c 0,22,23
 1504 -16 1504 -16 1452 -16 c 0,24,25
 1313 -16 1313 -16 1299 72 c 0,26,27
 1297 81 1297 81 1297 92 c 0,28,29
 1297 162 1297 162 1361 202 c 0,30,31
 1397 224 1397 224 1433 224 c 0,32,33
 1470 224 1470 224 1512 190 c 0,34,35
 1550 158 1550 158 1573 153 c 0,36,37
 1580 152 1580 152 1589 152 c 0,38,39
 1652 152 1652 152 1684 189 c 0,40,41
 1717 228 1717 228 1736 316 c 0,42,43
 1743 350 1743 350 1743 396 c 0,44,45
 1743 598 1743 598 1612 683 c 0,46,47
 1554 721 1554 721 1504 721 c 0,48,49
 1411 721 1411 721 1321 646 c 0,50,51
 1310 637 1310 637 1303 630 c 0,52,53
 1248 572 1248 572 1197 446 c 0,54,55
 1142 313 1142 313 1120 271 c 0,56,57
 1108 250 1108 250 1095 230 c 0,58,59
 975 49 975 49 819 -2 c 0,60,61
 775 -16 775 -16 738 -16 c 0,62,63
 637 -16 637 -16 600 36 c 0,64,65
 584 59 584 59 584 91 c 0,66,67
 584 144 584 144 628 187 c 0,68,69
 668 224 668 224 719 224 c 0,70,71
 756 224 756 224 799 190 c 0,72,73
 839 158 839 158 863 154 c 0,74,75
 872 152 872 152 882 152 c 0,76,77
 945 152 945 152 966 184 c 0,78,79
 1024 269 1024 269 1024 388 c 0,80,81
 1024 585 1024 585 894 677 c 0,82,83
 833 720 833 720 777 721 c 0,84,85
 674 721 674 721 577 640 c 0,86,87
 463 544 463 544 438 398 c 0,88,89
 432 367 432 367 432 300 c 0,90,91
 422 -557 422 -557 255 -819 c 0,92,93
 196 -913 196 -913 124 -968 c 0,94,95
 87 -996 87 -996 65 -996 c 0,96,97
 51 -996 51 -996 51 -982 c 0,98,99
 51 -960 51 -960 105 -892 c 0,100,101
 129 -862 129 -862 134 -851 c 0,102,103
 265 -600 265 -600 265 401 c 0,104,105
 265 614 265 614 247 664 c 0,106,107
 232 704 232 704 194 704 c 0,108,109
 150 704 150 704 114 675 c 0,110,111
 87 654 87 654 67 654 c 0,112,113
 57 654 57 654 53 668 c 1,114,115
 53 697 53 697 106 755 c 0,116,117
 190 847 190 847 288 867 c 0,118,119
 308 871 308 871 329 871 c 0,120,121
 405 871 405 871 424 777 c 0,122,123
 432 737 432 737 433 662 c 2,124,-1
 434 592 l 1,0,1
EndSplineSet
EndChar

StartChar: uniE008
Encoding: 57352 57352 22
Width: 1259
Flags: W
LayerCount: 2
Fore
SplineSet
99 -16 m 0,0,1
 84 -16 84 -16 84 -2 c 0,2,3
 84 14 84 14 105 44 c 0,4,5
 143 97 143 97 151 174 c 0,6,7
 156 236 156 236 156 622 c 0,8,9
 156 1075 156 1075 196 1295 c 0,10,11
 248 1592 248 1592 421 1741 c 2,12,-1
 429 1748 l 2,13,14
 471 1782 471 1782 494 1782 c 0,15,16
 509 1782 509 1782 509 1768 c 0,17,18
 509 1746 509 1746 477 1705 c 0,19,20
 422 1637 422 1637 401 1578 c 0,21,22
 398 1572 398 1572 396 1565 c 0,23,24
 342 1399 342 1399 329 1050 c 0,25,26
 323 876 323 876 323 596 c 2,27,-1
 323 575 l 1,28,-1
 391 647 l 2,29,30
 408 663 408 663 422 675 c 0,31,32
 569 807 569 807 718 860 c 0,33,34
 795 888 795 888 862 888 c 0,35,36
 981 888 981 888 1068 798 c 0,37,38
 1134 729 1134 729 1161 624 c 0,39,40
 1172 579 1172 579 1172 529 c 0,41,42
 1172 358 1172 358 1049 200 c 0,43,44
 946 68 946 68 812 12 c 0,45,46
 745 -16 745 -16 685 -16 c 0,47,48
 560 -16 560 -16 537 61 c 0,49,50
 532 75 532 75 532 91 c 0,51,52
 532 162 532 162 598 202 c 0,53,54
 633 224 633 224 668 224 c 0,55,56
 705 224 705 224 748 190 c 0,57,58
 788 158 788 158 812 153 c 0,59,60
 821 152 821 152 830 152 c 0,61,62
 885 152 885 152 927 176 c 0,63,64
 933 179 933 179 938 183 c 0,65,66
 968 205 968 205 990 287 c 0,67,68
 1004 341 1004 341 1004 396 c 0,69,70
 1004 505 1004 505 939 600 c 0,71,72
 860 714 860 714 739 721 c 0,73,74
 732 721 732 721 726 721 c 0,75,76
 620 721 620 721 511 651 c 0,77,78
 367 558 367 558 330 402 c 0,79,80
 317 338 317 338 313 267 c 1,81,82
 288 120 288 120 165 18 c 0,83,84
 124 -16 124 -16 99 -16 c 0,0,1
EndSplineSet
EndChar

StartChar: uniE00C
Encoding: 57356 57356 23
Width: 1888
Flags: W
LayerCount: 2
Fore
SplineSet
99 -16 m 2,0,1
 84 -16 84 -16 84 -2 c 0,2,3
 84 14 84 14 105 44 c 0,4,5
 143 97 143 97 151 174 c 0,6,7
 156 236 156 236 156 622 c 0,8,9
 156 1075 156 1075 196 1295 c 0,10,11
 248 1592 248 1592 421 1741 c 2,12,-1
 429 1748 l 2,13,14
 471 1782 471 1782 494 1782 c 0,15,16
 509 1782 509 1782 509 1768 c 0,17,18
 509 1746 509 1746 477 1705 c 0,19,20
 422 1637 422 1637 401 1578 c 0,21,22
 398 1572 398 1572 396 1565 c 0,23,24
 338 1389 338 1389 325 996 c 1,25,-1
 323 614 l 1,26,-1
 323 592 l 1,27,-1
 365 641 l 1,28,29
 447 727 447 727 552 797 c 0,30,31
 689 888 689 888 805 888 c 0,32,33
 933 888 933 888 1018 754 c 0,34,35
 1066 679 1066 679 1073 617 c 0,36,37
 1074 611 1074 611 1074 607 c 2,38,-1
 1075 606 l 2,39,40
 1078 606 1078 606 1094 627 c 0,41,42
 1135 682 1135 682 1214 745 c 0,43,44
 1394 889 1394 889 1530 889 c 0,45,46
 1651 889 1651 889 1733 767 c 0,47,48
 1800 667 1800 667 1800 539 c 0,49,50
 1800 371 1800 371 1685 209 c 0,51,52
 1588 72 1588 72 1460 13 c 0,53,54
 1415 -7 1415 -7 1373 -14 c 0,55,56
 1358 -16 1358 -16 1331 -16 c 0,57,58
 1231 -16 1231 -16 1198 40 c 0,59,60
 1185 62 1185 62 1185 91 c 0,61,62
 1185 159 1185 159 1246 200 c 0,63,64
 1282 224 1282 224 1320 224 c 0,65,66
 1365 224 1365 224 1396 193 c 0,67,68
 1424 166 1424 166 1439 160 c 0,69,70
 1457 152 1457 152 1482 152 c 0,71,72
 1558 152 1558 152 1583 204 c 0,73,74
 1587 211 1587 211 1587 212 c 0,75,76
 1632 296 1632 296 1632 396 c 0,77,78
 1632 567 1632 567 1525 664 c 0,79,80
 1505 682 1505 682 1485 694 c 0,81,82
 1440 721 1440 721 1389 721 c 0,83,84
 1300 721 1300 721 1210 648 c 0,85,86
 1195 635 1195 635 1186 625 c 0,87,88
 1128 559 1128 559 1072 416 c 0,89,90
 1030 308 1030 308 1012 277 c 0,91,92
 934 137 934 137 814 53 c 0,93,94
 716 -16 716 -16 625 -16 c 0,95,96
 504 -16 504 -16 479 55 c 0,97,98
 473 72 473 72 473 92 c 0,99,100
 473 168 473 168 540 206 c 0,101,102
 573 224 573 224 607 224 c 0,103,104
 653 224 653 224 683 194 c 0,105,106
 709 167 709 167 723 161 c 0,107,108
 742 152 742 152 770 152 c 0,109,110
 807 152 807 152 847 172 c 1,111,112
 903 265 903 265 910 348 c 0,113,114
 912 368 912 368 912 390 c 0,115,116
 912 543 912 543 821 643 c 0,117,118
 767 704 767 704 701 718 c 0,119,120
 689 720 689 720 665 720 c 0,121,122
 565 720 565 720 464 638 c 0,123,124
 367 561 367 561 336 419 c 0,125,126
 326 375 326 375 314 277 c 0,127,128
 298 146 298 146 197 46 c 0,129,130
 140 -10 140 -10 103 -16 c 1,131,-1
 99 -16 l 2,0,1
EndSplineSet
EndChar

StartChar: uniE010
Encoding: 57360 57360 24
Width: 2002
Flags: W
LayerCount: 2
Fore
SplineSet
436 592 m 1,0,1
 494 669 494 669 600 751 c 0,2,3
 777 889 777 889 918 889 c 0,4,5
 1014 889 1014 889 1092 807 c 0,6,7
 1159 735 1159 735 1182 626 c 1,8,-1
 1187 606 l 1,9,-1
 1240 663 l 1,10,11
 1419 846 1419 846 1577 881 c 0,12,13
 1610 889 1610 889 1641 889 c 0,14,15
 1776 889 1776 889 1857 748 c 0,16,17
 1878 711 1878 711 1890 675 c 0,18,19
 1913 608 1913 608 1913 537 c 0,20,21
 1913 393 1913 393 1818 240 c 0,22,23
 1725 90 1725 90 1595 23 c 0,24,25
 1519 -16 1519 -16 1443 -16 c 0,26,27
 1342 -16 1342 -16 1310 42 c 0,28,29
 1298 63 1298 63 1298 91 c 0,30,31
 1298 162 1298 162 1362 202 c 0,32,33
 1397 224 1397 224 1433 224 c 0,34,35
 1478 224 1478 224 1509 193 c 0,36,37
 1537 166 1537 166 1552 160 c 0,38,39
 1570 152 1570 152 1595 152 c 0,40,41
 1661 152 1661 152 1683 185 c 0,42,43
 1744 275 1744 275 1744 396 c 0,44,45
 1744 565 1744 565 1639 663 c 0,46,47
 1618 682 1618 682 1598 694 c 0,48,49
 1553 721 1553 721 1502 721 c 0,50,51
 1413 721 1413 721 1324 648 c 0,52,53
 1309 636 1309 636 1299 625 c 0,54,55
 1252 571 1252 571 1198 444 c 0,56,57
 1138 302 1138 302 1102 244 c 0,58,59
 1061 176 1061 176 1008 123 c 0,60,61
 869 -16 869 -16 738 -16 c 0,62,63
 623 -16 623 -16 594 49 c 0,64,65
 585 68 585 68 585 92 c 0,66,67
 585 146 585 146 630 188 c 0,68,69
 668 224 668 224 720 224 c 0,70,71
 764 224 764 224 796 193 c 0,72,73
 825 165 825 165 843 158 c 0,74,75
 859 152 859 152 882 152 c 0,76,77
 921 152 921 152 959 172 c 1,78,79
 1025 266 1025 266 1025 388 c 0,80,81
 1025 546 1025 546 932 646 c 0,82,83
 878 704 878 704 813 718 c 0,84,85
 801 720 801 720 777 720 c 0,86,87
 675 720 675 720 571 633 c 0,88,89
 480 557 480 557 450 426 c 0,90,91
 441 386 441 386 427 277 c 0,92,93
 410 145 410 145 308 45 c 0,94,95
 252 -11 252 -11 212 -16 c 0,96,97
 197 -16 197 -16 197 -3 c 0,98,99
 197 -2 197 -2 197 0 c 0,100,101
 197 15 197 15 219 45 c 0,102,103
 258 100 258 100 263 174 c 0,104,105
 268 243 268 243 268 542 c 0,106,107
 268 703 268 703 199 703 c 0,108,109
 153 703 153 703 119 676 c 0,110,111
 93 655 93 655 71 654 c 0,112,113
 57 654 57 654 57 669 c 0,114,115
 57 712 57 712 128 775 c 0,116,117
 214 852 214 852 301 868 c 0,118,119
 318 871 318 871 333 871 c 0,120,121
 409 871 409 871 428 771 c 0,122,123
 436 729 436 729 436 662 c 2,124,-1
 436 592 l 1,0,1
EndSplineSet
EndChar

StartChar: uniE014
Encoding: 57364 57364 25
Width: 1372
Flags: W
LayerCount: 2
Fore
SplineSet
333 871 m 0,0,1
 412 871 412 871 429 763 c 0,2,3
 436 722 436 722 436 654 c 0,4,5
 436 576 436 576 437 576 c 0,6,7
 439 576 439 576 459 600 c 0,8,9
 490 635 490 635 535 675 c 0,10,11
 714 833 714 833 877 875 c 0,12,13
 928 889 928 889 974 889 c 0,14,15
 1092 889 1092 889 1180 798 c 0,16,17
 1247 729 1247 729 1274 624 c 0,18,19
 1285 579 1285 579 1285 530 c 0,20,21
 1285 387 1285 387 1185 235 c 0,22,23
 1088 89 1088 89 955 23 c 0,24,25
 876 -16 876 -16 798 -16 c 0,26,27
 671 -16 671 -16 649 63 c 0,28,29
 645 76 645 76 645 91 c 0,30,31
 645 142 645 142 688 185 c 0,32,33
 726 224 726 224 780 224 c 0,34,35
 818 224 818 224 861 190 c 0,36,37
 900 158 900 158 923 153 c 0,38,39
 932 152 932 152 942 152 c 0,40,41
 1002 152 1002 152 1046 179 c 0,42,43
 1049 181 1049 181 1051 183 c 0,44,45
 1079 206 1079 206 1101 284 c 0,46,47
 1116 336 1116 336 1116 385 c 0,48,49
 1116 560 1116 560 992 664 c 0,50,51
 924 721 924 721 839 721 c 0,52,53
 719 721 719 721 591 627 c 0,54,55
 553 600 553 600 530 574 c 0,56,57
 469 507 469 507 443 381 c 2,58,-1
 414 238 l 1,59,60
 381 105 381 105 290 29 c 2,61,-1
 277 18 l 2,62,63
 234 -16 234 -16 212 -16 c 0,64,65
 197 -16 197 -16 197 -3 c 0,66,67
 197 -2 197 -2 197 0 c 0,68,69
 197 15 197 15 219 45 c 0,70,71
 258 100 258 100 263 174 c 0,72,73
 268 243 268 243 268 542 c 0,74,75
 268 703 268 703 199 703 c 0,76,77
 153 703 153 703 119 676 c 0,78,79
 93 655 93 655 71 654 c 0,80,81
 57 654 57 654 57 669 c 0,82,83
 57 712 57 712 128 775 c 0,84,85
 214 852 214 852 301 868 c 0,86,87
 318 871 318 871 333 871 c 0,0,1
EndSplineSet
EndChar

StartChar: uniE020
Encoding: 57376 57376 26
Width: 1216
Flags: W
LayerCount: 2
Fore
SplineSet
463 650 m 1,0,1
 466 650 466 650 514 696 c 0,2,3
 692 870 692 870 846 885 c 1,4,-1
 874 885 l 2,5,6
 999 885 999 885 1073 777 c 0,7,8
 1108 725 1108 725 1119 665 c 0,9,10
 1122 644 1122 644 1122 618 c 0,11,12
 1122 442 1122 442 980 268 c 0,13,14
 904 175 904 175 791 90 c 0,15,16
 754 62 754 62 596 -36 c 0,17,18
 414 -150 414 -150 332 -238 c 0,19,20
 280 -294 280 -294 251 -354 c 0,21,22
 219 -421 219 -421 219 -484 c 0,23,24
 219 -621 219 -621 335 -701 c 0,25,26
 376 -730 376 -730 412 -739 c 0,27,28
 439 -747 439 -747 475 -747 c 0,29,30
 552 -747 552 -747 598 -702 c 0,31,32
 629 -671 629 -671 632 -669 c 0,33,34
 650 -655 650 -655 673 -655 c 0,35,36
 690 -655 690 -655 690 -671 c 0,37,38
 690 -700 690 -700 632 -763 c 0,39,40
 536 -867 536 -867 422 -902 c 0,41,42
 379 -915 379 -915 337 -915 c 0,43,44
 172 -915 172 -915 93 -771 c 0,45,46
 52 -695 52 -695 51 -627 c 0,47,48
 51 -518 51 -518 137 -374 c 0,49,50
 255 -175 255 -175 485 -23 c 0,51,52
 500 -13 500 -13 500 -11 c 0,53,54
 500 21 500 21 386 340 c 0,55,56
 336 479 336 479 327 492 c 2,57,-1
 326 494 l 1,58,-1
 319 485 l 2,59,60
 319 489 319 489 325 499 c 1,61,-1
 316 519 l 1,62,-1
 278 614 l 1,63,64
 227 722 227 722 159 722 c 0,65,66
 126 722 126 722 95 698 c 0,67,68
 75 682 75 682 56 682 c 0,69,70
 39 682 39 682 39 699 c 0,71,72
 39 724 39 724 87 775 c 0,73,74
 167 861 167 861 256 870 c 0,75,76
 265 871 265 871 275 871 c 0,77,78
 356 871 356 871 407 778 c 0,79,80
 417 760 417 760 453 674 c 0,81,82
 463 652 463 652 463 650 c 1,0,1
954 476 m 0,83,84
 954 594 954 594 873 665 c 0,85,86
 807 723 807 723 707 723 c 0,87,88
 592 723 592 723 478 615 c 1,89,-1
 489 586 l 2,90,91
 555 420 555 420 631 179 c 0,92,93
 657 97 657 97 657 85 c 1,94,-1
 658 84 l 1,95,96
 673 84 673 84 792 181 c 0,97,98
 833 214 833 214 850 231 c 0,99,100
 954 332 954 332 954 476 c 0,83,84
EndSplineSet
EndChar

StartChar: uniE024
Encoding: 57380 57380 27
Width: 1169
Flags: W
LayerCount: 2
Fore
SplineSet
700 1593 m 0,0,1
 700 1623 700 1623 752 1680 c 0,2,3
 812 1746 812 1746 853 1746 c 0,4,5
 873 1746 873 1746 895 1703 c 0,6,7
 915 1662 915 1662 915 1621 c 0,8,9
 915 1497 915 1497 772 1290 c 2,10,-1
 713 1207 l 1,11,-1
 585 1044 l 2,12,13
 358 761 358 761 296 632 c 0,14,15
 256 546 256 546 256 473 c 0,16,17
 256 310 256 310 383 206 c 0,18,19
 472 133 472 133 583 119 c 0,20,21
 597 118 597 118 628 118 c 0,22,23
 909 118 909 118 909 369 c 0,24,25
 909 433 909 433 868 482 c 0,26,27
 835 520 835 520 830 531 c 0,28,29
 818 552 818 552 818 579 c 0,30,31
 818 633 818 633 861 676 c 0,32,33
 899 714 899 714 951 714 c 0,34,35
 1040 714 1040 714 1067 599 c 0,36,37
 1076 560 1076 560 1076 516 c 0,38,39
 1076 338 1076 338 941 181 c 0,40,41
 907 141 907 141 865 104 c 0,42,43
 687 -51 687 -51 489 -51 c 0,44,45
 365 -51 365 -51 262 16 c 0,46,47
 144 93 144 93 104 225 c 0,48,49
 88 276 88 276 88 328 c 0,50,51
 88 500 88 500 282 773 c 0,52,53
 334 846 334 846 509 1066 c 0,54,55
 670 1270 670 1270 716 1366 c 0,56,57
 747 1431 747 1431 747 1477 c 0,58,59
 747 1536 747 1536 712 1574 c 0,60,61
 700 1587 700 1587 700 1593 c 0,0,1
EndSplineSet
EndChar

StartChar: uniE028
Encoding: 57384 57384 28
Width: 1290
Flags: W
LayerCount: 2
Fore
SplineSet
39 1504 m 0,0,1
 39 1536 39 1536 103 1601 c 0,2,3
 189 1691 189 1691 270 1712 c 0,4,5
 289 1717 289 1717 306 1717 c 0,6,7
 373 1717 373 1717 413 1656 c 0,8,9
 418 1649 418 1649 422 1640 c 2,10,-1
 995 226 l 1,11,12
 1043 133 1043 133 1113 133 c 0,13,14
 1129 133 1129 133 1165 167 c 0,15,16
 1210 209 1210 209 1239 211 c 0,17,18
 1255 211 1255 211 1255 196 c 0,19,20
 1255 167 1255 167 1198 104 c 0,21,22
 1114 10 1114 10 1028 -11 c 0,23,24
 1009 -16 1009 -16 991 -16 c 0,25,26
 899 -16 899 -16 843 106 c 0,27,28
 837 120 837 120 824 152 c 2,29,-1
 643 599 l 2,30,31
 641 599 641 599 607 536 c 0,32,33
 545 418 545 418 448 263 c 0,34,35
 304 32 304 32 169 -9 c 0,36,37
 143 -16 143 -16 117 -16 c 0,38,39
 77 -16 77 -16 29 34 c 0,40,41
 6 58 6 58 6 68 c 0,42,43
 6 95 6 95 56 151 c 0,44,45
 118 221 118 221 160 221 c 0,46,47
 170 221 170 221 191 195 c 0,48,49
 228 155 228 155 258 152 c 0,50,51
 278 152 278 152 283 159 c 0,52,53
 284 161 284 161 286 164 c 0,54,55
 362 282 362 282 489 512 c 2,56,-1
 599 709 l 1,57,-1
 277 1506 l 2,58,59
 258 1549 258 1549 215 1563 c 0,60,61
 203 1567 203 1567 190 1567 c 0,62,63
 168 1567 168 1567 128 1530 c 0,64,65
 86 1492 86 1492 63 1489 c 0,66,67
 59 1488 59 1488 56 1488 c 0,68,69
 39 1488 39 1488 39 1504 c 0,0,1
EndSplineSet
EndChar

StartChar: uniEC12
Encoding: 60434 60434 29
Width: 0
Flags: W
LayerCount: 2
Fore
SplineSet
-552 -193 m 0,0,1
 -380 -193 -380 -193 -291 -120 c 2,2,-1
 -241 -77 l 2,3,4
 -223 -64 -223 -64 -203 -64 c 0,5,6
 -201 -64 -201 -64 -200 -64 c 0,7,8
 -192 -68 -192 -68 -190 -77 c 0,9,10
 -190 -109 -190 -109 -246 -167 c 0,11,12
 -351 -275 -351 -275 -512 -316 c 0,13,14
 -589 -335 -589 -335 -671 -335 c 0,15,16
 -799 -335 -799 -335 -1005 -290 c 0,17,18
 -1204 -247 -1204 -247 -1295 -239 c 0,19,20
 -1339 -236 -1339 -236 -1381 -236 c 0,21,22
 -1551 -236 -1551 -236 -1642 -310 c 2,23,-1
 -1692 -353 l 2,24,25
 -1711 -366 -1711 -366 -1729 -366 c 0,26,27
 -1742 -366 -1742 -366 -1742 -352 c 0,28,29
 -1742 -324 -1742 -324 -1689 -268 c 0,30,31
 -1585 -158 -1585 -158 -1428 -115 c 0,32,33
 -1350 -94 -1350 -94 -1266 -94 c 0,34,35
 -1139 -94 -1139 -94 -927 -139 c 0,36,37
 -722 -183 -722 -183 -629 -190 c 0,38,39
 -589 -193 -589 -193 -552 -193 c 0,0,1
EndSplineSet
EndChar

StartChar: uniEC11
Encoding: 60433 60433 30
Width: 0
Flags: W
LayerCount: 2
Fore
SplineSet
-397 -190 m 0,0,1
 -311 -190 -311 -190 -267 -150 c 0,2,3
 -242 -127 -242 -127 -232 -124 c 0,4,5
 -223 -120 -223 -120 -212 -120 c 0,6,7
 -198 -120 -198 -120 -198 -133 c 0,8,9
 -198 -162 -198 -162 -248 -215 c 0,10,11
 -337 -309 -337 -309 -459 -329 c 0,12,13
 -486 -333 -486 -333 -512 -333 c 0,14,15
 -577 -333 -577 -333 -718 -303 c 0,16,17
 -833 -279 -833 -279 -897 -279 c 0,18,19
 -984 -279 -984 -279 -1028 -318 c 0,20,21
 -1054 -341 -1054 -341 -1063 -345 c 0,22,23
 -1072 -348 -1072 -348 -1084 -348 c 0,24,25
 -1097 -348 -1097 -348 -1097 -335 c 0,26,27
 -1097 -309 -1097 -309 -1049 -258 c 0,28,29
 -960 -162 -960 -162 -840 -141 c 0,30,31
 -812 -137 -812 -137 -784 -137 c 0,32,33
 -714 -137 -714 -137 -576 -166 c 0,34,35
 -463 -190 -463 -190 -397 -190 c 0,0,1
EndSplineSet
EndChar

StartChar: uni603C
Encoding: 24636 24636 31
Width: 1191
Flags: W
LayerCount: 2
Fore
SplineSet
97 1194 m 0,0,1
 97 1341 97 1341 207 1492 c 128,-1,2
 317 1643 317 1643 478 1714 c 0,3,4
 580 1759 580 1759 683 1759 c 0,5,6
 848 1759 848 1759 964 1652 c 0,7,8
 1077 1548 1077 1548 1086 1394 c 1,9,-1
 1086 1370 l 2,10,11
 1086 1143 1086 1143 925 933 c 0,12,13
 896 896 896 896 864 862 c 0,14,15
 850 848 850 848 850 847 c 2,16,-1
 892 823 l 1,17,18
 1023 736 1023 736 1058 599 c 0,19,20
 1069 555 1069 555 1069 507 c 0,21,22
 1069 316 1069 316 846 -5 c 0,23,24
 799 -72 799 -72 682 -229 c 2,25,-1
 556 -401 l 1,26,27
 414 -603 414 -603 407 -707 c 0,28,29
 407 -714 407 -714 407 -720 c 0,30,31
 407 -781 407 -781 442 -820 c 0,32,33
 456 -836 456 -836 456 -844 c 0,34,35
 456 -873 456 -873 404 -930 c 0,36,37
 343 -996 343 -996 304 -996 c 2,38,-1
 302 -996 l 2,39,40
 288 -996 288 -996 267 -962 c 0,41,42
 239 -917 239 -917 239 -862 c 0,43,44
 239 -745 239 -745 368 -540 c 0,45,46
 438 -429 438 -429 566 -257 c 0,47,48
 798 54 798 54 860 192 c 0,49,50
 901 285 901 285 901 367 c 0,51,52
 901 490 901 490 819 588 c 0,53,54
 727 699 727 699 574 719 c 0,55,56
 560 720 560 720 529 720 c 0,57,58
 441 720 441 720 365 688 c 0,59,60
 329 673 329 673 308 652 c 0,61,62
 259 603 259 603 249 489 c 0,63,64
 248 477 248 477 248 467 c 0,65,66
 248 405 248 405 289 356 c 0,67,68
 322 316 322 316 328 302 c 0,69,70
 338 282 338 282 338 257 c 0,71,72
 338 189 338 189 277 147 c 0,73,74
 241 123 241 123 203 123 c 0,75,76
 142 123 142 123 106 196 c 0,77,78
 80 249 80 249 80 323 c 0,79,80
 80 503 80 503 225 665 c 0,81,82
 256 700 256 700 293 733 c 0,83,84
 470 889 470 889 667 889 c 0,85,86
 716 889 716 889 762 877 c 0,87,88
 769 876 769 876 775 876 c 0,89,90
 786 876 786 876 818 918 c 0,91,92
 904 1032 904 1032 917 1187 c 0,93,94
 919 1209 919 1209 919 1231 c 0,95,96
 919 1379 919 1379 815 1482 c 0,97,98
 711 1586 711 1586 558 1590 c 1,99,-1
 546 1590 l 2,100,101
 470 1590 470 1590 394 1562 c 0,102,103
 335 1540 335 1540 314 1508 c 0,104,105
 268 1431 268 1431 265 1341 c 0,106,107
 265 1275 265 1275 306 1226 c 0,108,109
 338 1188 338 1188 344 1176 c 0,110,111
 355 1155 355 1155 355 1129 c 0,112,113
 355 1086 355 1086 325 1045 c 0,114,115
 286 994 286 994 218 994 c 0,116,117
 154 994 154 994 120 1073 c 0,118,119
 97 1125 97 1125 97 1194 c 0,0,1
EndSplineSet
EndChar

StartChar: uni2E31
Encoding: 11825 11825 32
Width: 487
Flags: W
LayerCount: 2
Fore
SplineSet
124 436 m 0,0,1
 124 449 124 449 198 520 c 0,2,3
 250 571 250 571 260 571 c 0,4,5
 273 571 273 571 343 500 c 0,6,7
 395 447 395 447 395 436 c 0,8,9
 395 423 395 423 323 352 c 0,10,11
 271 301 271 301 260 301 c 0,12,13
 246 301 246 301 172 379 c 0,14,15
 124 427 124 427 124 436 c 0,0,1
EndSplineSet
EndChar

StartChar: uni603E
Encoding: 24638 24638 33
Width: 0
Flags: W
LayerCount: 2
Fore
SplineSet
-664 -434 m 0,0,1
 -664 -421 -664 -421 -591 -350 c 0,2,3
 -539 -299 -539 -299 -528 -299 c 0,4,5
 -516 -299 -516 -299 -444 -372 c 0,6,7
 -394 -424 -394 -424 -394 -434 c 0,8,9
 -394 -449 -394 -449 -472 -524 c 0,10,11
 -520 -569 -520 -569 -528 -569 c 0,12,13
 -543 -569 -543 -569 -616 -493 c 0,14,15
 -664 -443 -664 -443 -664 -434 c 0,0,1
-315 -434 m 0,16,17
 -315 -420 -315 -420 -243 -350 c 0,18,19
 -191 -299 -191 -299 -180 -299 c 0,20,21
 -168 -299 -168 -299 -98 -370 c 0,22,23
 -46 -423 -46 -423 -46 -434 c 0,24,25
 -46 -449 -46 -449 -124 -524 c 0,26,27
 -172 -569 -172 -569 -180 -569 c 0,28,29
 -195 -569 -195 -569 -266 -495 c 0,30,31
 -315 -444 -315 -444 -315 -434 c 0,16,17
-489 -687 m 0,32,33
 -489 -673 -489 -673 -417 -603 c 0,34,35
 -365 -552 -365 -552 -354 -552 c 0,36,37
 -342 -552 -342 -552 -272 -623 c 0,38,39
 -220 -676 -220 -676 -220 -686 c 0,40,41
 -220 -702 -220 -702 -298 -777 c 0,42,43
 -346 -822 -346 -822 -354 -822 c 0,44,45
 -369 -822 -369 -822 -440 -748 c 0,46,47
 -489 -697 -489 -697 -489 -687 c 0,32,33
EndSplineSet
EndChar

StartChar: uni603F
Encoding: 24639 24639 34
Width: 0
Flags: W
LayerCount: 2
Fore
SplineSet
-634 -877 m 0,0,1
 -440 -877 -440 -877 -339 -794 c 2,2,-1
 -279 -742 l 2,3,4
 -258 -727 -258 -727 -237 -727 c 0,5,6
 -225 -729 -225 -729 -225 -740 c 0,7,8
 -225 -767 -225 -767 -282 -827 c 0,9,10
 -389 -940 -389 -940 -541 -989 c 0,11,12
 -578 -1001 -578 -1001 -616 -1008 c 0,13,14
 -682 -1020 -682 -1020 -754 -1020 c 0,15,16
 -904 -1020 -904 -1020 -1120 -971 c 0,17,18
 -1327 -925 -1327 -925 -1411 -914 c 128,-1,19
 -1495 -903 -1495 -903 -1577 -903 c 0,20,21
 -1772 -903 -1772 -903 -1876 -989 c 1,22,-1
 -1933 -1040 l 2,23,24
 -1953 -1054 -1953 -1054 -1973 -1054 c 0,25,26
 -1986 -1054 -1986 -1054 -1986 -1041 c 0,27,28
 -1986 -1005 -1986 -1005 -1910 -935 c 0,29,30
 -1799 -833 -1799 -833 -1665 -790 c 0,31,32
 -1648 -785 -1648 -785 -1632 -781 c 0,33,34
 -1553 -761 -1553 -761 -1459 -761 c 0,35,36
 -1309 -761 -1309 -761 -1094 -809 c 0,37,38
 -887 -856 -887 -856 -804 -866 c 0,39,40
 -718 -877 -718 -877 -634 -877 c 0,0,1
EndSplineSet
EndChar

StartChar: uniE01C
Encoding: 57372 57372 35
Width: 1888
Flags: W
LayerCount: 2
Fore
SplineSet
-48 -996 m 0,0,1
 -63 -996 -63 -996 -63 -982 c 0,2,3
 -63 -960 -63 -960 -37 -929 c 0,4,5
 11 -870 11 -870 37 -808 c 0,6,7
 65 -739 65 -739 83 -639 c 0,8,9
 127 -406 127 -406 139 -145 c 0,10,11
 150 82 150 82 151 502 c 0,12,13
 152 1055 152 1055 185 1268 c 0,14,15
 201 1372 201 1372 230 1460 c 0,16,17
 279 1604 279 1604 384 1711 c 0,18,19
 438 1767 438 1767 476 1779 c 0,20,21
 482 1782 482 1782 490 1782 c 0,22,23
 504 1782 504 1782 504 1768 c 0,24,25
 504 1740 504 1740 480 1714 c 0,26,27
 439 1671 439 1671 419 1632 c 0,28,29
 366 1527 366 1527 340 1304 c 0,30,31
 319 1125 319 1125 319 803 c 0,32,33
 319 771 319 771 319 735 c 2,34,-1
 319 591 l 1,35,36
 354 644 354 644 450 723 c 0,37,38
 635 876 635 876 781 887 c 0,39,40
 792 888 792 888 802 888 c 0,41,42
 915 888 915 888 994 787 c 0,43,44
 1050 715 1050 715 1072 606 c 0,45,46
 1074 606 1074 606 1092 629 c 0,47,48
 1135 683 1135 683 1213 747 c 0,49,50
 1392 889 1392 889 1527 889 c 0,51,52
 1633 889 1633 889 1709 797 c 0,53,54
 1751 746 1751 746 1776 671 c 0,55,56
 1797 607 1797 607 1797 538 c 0,57,58
 1797 360 1797 360 1672 196 c 0,59,60
 1573 66 1573 66 1449 11 c 0,61,62
 1388 -16 1388 -16 1335 -16 c 0,63,64
 1225 -16 1225 -16 1193 44 c 0,65,66
 1182 65 1182 65 1182 91 c 0,67,68
 1182 158 1182 158 1243 199 c 0,69,70
 1279 224 1279 224 1317 224 c 128,-1,71
 1355 224 1355 224 1397 190 c 0,72,73
 1436 158 1436 158 1460 153 c 0,74,75
 1469 152 1469 152 1478 152 c 0,76,77
 1548 152 1548 152 1571 189 c 0,78,79
 1628 278 1628 278 1628 395 c 0,80,81
 1628 583 1628 583 1502 681 c 0,82,83
 1455 719 1455 719 1386 721 c 0,84,85
 1299 721 1299 721 1214 654 c 0,86,87
 1198 642 1198 642 1187 630 c 0,88,89
 1131 570 1131 570 1081 445 c 0,90,91
 1030 316 1030 316 1008 276 c 0,92,93
 992 245 992 245 973 218 c 0,94,95
 842 30 842 30 685 -8 c 0,96,97
 654 -16 654 -16 625 -16 c 0,98,99
 471 -16 471 -16 471 91 c 0,100,101
 471 178 471 178 554 212 c 0,102,103
 583 224 583 224 605 224 c 0,104,105
 649 224 649 224 682 192 c 0,106,107
 713 164 713 164 731 158 c 0,108,109
 748 152 748 152 769 152 c 0,110,111
 831 152 831 152 851 182 c 0,112,113
 909 267 909 267 910 390 c 0,114,115
 910 543 910 543 819 643 c 0,116,117
 765 703 765 703 699 718 c 0,118,119
 687 720 687 720 663 720 c 0,120,121
 569 720 569 720 474 647 c 0,122,123
 352 553 352 553 325 404 c 0,124,125
 321 381 321 381 319 358 c 0,126,127
 317 342 317 342 317 296 c 0,128,129
 311 -194 311 -194 248 -523 c 0,130,131
 201 -767 201 -767 72 -913 c 1,132,133
 -1 -987 -1 -987 -48 -996 c 0,0,1
EndSplineSet
EndChar

StartChar: uniE01A
Encoding: 57370 57370 36
Width: 1245
Flags: W
LayerCount: 2
Fore
SplineSet
590 639 m 256,0,1
 553 639 553 639 510 676 c 0,2,3
 470 711 470 711 448 718 c 0,4,5
 436 721 436 721 424 721 c 0,6,7
 366 721 366 721 321 693 c 0,8,9
 312 687 312 687 308 682 c 0,10,11
 253 610 253 610 248 498 c 1,12,-1
 248 486 l 2,13,14
 248 332 248 332 349 231 c 0,15,16
 427 152 427 152 532 152 c 0,17,18
 626 152 626 152 735 195 c 0,19,20
 832 234 832 234 880 293 c 0,21,22
 929 355 929 355 934 464 c 0,23,24
 934 465 934 465 934 607 c 0,25,26
 934 1075 934 1075 972 1288 c 0,27,28
 979 1325 979 1325 988 1365 c 0,29,30
 1026 1538 1026 1538 1123 1660 c 0,31,32
 1213 1773 1213 1773 1267 1781 c 0,33,34
 1270 1782 1270 1782 1272 1782 c 0,35,36
 1287 1782 1287 1782 1287 1767 c 0,37,38
 1287 1746 1287 1746 1262 1716 c 0,39,40
 1213 1658 1213 1658 1186 1591 c 0,41,42
 1116 1413 1116 1413 1105 1032 c 2,43,-1
 1103 979 l 1,44,-1
 1102 762 l 1,45,-1
 1102 760 l 2,46,47
 1100 536 1100 536 1100 509 c 2,48,-1
 1087 -160 l 1,49,50
 1079 -345 1079 -345 1071 -414 c 0,51,52
 1036 -715 1036 -715 906 -877 c 0,53,54
 826 -977 826 -977 771 -994 c 0,55,56
 764 -996 764 -996 758 -996 c 0,57,58
 744 -996 744 -996 744 -982 c 0,59,60
 744 -963 744 -963 798 -891 c 0,61,62
 825 -854 825 -854 831 -841 c 0,63,64
 892 -717 892 -717 908 -482 c 0,65,66
 915 -384 915 -384 925 52 c 2,67,-1
 929 233 l 1,68,-1
 929 242 l 1,69,-1
 912 225 l 1,70,71
 702 23 702 23 465 -11 c 0,72,73
 427 -16 427 -16 392 -16 c 0,74,75
 272 -16 272 -16 184 75 c 0,76,77
 118 143 118 143 91 248 c 0,78,79
 80 293 80 293 80 342 c 0,80,81
 80 508 80 508 200 666 c 0,82,83
 301 800 301 800 433 858 c 0,84,85
 502 888 502 888 564 888 c 0,86,87
 714 888 714 888 723 785 c 0,88,89
 724 779 724 779 724 772 c 0,90,91
 724 706 724 706 663 664 c 0,92,93
 627 639 627 639 590 639 c 256,0,1
EndSplineSet
EndChar

StartChar: uniEC60
Encoding: 60512 60512 37
Width: 0
Flags: W
LayerCount: 2
Fore
SplineSet
-430 1307 m 0,0,1
 -430 1319 -430 1319 -357 1391 c 0,2,3
 -305 1442 -305 1442 -296 1442 c 0,4,5
 -281 1442 -281 1442 -208 1365 c 0,6,7
 -160 1316 -160 1316 -160 1306 c 0,8,9
 -160 1294 -160 1294 -228 1226 c 0,10,11
 -282 1172 -282 1172 -295 1172 c 0,12,13
 -311 1172 -311 1172 -384 1250 c 0,14,15
 -430 1298 -430 1298 -430 1307 c 0,0,1
EndSplineSet
EndChar

StartChar: uniEC40
Encoding: 60480 60480 38
Width: 0
Flags: W
LayerCount: 2
Fore
SplineSet
-414 1560 m 0,0,1
 -414 1572 -414 1572 -340 1644 c 0,2,3
 -289 1694 -289 1694 -279 1694 c 0,4,5
 -265 1694 -265 1694 -193 1621 c 0,6,7
 -144 1570 -144 1570 -144 1560 c 0,8,9
 -144 1546 -144 1546 -216 1475 c 0,10,11
 -268 1424 -268 1424 -279 1424 c 0,12,13
 -292 1424 -292 1424 -364 1499 c 0,14,15
 -414 1550 -414 1550 -414 1560 c 0,0,1
-588 1307 m 0,16,17
 -588 1321 -588 1321 -513 1393 c 0,18,19
 -462 1442 -462 1442 -453 1442 c 0,20,21
 -439 1442 -439 1442 -367 1368 c 0,22,23
 -318 1317 -318 1317 -318 1307 c 0,24,25
 -318 1294 -318 1294 -388 1225 c 0,26,27
 -441 1172 -441 1172 -453 1172 c 0,28,29
 -468 1172 -468 1172 -540 1247 c 0,30,31
 -588 1297 -588 1297 -588 1307 c 0,16,17
-240 1307 m 0,32,33
 -240 1319 -240 1319 -166 1391 c 0,34,35
 -115 1442 -115 1442 -105 1442 c 0,36,37
 -90 1442 -90 1442 -16 1365 c 0,38,39
 30 1316 30 1316 30 1307 c 0,40,41
 30 1293 30 1293 -43 1222 c 0,42,43
 -94 1172 -94 1172 -104 1172 c 0,44,45
 -121 1172 -121 1172 -196 1252 c 0,46,47
 -240 1299 -240 1299 -240 1307 c 0,32,33
EndSplineSet
EndChar

StartChar: uniEC41
Encoding: 60481 60481 39
Width: 0
Flags: W
LayerCount: 2
Fore
SplineSet
-691 1568 m 1,0,-1
 -690 1576 l 1,1,2
 -683 1588 -683 1588 -613 1656 c 0,3,4
 -565 1702 -565 1702 -556 1702 c 0,5,6
 -542 1702 -542 1702 -469 1626 c 0,7,8
 -421 1576 -421 1576 -421 1567 c 0,9,10
 -421 1556 -421 1556 -493 1485 c 0,11,12
 -545 1433 -545 1433 -556 1433 c 0,13,14
 -576 1433 -576 1433 -690 1560 c 1,15,-1
 -691 1568 l 1,0,-1
-874 1306 m 0,16,17
 -874 1322 -874 1322 -799 1394 c 0,18,19
 -749 1442 -749 1442 -739 1442 c 0,20,21
 -726 1442 -726 1442 -654 1369 c 0,22,23
 -603 1317 -603 1317 -603 1307 c 0,24,25
 -603 1291 -603 1291 -685 1215 c 0,26,27
 -731 1172 -731 1172 -739 1172 c 0,28,29
 -750 1172 -750 1172 -822 1244 c 0,30,31
 -874 1296 -874 1296 -874 1306 c 0,16,17
-508 1306 m 0,32,33
 -508 1321 -508 1321 -434 1393 c 0,34,35
 -383 1442 -383 1442 -373 1442 c 0,36,37
 -360 1442 -360 1442 -288 1368 c 0,38,39
 -238 1317 -238 1317 -238 1307 c 0,40,41
 -238 1291 -238 1291 -319 1216 c 0,42,43
 -366 1172 -366 1172 -373 1172 c 0,44,45
 -385 1172 -385 1172 -454 1240 c 0,46,47
 -508 1295 -508 1295 -508 1306 c 0,32,33
EndSplineSet
EndChar

StartChar: uniEC42
Encoding: 60482 60482 40
Width: 0
Flags: W
LayerCount: 2
Fore
SplineSet
-779 1568 m 0,0,1
 -779 1583 -779 1583 -704 1654 c 0,2,3
 -654 1702 -654 1702 -644 1702 c 0,4,5
 -631 1702 -631 1702 -561 1631 c 0,6,7
 -509 1578 -509 1578 -509 1566 c 0,8,9
 -509 1556 -509 1556 -579 1487 c 0,10,11
 -633 1433 -633 1433 -644 1433 c 0,12,13
 -659 1433 -659 1433 -730 1507 c 0,14,15
 -779 1558 -779 1558 -779 1568 c 0,0,1
-962 1306 m 0,16,17
 -962 1322 -962 1322 -887 1394 c 0,18,19
 -837 1442 -837 1442 -827 1442 c 0,20,21
 -814 1442 -814 1442 -742 1369 c 0,22,23
 -691 1317 -691 1317 -691 1307 c 0,24,25
 -691 1291 -691 1291 -773 1215 c 0,26,27
 -819 1172 -819 1172 -827 1172 c 0,28,29
 -838 1172 -838 1172 -909 1242 c 0,30,31
 -962 1296 -962 1296 -962 1306 c 0,16,17
-596 1306 m 0,32,33
 -596 1321 -596 1321 -522 1393 c 0,34,35
 -471 1442 -471 1442 -461 1442 c 0,36,37
 -448 1442 -448 1442 -376 1368 c 0,38,39
 -326 1317 -326 1317 -326 1307 c 0,40,41
 -326 1291 -326 1291 -407 1216 c 0,42,43
 -454 1172 -454 1172 -461 1172 c 0,44,45
 -473 1172 -473 1172 -542 1240 c 0,46,47
 -596 1295 -596 1295 -596 1306 c 0,32,33
EndSplineSet
EndChar

StartChar: uniEC51
Encoding: 60497 60497 41
Width: 0
Flags: W
LayerCount: 2
Fore
SplineSet
-694 1100 m 1,0,1
 -718 1105 -718 1105 -721 1126 c 0,2,3
 -721 1161 -721 1161 -375 1448 c 2,4,-1
 -227 1573 l 2,5,6
 -151 1632 -151 1632 -119 1632 c 0,7,8
 -75 1632 -75 1632 -64 1591 c 0,9,10
 -62 1584 -62 1584 -62 1579 c 0,11,12
 -62 1545 -62 1545 -107 1508 c 2,13,-1
 -126 1494 l 1,14,15
 -348 1322 -348 1322 -549 1185 c 0,16,17
 -673 1100 -673 1100 -694 1100 c 1,0,1
EndSplineSet
EndChar

StartChar: uniEC61
Encoding: 60513 60513 42
Width: 0
Flags: W
LayerCount: 2
Fore
SplineSet
-708 1307 m 0,0,1
 -708 1321 -708 1321 -634 1393 c 0,2,3
 -583 1442 -583 1442 -574 1442 c 0,4,5
 -559 1442 -559 1442 -485 1365 c 0,6,7
 -438 1316 -438 1316 -438 1307 c 0,8,9
 -438 1293 -438 1293 -512 1222 c 0,10,11
 -563 1172 -563 1172 -573 1172 c 0,12,13
 -589 1172 -589 1172 -661 1248 c 0,14,15
 -708 1298 -708 1298 -708 1307 c 0,0,1
EndSplineSet
EndChar

StartChar: uniEC71
Encoding: 60529 60529 43
Width: 0
Flags: W
LayerCount: 2
Fore
SplineSet
-772 1104 m 0,0,1
 -791 1104 -791 1104 -794 1125 c 0,2,3
 -794 1126 -794 1126 -794 1128 c 0,4,5
 -794 1154 -794 1154 -631 1347 c 0,6,7
 -435 1577 -435 1577 -326 1668 c 0,8,9
 -311 1680 -311 1680 -300 1688 c 0,10,11
 -186 1766 -186 1766 -91 1766 c 0,12,13
 6 1766 6 1766 50 1696 c 0,14,15
 73 1660 73 1660 73 1615 c 0,16,17
 73 1499 73 1499 -33 1406 c 0,18,19
 -96 1350 -96 1350 -146 1340 c 0,20,21
 -151 1339 -151 1339 -156 1339 c 0,22,23
 -174 1339 -174 1339 -174 1352 c 0,24,25
 -174 1362 -174 1362 -148 1393 c 0,26,27
 -95 1461 -95 1461 -93 1524 c 0,28,29
 -93 1606 -93 1606 -151 1621 c 0,30,31
 -162 1624 -162 1624 -174 1624 c 0,32,33
 -260 1621 -260 1621 -414 1465 c 0,34,35
 -439 1440 -439 1440 -591 1274 c 0,36,37
 -663 1194 -663 1194 -711 1149 c 0,38,39
 -754 1107 -754 1107 -765 1105 c 0,40,41
 -767 1104 -767 1104 -772 1104 c 0,0,1
EndSplineSet
EndChar

StartChar: uniE03F
Encoding: 57407 57407 44
Width: 1210
Flags: W
LayerCount: 2
Fore
SplineSet
94 358 m 0,0,1
 94 540 94 540 239 701 c 0,2,3
 357 834 357 834 515 893 c 0,4,5
 596 923 596 923 668 923 c 0,6,7
 903 923 903 923 1016 701 c 0,8,9
 1063 607 1063 607 1078 499 c 0,10,11
 1083 459 1083 459 1083 404 c 0,12,13
 1083 -6 1083 -6 860 -374 c 0,14,15
 699 -640 699 -640 452 -829 c 0,16,17
 302 -944 302 -944 240 -944 c 0,18,19
 220 -944 220 -944 220 -930 c 0,20,21
 220 -904 220 -904 280 -860 c 2,22,-1
 415 -766 l 1,23,24
 581 -643 581 -643 688 -485 c 0,25,26
 878 -204 878 -204 910 150 c 0,27,28
 916 208 916 208 916 262 c 0,29,30
 916 483 916 483 802 624 c 0,31,32
 703 746 703 746 563 755 c 0,33,34
 552 756 552 756 542 756 c 0,35,36
 424 756 424 756 349 706 c 0,37,38
 316 684 316 684 300 655 c 0,39,40
 262 586 262 586 262 502 c 0,41,42
 262 439 262 439 303 390 c 0,43,44
 335 352 335 352 341 340 c 0,45,46
 352 319 352 319 352 293 c 0,47,48
 352 236 352 236 308 194 c 0,49,50
 272 159 272 159 224 158 c 0,51,52
 134 156 134 156 105 272 c 0,53,54
 94 312 94 312 94 358 c 0,0,1
EndSplineSet
EndChar

StartChar: uniEC81
Encoding: 60545 60545 45
Width: 0
Flags: W
LayerCount: 2
Fore
SplineSet
-528 1594 m 0,0,1
 -528 1620 -528 1620 -477 1672 c 0,2,3
 -393 1760 -393 1760 -297 1774 c 0,4,5
 -282 1777 -282 1777 -266 1777 c 0,6,7
 -167 1777 -167 1777 -120 1703 c 0,8,9
 -94 1664 -94 1664 -94 1613 c 0,10,11
 -94 1433 -94 1433 -377 1277 c 0,12,13
 -480 1220 -480 1220 -669 1138 c 0,14,15
 -742 1106 -742 1106 -753 1106 c 0,16,17
 -778 1106 -778 1106 -778 1127 c 0,18,19
 -778 1153 -778 1153 -673 1210 c 2,20,-1
 -482 1312 l 1,21,22
 -285 1426 -285 1426 -261 1516 c 0,23,24
 -257 1530 -257 1530 -257 1544 c 0,25,26
 -257 1605 -257 1605 -335 1629 c 0,27,28
 -361 1637 -361 1637 -381 1637 c 0,29,30
 -425 1637 -425 1637 -463 1606 c 0,31,32
 -492 1582 -492 1582 -515 1581 c 0,33,34
 -528 1581 -528 1581 -528 1594 c 0,0,1
EndSplineSet
EndChar

StartChar: uni604B
Encoding: 24651 24651 46
Width: 1189
Flags: W
LayerCount: 2
Fore
SplineSet
289 774 m 1,0,-1
 242 813 l 1,1,2
 139 912 139 912 139 1053 c 0,3,4
 139 1385 139 1385 630 1677 c 0,5,6
 711 1725 711 1725 754 1727 c 0,7,8
 776 1727 776 1727 776 1714 c 0,9,10
 776 1687 776 1687 696 1635 c 2,11,-1
 533 1533 l 1,12,13
 394 1439 394 1439 346 1353 c 0,14,15
 308 1283 308 1283 308 1195 c 0,16,17
 308 1060 308 1060 407 969 c 0,18,19
 435 943 435 943 469 924 c 0,20,21
 483 912 483 912 484 907 c 2,22,-1
 484 905 l 2,23,24
 484 871 484 871 426 813 c 0,25,26
 416 802 416 802 405 793 c 0,27,28
 303 704 303 704 278 522 c 0,29,30
 272 482 272 482 272 450 c 0,31,32
 272 321 272 321 367 226 c 0,33,34
 478 119 478 119 645 118 c 0,35,36
 736 118 736 118 811 151 c 0,37,38
 846 166 846 166 867 187 c 0,39,40
 899 218 899 218 917 292 c 0,41,42
 926 331 926 331 926 368 c 0,43,44
 926 434 926 434 884 483 c 0,45,46
 852 521 852 521 846 532 c 0,47,48
 836 553 836 553 836 579 c 0,49,50
 836 635 836 635 881 678 c 0,51,52
 919 714 919 714 969 714 c 0,53,54
 1039 714 1039 714 1073 631 c 0,55,56
 1095 581 1095 581 1095 513 c 0,57,58
 1095 367 1095 367 984 216 c 128,-1,59
 873 65 873 65 712 -6 c 0,60,61
 609 -51 609 -51 506 -51 c 0,62,63
 347 -51 347 -51 232 42 c 0,64,65
 111 141 111 141 105 294 c 1,66,-1
 105 308 l 2,67,68
 105 518 105 518 241 712 c 0,69,70
 265 745 265 745 289 774 c 1,0,-1
EndSplineSet
EndChar

StartChar: uniECBF
Encoding: 60607 60607 47
Width: 0
Flags: W
LayerCount: 2
Fore
SplineSet
-1076 1 m 0,0,1
 -1076 14 -1076 14 -1003 85 c 0,2,3
 -950 136 -950 136 -940 136 c 0,4,5
 -927 136 -927 136 -856 63 c 0,6,7
 -805 11 -805 11 -805 1 c 0,8,9
 -805 -12 -805 -12 -879 -84 c 0,10,11
 -930 -134 -930 -134 -940 -134 c 0,12,13
 -954 -134 -954 -134 -1029 -56 c 0,14,15
 -1076 -8 -1076 -8 -1076 1 c 0,0,1
EndSplineSet
EndChar

StartChar: uniEC80
Encoding: 60544 60544 48
Width: 0
Flags: W
LayerCount: 2
Fore
SplineSet
-296 1582 m 0,0,1
 -296 1612 -296 1612 -247 1669 c 0,2,3
 -166 1762 -166 1762 -65 1780 c 0,4,5
 -45 1783 -45 1783 -25 1783 c 0,6,7
 61 1783 61 1783 107 1719 c 0,8,9
 137 1677 137 1677 137 1621 c 0,10,11
 137 1463 137 1463 -79 1306 c 0,12,13
 -155 1251 -155 1251 -289 1175 c 2,14,-1
 -389 1118 l 2,15,16
 -414 1105 -414 1105 -423 1105 c 0,17,18
 -444 1105 -444 1105 -446 1127 c 0,19,20
 -446 1142 -446 1142 -419 1164 c 0,21,22
 -408 1173 -408 1173 -387 1189 c 2,23,-1
 -282 1264 l 2,24,25
 -179 1336 -179 1336 -165 1347 c 0,26,27
 -19 1462 -19 1462 -19 1545 c 0,28,29
 -19 1597 -19 1597 -76 1621 c 0,30,31
 -103 1632 -103 1632 -135 1632 c 0,32,33
 -188 1632 -188 1632 -240 1592 c 0,34,35
 -270 1568 -270 1568 -283 1568 c 2,36,-1
 -285 1568 l 2,37,38
 -296 1568 -296 1568 -296 1582 c 0,0,1
EndSplineSet
EndChar

StartChar: uniEC70
Encoding: 60528 60528 49
Width: 0
Flags: W
LayerCount: 2
Fore
SplineSet
-441 1103 m 0,0,1
 -460 1103 -460 1103 -463 1126 c 0,2,3
 -463 1158 -463 1158 -307 1390 c 0,4,5
 -202 1546 -202 1546 -148 1609 c 0,6,7
 -80 1688 -80 1688 5 1733 c 0,8,9
 68 1766 68 1766 124 1766 c 0,10,11
 221 1766 221 1766 266 1695 c 0,12,13
 291 1657 291 1657 291 1607 c 0,14,15
 291 1500 291 1500 195 1404 c 0,16,17
 136 1346 136 1346 93 1336 c 0,18,19
 88 1335 88 1335 84 1335 c 0,20,21
 69 1335 69 1335 69 1347 c 0,22,23
 69 1360 69 1360 94 1391 c 0,24,25
 137 1444 137 1444 137 1500 c 0,26,27
 137 1571 137 1571 92 1600 c 0,28,29
 73 1612 73 1612 49 1612 c 0,30,31
 -21 1612 -21 1612 -119 1504 c 0,32,33
 -168 1448 -168 1448 -306 1257 c 0,34,35
 -381 1154 -381 1154 -413 1119 c 0,36,37
 -426 1103 -426 1103 -441 1103 c 0,0,1
EndSplineSet
EndChar

StartChar: uni604F
Encoding: 24655 24655 50
Width: 0
Flags: W
LayerCount: 2
Fore
SplineSet
-831 -460 m 0,0,1
 -831 -449 -831 -449 -761 -379 c 0,2,3
 -707 -325 -707 -325 -696 -325 c 0,4,5
 -682 -325 -682 -325 -607 -404 c 0,6,7
 -561 -452 -561 -452 -561 -460 c 0,8,9
 -561 -472 -561 -472 -630 -541 c 0,10,11
 -684 -596 -684 -596 -696 -596 c 0,12,13
 -713 -596 -713 -596 -788 -514 c 0,14,15
 -831 -467 -831 -467 -831 -460 c 0,0,1
EndSplineSet
EndChar

StartChar: uniEC32
Encoding: 60466 60466 51
Width: 0
Flags: W
LayerCount: 2
Fore
SplineSet
-519 1094 m 0,0,1
 -346 1094 -346 1094 -256 1169 c 2,2,-1
 -205 1214 l 2,3,4
 -187 1227 -187 1227 -168 1227 c 0,5,6
 -156 1227 -156 1227 -154 1217 c 0,7,8
 -154 1185 -154 1185 -211 1125 c 0,9,10
 -316 1016 -316 1016 -476 974 c 0,11,12
 -554 953 -554 953 -638 953 c 0,13,14
 -764 953 -764 953 -980 999 c 0,15,16
 -1188 1044 -1188 1044 -1282 1051 c 0,17,18
 -1322 1055 -1322 1055 -1360 1055 c 0,19,20
 -1531 1055 -1531 1055 -1620 981 c 2,21,-1
 -1671 937 l 2,22,23
 -1690 923 -1690 923 -1710 923 c 0,24,25
 -1724 923 -1724 923 -1724 936 c 0,26,27
 -1722 977 -1722 977 -1634 1052 c 0,28,29
 -1561 1114 -1561 1114 -1490 1147 c 0,30,31
 -1379 1197 -1379 1197 -1241 1197 c 0,32,33
 -1116 1197 -1116 1197 -905 1151 c 0,34,35
 -700 1106 -700 1106 -606 1098 c 0,36,37
 -562 1094 -562 1094 -519 1094 c 0,0,1
EndSplineSet
EndChar

StartChar: uniE019
Encoding: 57369 57369 52
Width: 1302
Flags: W
LayerCount: 2
Fore
SplineSet
890 1 m 2,0,-1
 530 10 l 2,1,2
 466 10 466 10 370 6 c 2,3,-1
 308 1 l 1,4,5
 288 -277 288 -277 266 -418 c 0,6,7
 255 -492 255 -492 241 -558 c 0,8,9
 195 -776 195 -776 70 -914 c 1,10,11
 -3 -988 -3 -988 -48 -996 c 0,12,13
 -63 -996 -63 -996 -63 -982 c 0,14,15
 -63 -960 -63 -960 -37 -929 c 0,16,17
 11 -870 11 -870 37 -808 c 0,18,19
 65 -739 65 -739 83 -639 c 0,20,21
 127 -406 127 -406 139 -145 c 0,22,23
 150 82 150 82 151 502 c 0,24,25
 152 1055 152 1055 185 1268 c 0,26,27
 201 1372 201 1372 230 1460 c 0,28,29
 279 1604 279 1604 384 1711 c 0,30,31
 438 1767 438 1767 476 1779 c 0,32,33
 482 1782 482 1782 490 1782 c 0,34,35
 504 1782 504 1782 504 1768 c 0,36,37
 504 1740 504 1740 480 1714 c 0,38,39
 439 1671 439 1671 419 1632 c 0,40,41
 366 1527 366 1527 340 1304 c 0,42,43
 319 1123 319 1123 319 786 c 0,44,45
 319 754 319 754 319 717 c 2,46,-1
 319 575 l 1,47,48
 405 677 405 677 533 765 c 0,49,50
 714 888 714 888 860 888 c 0,51,52
 988 888 988 888 1075 791 c 0,53,54
 1160 696 1160 696 1160 557 c 0,55,56
 1160 351 1160 351 967 151 c 1,57,-1
 1001 151 l 2,58,59
 1169 151 1169 151 1216 183 c 0,60,61
 1221 186 1221 186 1237 199 c 0,62,63
 1276 232 1276 232 1302 232 c 0,64,65
 1318 232 1318 232 1318 217 c 0,66,67
 1318 188 1318 188 1267 134 c 0,68,69
 1174 37 1174 37 1045 13 c 0,70,71
 1039 12 1039 12 1034 11 c 0,72,73
 984 2 984 2 890 1 c 2,0,-1
992 415 m 0,74,75
 992 602 992 602 849 683 c 0,76,77
 782 721 782 721 723 721 c 0,78,79
 613 721 613 721 502 649 c 0,80,81
 365 559 365 559 328 415 c 0,82,83
 323 394 323 394 320 373 c 0,84,85
 318 361 318 361 316 264 c 0,86,87
 316 204 316 204 314 170 c 2,88,-1
 314 139 l 1,89,-1
 315 139 l 1,90,91
 425 156 425 156 616 159 c 0,92,93
 631 160 631 160 645 160 c 2,94,-1
 776 157 l 2,95,96
 851 157 851 157 904 189 c 1,97,-1
 912 195 l 2,98,99
 945 221 945 221 972 297 c 0,100,101
 992 357 992 357 992 415 c 0,74,75
EndSplineSet
EndChar

StartChar: uniEC52
Encoding: 60498 60498 53
Width: 0
Flags: W
LayerCount: 2
Fore
SplineSet
-349 1672 m 0,0,1
 -313 1672 -313 1672 -300 1641 c 0,2,3
 -295 1630 -295 1630 -295 1618 c 0,4,5
 -295 1595 -295 1595 -310 1572 c 0,6,7
 -348 1515 -348 1515 -621 1248 c 0,8,9
 -756 1115 -756 1115 -772 1106 c 0,10,11
 -782 1099 -782 1099 -793 1099 c 0,12,13
 -815 1106 -815 1106 -819 1126 c 1,14,15
 -819 1162 -819 1162 -545 1486 c 1,16,-1
 -422 1628 l 2,17,18
 -382 1672 -382 1672 -349 1672 c 0,0,1
EndSplineSet
EndChar

StartChar: uniE01E
Encoding: 57374 57374 54
Width: 1892
Flags: W
LayerCount: 2
Fore
SplineSet
1433 774 m 0,0,1
 1433 732 1433 732 1404 691 c 0,2,3
 1366 640 1366 640 1300 640 c 0,4,5
 1254 640 1254 640 1223 673 c 0,6,7
 1195 702 1195 702 1184 708 c 0,8,9
 1164 720 1164 720 1133 720 c 0,10,11
 1069 720 1069 720 1048 690 c 0,12,13
 989 601 989 601 989 485 c 0,14,15
 989 282 989 282 1122 193 c 0,16,17
 1183 153 1183 153 1236 152 c 0,18,19
 1314 152 1314 152 1407 191 c 0,20,21
 1482 223 1482 223 1518 268 c 0,22,23
 1578 343 1578 343 1582 489 c 1,24,-1
 1582 607 l 2,25,26
 1582 1077 1582 1077 1621 1293 c 0,27,28
 1628 1328 1628 1328 1636 1365 c 0,29,30
 1675 1538 1675 1538 1771 1660 c 0,31,32
 1861 1773 1861 1773 1915 1781 c 0,33,34
 1918 1782 1918 1782 1920 1782 c 0,35,36
 1935 1782 1935 1782 1935 1767 c 0,37,38
 1935 1747 1935 1747 1881 1676 c 0,39,40
 1855 1642 1855 1642 1849 1629 c 0,41,42
 1765 1461 1765 1461 1753 1032 c 2,43,-1
 1752 980 l 1,44,-1
 1752 979 l 1,45,-1
 1750 760 l 2,46,47
 1750 622 1750 622 1736 -160 c 0,48,49
 1729 -353 1729 -353 1717 -441 c 0,50,51
 1679 -722 1679 -722 1554 -877 c 0,52,53
 1474 -977 1474 -977 1419 -994 c 0,54,55
 1412 -996 1412 -996 1406 -996 c 0,56,57
 1392 -996 1392 -996 1392 -982 c 0,58,59
 1392 -963 1392 -963 1446 -892 c 0,60,61
 1473 -855 1473 -855 1480 -841 c 0,62,63
 1539 -722 1539 -722 1555 -499 c 0,64,65
 1561 -411 1561 -411 1571 10 c 0,66,67
 1574 116 1574 116 1577 206 c 2,68,-1
 1577 227 l 1,69,-1
 1555 205 l 2,70,71
 1372 22 1372 22 1165 -11 c 0,72,73
 1130 -16 1130 -16 1098 -16 c 0,74,75
 953 -16 953 -16 870 144 c 0,76,77
 849 185 849 185 835 232 c 1,78,79
 730 101 730 101 566 31 c 0,80,81
 455 -16 455 -16 351 -16 c 0,82,83
 237 -16 237 -16 160 83 c 0,84,85
 123 131 123 131 100 198 c 0,86,87
 78 263 78 263 78 333 c 0,88,89
 78 512 78 512 201 676 c 0,90,91
 300 807 300 807 426 862 c 0,92,93
 488 888 488 888 542 888 c 0,94,95
 666 888 666 888 692 808 c 0,96,97
 697 791 697 791 697 773 c 0,98,99
 697 704 697 704 636 662 c 0,100,101
 602 640 602 640 569 639 c 0,102,103
 520 638 520 638 488 672 c 0,104,105
 460 701 460 701 451 706 c 0,106,107
 427 722 427 722 392 721 c 0,108,109
 333 720 333 720 303 681 c 0,110,111
 272 642 272 642 254 556 c 0,112,113
 246 517 246 517 246 477 c 0,114,115
 246 310 246 310 350 211 c 0,116,117
 371 191 371 191 392 179 c 0,118,119
 436 152 436 152 489 152 c 0,120,121
 606 152 606 152 700 206 c 0,122,123
 723 219 723 219 741 234 c 0,124,125
 790 276 790 276 815 370 c 2,126,-1
 848 496 l 2,127,128
 859 531 859 531 873 562 c 0,129,130
 935 694 935 694 1052 792 c 0,131,132
 1076 812 1076 812 1100 828 c 0,133,134
 1193 889 1193 889 1274 889 c 0,135,136
 1382 889 1382 889 1419 830 c 0,137,138
 1433 806 1433 806 1433 774 c 0,0,1
EndSplineSet
EndChar

StartChar: uniEC62
Encoding: 60514 60514 55
Width: 0
Flags: W
LayerCount: 2
Fore
SplineSet
-762 1307 m 0,0,1
 -762 1321 -762 1321 -687 1393 c 0,2,3
 -636 1442 -636 1442 -627 1442 c 0,4,5
 -613 1442 -613 1442 -541 1368 c 0,6,7
 -492 1317 -492 1317 -492 1307 c 0,8,9
 -492 1294 -492 1294 -562 1225 c 0,10,11
 -615 1172 -615 1172 -627 1172 c 0,12,13
 -642 1172 -642 1172 -714 1247 c 0,14,15
 -762 1297 -762 1297 -762 1307 c 0,0,1
EndSplineSet
EndChar

StartChar: uniEC82
Encoding: 60546 60546 56
Width: 0
Flags: W
LayerCount: 2
Fore
SplineSet
-684 1599 m 0,0,1
 -684 1629 -684 1629 -638 1685 c 0,2,3
 -558 1784 -558 1784 -451 1801 c 0,4,5
 -429 1804 -429 1804 -408 1804 c 0,6,7
 -313 1802 -313 1802 -272 1728 c 0,8,9
 -251 1690 -251 1690 -251 1643 c 0,10,11
 -251 1480 -251 1480 -481 1312 c 0,12,13
 -545 1265 -545 1265 -651 1201 c 0,14,15
 -792 1116 -792 1116 -815 1107 c 0,16,17
 -821 1105 -821 1105 -824 1105 c 0,18,19
 -847 1105 -847 1105 -847 1127 c 0,20,21
 -847 1152 -847 1152 -783 1198 c 2,22,-1
 -631 1304 l 2,23,24
 -570 1350 -570 1350 -517 1396 c 0,25,26
 -434 1468 -434 1468 -414 1520 c 0,27,28
 -406 1542 -406 1542 -406 1564 c 0,29,30
 -406 1620 -406 1620 -464 1642 c 0,31,32
 -488 1651 -488 1651 -517 1651 c 0,33,34
 -575 1651 -575 1651 -627 1610 c 0,35,36
 -657 1586 -657 1586 -669 1585 c 0,37,38
 -684 1585 -684 1585 -684 1599 c 0,0,1
EndSplineSet
EndChar

StartChar: uniEC50
Encoding: 60496 60496 57
Width: 0
Flags: W
LayerCount: 2
Fore
SplineSet
-7 1672 m 0,0,1
 29 1672 29 1672 42 1641 c 0,2,3
 47 1630 47 1630 47 1618 c 0,4,5
 47 1595 47 1595 32 1572 c 0,6,7
 -6 1515 -6 1515 -279 1248 c 0,8,9
 -414 1115 -414 1115 -430 1106 c 0,10,11
 -440 1099 -440 1099 -451 1099 c 0,12,13
 -473 1106 -473 1106 -477 1126 c 1,14,15
 -477 1160 -477 1160 -205 1483 c 1,16,-1
 -80 1628 l 2,17,18
 -40 1672 -40 1672 -7 1672 c 0,0,1
EndSplineSet
EndChar

StartChar: uniE01D
Encoding: 57373 57373 58
Width: 1933
Flags: W
LayerCount: 2
Fore
SplineSet
1462 2 m 1,0,-1
 830 10 l 2,1,2
 712 10 712 10 575 6 c 0,3,4
 310 -3 310 -3 308 -7 c 0,5,6
 307 -7 307 -7 305 -47 c 0,7,8
 287 -319 287 -319 248 -523 c 0,9,10
 200 -768 200 -768 71 -914 c 1,11,12
 -1 -988 -1 -988 -48 -996 c 0,13,14
 -63 -996 -63 -996 -63 -982 c 0,15,16
 -63 -960 -63 -960 -37 -929 c 0,17,18
 11 -870 11 -870 37 -808 c 0,19,20
 65 -739 65 -739 83 -639 c 0,21,22
 127 -406 127 -406 139 -145 c 0,23,24
 150 82 150 82 151 502 c 0,25,26
 152 1055 152 1055 185 1268 c 0,27,28
 201 1372 201 1372 230 1460 c 0,29,30
 279 1604 279 1604 384 1711 c 0,31,32
 438 1767 438 1767 476 1779 c 0,33,34
 482 1782 482 1782 490 1782 c 0,35,36
 504 1782 504 1782 504 1768 c 0,37,38
 504 1740 504 1740 480 1714 c 0,39,40
 439 1671 439 1671 419 1632 c 0,41,42
 366 1527 366 1527 340 1304 c 0,43,44
 319 1125 319 1125 319 803 c 0,45,46
 319 771 319 771 319 735 c 2,47,-1
 319 591 l 1,48,49
 354 644 354 644 450 723 c 0,50,51
 635 876 635 876 781 887 c 0,52,53
 792 888 792 888 802 888 c 0,54,55
 922 888 922 888 1004 772 c 0,56,57
 1058 695 1058 695 1073 601 c 0,58,59
 1075 601 1075 601 1094 625 c 0,60,61
 1152 699 1152 699 1272 784 c 0,62,63
 1417 889 1417 889 1533 889 c 0,64,65
 1594 889 1594 889 1661 846 c 0,66,67
 1793 761 1793 761 1793 579 c 0,68,69
 1793 376 1793 376 1598 162 c 2,70,-1
 1588 151 l 1,71,-1
 1620 151 l 2,72,73
 1629 151 1629 151 1639 151 c 0,74,75
 1800 151 1800 151 1870 203 c 0,76,77
 1902 226 1902 226 1907 228 c 0,78,79
 1917 232 1917 232 1928 232 c 0,80,81
 1945 232 1945 232 1945 216 c 0,82,83
 1945 188 1945 188 1896 136 c 0,84,85
 1811 44 1811 44 1691 17 c 0,86,87
 1624 2 1624 2 1474 2 c 2,88,-1
 1462 2 l 1,0,-1
910 390 m 0,89,90
 910 541 910 541 821 641 c 0,91,92
 765 704 765 704 699 717 c 0,93,94
 689 720 689 720 667 720 c 2,95,-1
 657 720 l 1,96,-1
 643 720 l 1,97,98
 556 714 556 714 468 643 c 0,99,100
 341 541 341 541 321 381 c 0,101,102
 320 369 320 369 319 358 c 0,103,104
 317 342 317 342 317 296 c 0,105,106
 315 186 315 186 313 136 c 1,107,108
 420 147 420 147 695 156 c 0,109,110
 824 159 824 159 845 176 c 0,111,112
 849 179 849 179 853 185 c 0,113,114
 909 273 909 273 910 390 c 0,89,90
978 160 m 1,115,-1
 1390 153 l 2,116,117
 1545 153 1545 153 1601 299 c 0,118,119
 1625 362 1625 362 1625 436 c 0,120,121
 1625 569 1625 569 1548 651 c 0,122,123
 1483 720 1483 720 1386 720 c 0,124,125
 1310 720 1310 720 1229 658 c 0,126,127
 1156 601 1156 601 1106 505 c 0,128,129
 1090 474 1090 474 1052 372 c 0,130,131
 1010 259 1010 259 935 168 c 2,132,-1
 928 160 l 1,133,-1
 978 160 l 1,115,-1
EndSplineSet
EndChar

StartChar: uniE01F
Encoding: 57375 57375 59
Width: 1955
Flags: W
LayerCount: 2
Fore
SplineSet
1815 979 m 2,0,-1
 1812 509 l 1,1,-1
 1799 -160 l 2,2,3
 1793 -367 1793 -367 1775 -477 c 0,4,5
 1734 -730 1734 -730 1617 -877 c 0,6,7
 1540 -974 1540 -974 1485 -993 c 0,8,9
 1476 -996 1476 -996 1469 -996 c 0,10,11
 1455 -996 1455 -996 1455 -982 c 0,12,13
 1455 -958 1455 -958 1480 -930 c 0,14,15
 1524 -880 1524 -880 1546 -833 c 0,16,17
 1593 -730 1593 -730 1615 -540 c 0,18,19
 1633 -392 1633 -392 1634 -124 c 0,20,21
 1636 77 1636 77 1640 206 c 2,22,-1
 1641 227 l 1,23,-1
 1619 205 l 1,24,25
 1388 -16 1388 -16 1162 -16 c 0,26,27
 1018 -16 1018 -16 936 138 c 0,28,29
 914 180 914 180 900 228 c 1,30,-1
 877 205 l 2,31,32
 652 -16 652 -16 412 -16 c 0,33,34
 298 -16 298 -16 221 81 c 0,35,36
 148 174 148 174 148 304 c 0,37,38
 148 467 148 467 262 632 c 0,39,40
 293 676 293 676 322 705 c 1,41,42
 320 705 320 705 300 706 c 0,43,44
 142 718 142 718 115 739 c 0,45,46
 96 753 96 753 86 791 c 0,47,48
 82 804 82 804 82 815 c 0,49,50
 82 868 82 868 142 932 c 0,51,52
 193 986 193 986 229 986 c 0,53,54
 246 986 246 986 246 969 c 0,55,56
 246 962 246 962 234 936 c 0,57,58
 232 931 232 931 232 929 c 0,59,60
 232 911 232 911 249 888 c 0,61,62
 254 882 254 882 257 880 c 0,63,64
 324 846 324 846 947 846 c 2,65,-1
 960 846 l 2,66,67
 1311 846 1311 846 1468 852 c 0,68,69
 1643 859 1643 859 1647 863 c 2,70,-1
 1649 893 l 1,71,72
 1656 1128 1656 1128 1676 1252 c 0,73,74
 1719 1514 1719 1514 1835 1660 c 0,75,76
 1906 1749 1906 1749 1960 1775 c 0,77,78
 1974 1782 1974 1782 1984 1782 c 0,79,80
 1998 1782 1998 1782 1998 1767 c 0,81,82
 1998 1747 1998 1747 1945 1676 c 0,83,84
 1918 1642 1918 1642 1912 1629 c 0,85,86
 1851 1507 1851 1507 1825 1213 c 0,87,88
 1815 1093 1815 1093 1815 979 c 2,0,-1
1646 602 m 1,89,-1
 1646 727 l 1,90,-1
 1643 727 l 1,91,92
 1594 719 1594 719 1537 712 c 0,93,94
 1444 704 1444 704 1280 700 c 0,95,96
 1127 696 1127 696 1114 689 c 0,97,98
 1109 687 1109 687 1104 678 c 0,99,100
 1053 587 1053 587 1053 482 c 0,101,102
 1053 287 1053 287 1182 196 c 0,103,104
 1244 153 1244 153 1300 152 c 0,105,106
 1388 152 1388 152 1479 193 c 0,107,108
 1545 223 1545 223 1582 268 c 0,109,110
 1640 338 1640 338 1645 462 c 1,111,-1
 1646 602 l 1,89,-1
316 451 m 0,112,113
 316 311 316 311 396 224 c 0,114,115
 462 152 462 152 554 152 c 0,116,117
 678 152 678 152 776 215 c 0,118,119
 845 259 845 259 870 322 c 0,120,121
 877 340 877 340 892 420 c 0,122,123
 915 548 915 548 994 660 c 0,124,125
 1006 678 1006 678 1021 696 c 1,126,-1
 783 697 l 1,127,-1
 536 698 l 2,128,129
 411 698 411 698 388 671 c 0,130,131
 386 669 386 669 380 660 c 0,132,133
 316 566 316 566 316 451 c 0,112,113
EndSplineSet
EndChar

StartChar: uniEC72
Encoding: 60530 60530 60
Width: 0
Flags: W
LayerCount: 2
Fore
SplineSet
-840 1103 m 0,0,1
 -862 1103 -862 1103 -862 1128 c 0,2,3
 -862 1154 -862 1154 -716 1375 c 0,4,5
 -609 1536 -609 1536 -556 1597 c 0,6,7
 -444 1726 -444 1726 -319 1749 c 0,8,9
 -299 1753 -299 1753 -282 1753 c 0,10,11
 -192 1753 -192 1753 -146 1684 c 0,12,13
 -119 1644 -119 1644 -119 1592 c 0,14,15
 -119 1478 -119 1478 -220 1384 c 0,16,17
 -278 1330 -278 1330 -319 1322 c 0,18,19
 -323 1321 -323 1321 -326 1321 c 0,20,21
 -341 1321 -341 1321 -341 1333 c 0,22,23
 -341 1346 -341 1346 -315 1377 c 0,24,25
 -273 1430 -273 1430 -273 1486 c 0,26,27
 -273 1553 -273 1553 -313 1583 c 0,28,29
 -334 1599 -334 1599 -364 1599 c 0,30,31
 -443 1599 -443 1599 -567 1444 c 1,32,-1
 -777 1162 l 2,33,34
 -818 1108 -818 1108 -832 1104 c 0,35,36
 -835 1103 -835 1103 -840 1103 c 0,0,1
EndSplineSet
EndChar

StartChar: uniE01B
Encoding: 57371 57371 61
Width: 1314
Flags: W
LayerCount: 2
Fore
SplineSet
638 846 m 0,0,1
 952 846 952 846 1005 857 c 0,2,3
 1008 857 1008 857 1011 953 c 0,4,5
 1017 1179 1017 1179 1058 1365 c 0,6,7
 1097 1539 1097 1539 1194 1660 c 0,8,9
 1265 1749 1265 1749 1319 1775 c 0,10,11
 1333 1782 1333 1782 1343 1782 c 0,12,13
 1357 1782 1357 1782 1357 1767 c 0,14,15
 1357 1747 1357 1747 1304 1676 c 0,16,17
 1277 1642 1277 1642 1271 1629 c 0,18,19
 1210 1507 1210 1507 1184 1213 c 0,20,21
 1174 1093 1174 1093 1174 979 c 2,22,-1
 1172 760 l 2,23,24
 1172 620 1172 620 1170 509 c 2,25,-1
 1158 -160 l 2,26,27
 1152 -368 1152 -368 1134 -478 c 0,28,29
 1093 -730 1093 -730 976 -877 c 0,30,31
 885 -991 885 -991 828 -996 c 0,32,33
 814 -996 814 -996 814 -982 c 0,34,35
 814 -958 814 -958 839 -930 c 0,36,37
 883 -880 883 -880 905 -833 c 0,38,39
 952 -730 952 -730 974 -540 c 0,40,41
 997 -348 997 -348 999 207 c 0,42,43
 999 221 999 221 999 233 c 2,44,-1
 999 242 l 1,45,-1
 981 224 l 2,46,47
 753 1 753 1 498 -15 c 0,48,49
 480 -16 480 -16 462 -16 c 0,50,51
 335 -16 335 -16 248 81 c 128,-1,52
 161 178 161 178 161 315 c 0,53,54
 161 508 161 508 332 699 c 1,55,-1
 323 700 l 1,56,57
 129 700 129 700 94 769 c 0,58,59
 85 788 85 788 85 815 c 0,60,61
 85 875 85 875 152 940 c 0,62,63
 201 986 201 986 231 986 c 0,64,65
 249 986 249 986 249 969 c 0,66,67
 249 958 249 958 233 928 c 1,68,69
 245 886 245 886 277 871 c 0,70,71
 325 849 325 849 521 846 c 0,72,73
 568 846 568 846 638 846 c 0,0,1
1000 725 m 1,74,75
 992 709 992 709 701 698 c 0,76,77
 639 696 639 696 604 696 c 0,78,79
 420 696 420 696 394 662 c 0,80,81
 333 584 333 584 329 468 c 0,82,83
 328 462 328 462 328 457 c 0,84,85
 328 328 328 328 409 240 c 0,86,87
 417 230 417 230 426 222 c 0,88,89
 502 152 502 152 599 152 c 0,90,91
 708 152 708 152 808 196 c 0,92,93
 932 252 932 252 971 324 c 0,94,95
 1002 381 1002 381 1004 507 c 0,96,97
 1004 524 1004 524 1004 601 c 0,98,99
 1004 651 1004 651 1004 679 c 0,100,101
 1004 725 1004 725 1003 725 c 2,102,-1
 1000 725 l 1,74,75
EndSplineSet
EndChar

StartChar: uniEC21
Encoding: 60449 60449 62
Width: 0
Flags: W
LayerCount: 2
Fore
SplineSet
-1046 1023 m 0,0,1
 -1044 1064 -1044 1064 -978 1117 c 0,2,3
 -936 1151 -936 1151 -918 1151 c 0,4,5
 -915 1151 -915 1151 -875 1137 c 0,6,7
 -833 1122 -833 1122 -782 1118 c 0,8,9
 -768 1117 -768 1117 -599 1117 c 0,10,11
 -329 1117 -329 1117 -295 1121 c 0,12,13
 -259 1125 -259 1125 -213 1143 c 0,14,15
 -195 1151 -195 1151 -187 1151 c 0,16,17
 -173 1151 -173 1151 -173 1139 c 0,18,19
 -173 1094 -173 1094 -235 1047 c 0,20,21
 -315 986 -315 986 -436 976 c 0,22,23
 -450 974 -450 974 -668 974 c 0,24,25
 -906 974 -906 974 -951 982 c 0,26,27
 -978 987 -978 987 -1015 1001 c 0,28,29
 -1044 1016 -1044 1016 -1046 1023 c 0,0,1
EndSplineSet
EndChar

StartChar: uni605C
Encoding: 24668 24668 63
Width: 1062
Flags: W
LayerCount: 2
Fore
SplineSet
402 568 m 0,0,1
 459 568 459 568 595 540 c 0,2,3
 689 521 689 521 738 521 c 0,4,5
 800 521 800 521 856 560 c 0,6,7
 887 582 887 582 901 582 c 0,8,9
 914 582 914 582 914 569 c 0,10,11
 914 542 914 542 867 491 c 0,12,13
 780 398 780 398 664 382 c 0,14,15
 644 379 644 379 623 379 c 0,16,17
 567 379 567 379 429 407 c 0,18,19
 336 426 336 426 288 426 c 0,20,21
 214 426 214 426 175 392 c 0,22,23
 151 371 151 371 139 368 c 0,24,25
 132 366 132 366 124 366 c 0,26,27
 112 366 112 366 111 379 c 0,28,29
 111 406 111 406 158 456 c 0,30,31
 244 549 244 549 361 565 c 0,32,33
 382 568 382 568 402 568 c 0,0,1
EndSplineSet
EndChar

StartChar: uniE032
Encoding: 57394 57394 64
Width: 1054
Flags: W
LayerCount: 2
Fore
SplineSet
86 365 m 0,0,1
 86 540 86 540 220 694 c 0,2,3
 327 817 327 817 464 866 c 0,4,5
 525 888 525 888 579 888 c 0,6,7
 733 888 733 888 807 822 c 0,8,9
 848 784 848 784 848 734 c 0,10,11
 848 693 848 693 818 652 c 0,12,13
 781 601 781 601 715 601 c 0,14,15
 676 601 676 601 629 640 c 0,16,17
 577 684 577 684 553 697 c 0,18,19
 507 721 507 721 449 721 c 0,20,21
 389 721 389 721 337 699 c 0,22,23
 308 687 308 687 298 671 c 0,24,25
 254 599 254 599 254 507 c 0,26,27
 254 339 254 339 379 231 c 0,28,29
 404 209 404 209 430 194 c 0,30,31
 502 152 502 152 590 152 c 0,32,33
 771 152 771 152 881 239 c 2,34,-1
 946 293 l 2,35,36
 968 308 968 308 988 308 c 1,37,38
 999 304 999 304 1002 293 c 0,39,40
 1002 264 1002 264 950 207 c 2,41,-1
 936 193 l 1,42,43
 720 -16 720 -16 453 -16 c 0,44,45
 273 -16 273 -16 163 131 c 0,46,47
 137 167 137 167 121 203 c 0,48,49
 86 282 86 282 86 365 c 0,0,1
EndSplineSet
EndChar

StartChar: uniEC73
Encoding: 60531 60531 65
Width: 0
Flags: W
LayerCount: 2
Fore
SplineSet
-1225 1104 m 0,0,1
 -1245 1104 -1245 1104 -1247 1128 c 0,2,3
 -1247 1156 -1247 1156 -1060 1373 c 0,4,5
 -900 1558 -900 1558 -819 1631 c 0,6,7
 -720 1721 -720 1721 -616 1746 c 0,8,9
 -584 1754 -584 1754 -554 1754 c 0,10,11
 -463 1754 -463 1754 -418 1688 c 0,12,13
 -392 1650 -392 1650 -392 1602 c 0,14,15
 -392 1485 -392 1485 -498 1392 c 0,16,17
 -561 1337 -561 1337 -612 1328 c 0,18,19
 -617 1327 -617 1327 -621 1327 c 0,20,21
 -639 1327 -639 1327 -639 1340 c 0,22,23
 -639 1349 -639 1349 -613 1379 c 0,24,25
 -559 1440 -559 1440 -558 1512 c 1,26,27
 -564 1606 -564 1606 -638 1610 c 1,28,29
 -723 1610 -723 1610 -873 1456 c 1,30,-1
 -1007 1313 l 2,31,32
 -1150 1158 -1150 1158 -1193 1123 c 0,33,34
 -1216 1104 -1216 1104 -1225 1104 c 0,0,1
EndSplineSet
EndChar

StartChar: uniEBD9
Encoding: 60377 60377 66
Width: 870
Flags: W
LayerCount: 2
Fore
SplineSet
67 44 m 1,0,-1
 -313 36 l 2,1,2
 -335 36 -335 36 -336 52 c 0,3,4
 -336 85 -336 85 -284 137 c 0,5,6
 -242 178 -242 178 -211 184 c 0,7,8
 -188 189 -188 189 127 193 c 0,9,10
 150 193 150 193 163 193 c 0,11,12
 502 193 502 193 628 145 c 0,13,14
 670 129 670 129 712 100 c 0,15,16
 823 21 823 21 859 -108 c 0,17,18
 873 -156 873 -156 873 -204 c 0,19,20
 873 -334 873 -334 778 -465 c 0,21,22
 678 -604 678 -604 532 -659 c 0,23,24
 460 -685 460 -685 386 -685 c 0,25,26
 272 -685 272 -685 176 -619 c 0,27,28
 74 -549 74 -549 59 -439 c 0,29,30
 58 -429 58 -429 58 -416 c 0,31,32
 58 -319 58 -319 147 -234 c 0,33,34
 198 -184 198 -184 232 -180 c 0,35,36
 249 -180 249 -180 249 -196 c 0,37,38
 249 -216 249 -216 228 -244 c 0,39,40
 207 -271 207 -271 207 -298 c 0,41,42
 207 -380 207 -380 283 -450 c 0,43,44
 378 -534 378 -534 504 -536 c 0,45,46
 585 -536 585 -536 645 -502 c 0,47,48
 658 -494 658 -494 668 -486 c 0,49,50
 711 -450 711 -450 721 -347 c 0,51,52
 722 -333 722 -333 722 -322 c 0,53,54
 722 -149 722 -149 576 -45 c 0,55,56
 537 -18 537 -18 497 -2 c 0,57,58
 382 44 382 44 67 44 c 1,0,-1
EndSplineSet
EndChar

StartChar: uniE02E
Encoding: 57390 57390 67
Width: 624
Flags: W
LayerCount: 2
Fore
SplineSet
92 669 m 0,0,1
 92 711 92 711 163 775 c 0,2,3
 248 852 248 852 335 868 c 0,4,5
 351 871 351 871 366 871 c 0,6,7
 453 871 453 871 468 746 c 0,8,9
 471 729 471 729 471 672 c 0,10,11
 471 344 471 344 462 277 c 0,12,13
 443 143 443 143 341 43 c 0,14,15
 285 -12 285 -12 246 -16 c 0,16,17
 232 -16 232 -16 232 -3 c 0,18,19
 232 -2 232 -2 232 0 c 0,20,21
 232 15 232 15 252 43 c 0,22,23
 290 96 290 96 298 174 c 0,24,25
 303 244 303 244 303 537 c 0,26,27
 303 703 303 703 233 703 c 0,28,29
 188 703 188 703 153 676 c 0,30,31
 127 655 127 655 106 654 c 0,32,33
 92 654 92 654 92 669 c 0,0,1
EndSplineSet
EndChar

StartChar: uniE002
Encoding: 57346 57346 68
Width: 1251
Flags: W
LayerCount: 2
Fore
SplineSet
86 343 m 0,0,1
 86 515 86 515 214 676 c 0,2,3
 315 804 315 804 442 860 c 0,4,5
 506 888 506 888 560 888 c 0,6,7
 729 888 729 888 729 773 c 0,8,9
 729 717 729 717 682 674 c 0,10,11
 644 639 644 639 595 639 c 0,12,13
 558 639 558 639 515 676 c 0,14,15
 475 711 475 711 453 718 c 0,16,17
 441 721 441 721 429 721 c 0,18,19
 365 721 365 721 320 690 c 0,20,21
 291 670 291 670 268 585 c 0,22,23
 254 532 254 532 254 487 c 0,24,25
 254 293 254 293 392 200 c 0,26,27
 461 154 461 154 527 152 c 0,28,29
 629 152 629 152 741 196 c 0,30,31
 838 235 838 235 885 293 c 0,32,33
 935 355 935 355 938 452 c 2,34,-1
 940 572 l 1,35,36
 949 687 949 687 1026 782 c 0,37,38
 1106 881 1106 881 1157 888 c 0,39,40
 1160 889 1160 889 1163 889 c 0,41,42
 1176 889 1176 889 1176 876 c 0,43,44
 1176 875 1176 875 1176 873 c 0,45,46
 1176 853 1176 853 1148 817 c 128,-1,47
 1120 781 1120 781 1114 755 c 0,48,49
 1103 712 1103 712 1097 70 c 0,50,51
 1093 -260 1093 -260 1080 -385 c 0,52,53
 1050 -690 1050 -690 929 -857 c 0,54,55
 886 -915 886 -915 830 -962 c 0,56,57
 789 -996 789 -996 763 -996 c 0,58,59
 749 -996 749 -996 749 -982 c 0,60,61
 749 -962 749 -962 803 -891 c 0,62,63
 830 -856 830 -856 836 -843 c 0,64,65
 894 -725 894 -725 911 -523 c 0,66,67
 920 -415 920 -415 930 27 c 0,68,69
 932 146 932 146 935 243 c 1,70,-1
 916 225 l 1,71,72
 798 107 798 107 648 40 c 0,73,74
 521 -16 521 -16 399 -16 c 0,75,76
 278 -16 278 -16 190 74 c 0,77,78
 122 144 122 144 96 255 c 0,79,80
 86 297 86 297 86 343 c 0,0,1
EndSplineSet
EndChar

StartChar: uniE013
Encoding: 57363 57363 69
Width: 1994
Flags: W
LayerCount: 2
Fore
SplineSet
80 816 m 0,0,1
 80 870 80 870 142 934 c 0,2,3
 192 986 192 986 226 986 c 0,4,5
 243 986 243 986 243 969 c 0,6,7
 243 961 243 961 231 934 c 0,8,9
 230 931 230 931 230 929 c 0,10,11
 230 912 230 912 245 890 c 0,12,13
 251 883 251 883 256 880 c 0,14,15
 336 846 336 846 1055 846 c 0,16,17
 1569 846 1569 846 1739 864 c 0,18,19
 1841 875 1841 875 1863 893 c 0,20,21
 1899 923 1899 923 1923 923 c 0,22,23
 1941 923 1941 923 1941 907 c 0,24,25
 1941 877 1941 877 1895 829 c 0,26,27
 1875 808 1875 808 1849 788 c 0,28,29
 1810 760 1810 760 1810 550 c 0,30,31
 1810 417 1810 417 1838 233 c 0,32,33
 1847 167 1847 167 1847 138 c 0,34,35
 1847 94 1847 94 1775 31 c 0,36,37
 1720 -16 1720 -16 1694 -16 c 0,38,39
 1680 -16 1680 -16 1674 20 c 0,40,41
 1671 40 1671 40 1654 214 c 2,42,-1
 1651 243 l 1,43,44
 1582 161 1582 161 1471 88 c 0,45,46
 1310 -16 1310 -16 1163 -16 c 0,47,48
 1025 -16 1025 -16 942 123 c 0,49,50
 913 173 913 173 898 228 c 1,51,-1
 875 205 l 2,52,53
 689 19 689 19 475 -11 c 0,54,55
 441 -16 441 -16 411 -16 c 0,56,57
 295 -16 295 -16 218 83 c 0,58,59
 145 176 145 176 145 304 c 0,60,61
 145 484 145 484 279 655 c 0,62,63
 292 672 292 672 307 689 c 2,64,-1
 320 705 l 1,65,-1
 169 719 l 2,66,67
 114 727 114 727 95 763 c 0,68,69
 88 775 88 775 83 792 c 0,70,71
 80 804 80 804 80 816 c 0,0,1
1691 707 m 0,72,73
 1697 721 1697 721 1697 724 c 1,74,75
 1663 711 1663 711 1333 702 c 0,76,77
 1137 697 1137 697 1113 690 c 0,78,79
 1093 684 1093 684 1070 606 c 0,80,81
 1051 540 1051 540 1051 482 c 0,82,83
 1051 323 1051 323 1152 218 c 0,84,85
 1216 152 1216 152 1298 152 c 0,86,87
 1300 152 1300 152 1303 152 c 0,88,89
 1458 152 1458 152 1554 245 c 0,90,91
 1638 327 1638 327 1643 455 c 0,92,93
 1649 621 1649 621 1691 707 c 0,72,73
314 457 m 0,94,95
 314 305 314 305 400 217 c 0,96,97
 464 152 464 152 550 152 c 0,98,99
 663 152 663 152 761 207 c 0,100,101
 794 225 794 225 821 249 c 0,102,103
 865 289 865 289 884 386 c 0,104,105
 901 474 901 474 905 488 c 0,106,107
 938 592 938 592 1018 696 c 1,108,-1
 796 697 l 1,109,-1
 535 698 l 1,110,-1
 534 698 l 2,111,112
 433 698 433 698 408 686 c 0,113,114
 390 678 390 678 375 656 c 0,115,116
 320 572 320 572 314 474 c 0,117,118
 314 466 314 466 314 457 c 0,94,95
EndSplineSet
EndChar

StartChar: uniE00B
Encoding: 57355 57355 70
Width: 1316
Flags: W
LayerCount: 2
Fore
SplineSet
330 699 m 1,0,-1
 293 701 l 1,1,-1
 292 701 l 1,2,3
 172 711 172 711 134 729 c 0,4,5
 83 753 83 753 83 808 c 0,6,7
 83 811 83 811 83 816 c 0,8,9
 83 879 83 879 154 943 c 0,10,11
 202 986 202 986 230 986 c 0,12,13
 246 986 246 986 246 970 c 0,14,15
 246 961 246 961 233 933 c 0,16,17
 231 929 231 929 231 928 c 0,18,19
 231 912 231 912 248 890 c 0,20,21
 252 884 252 884 257 880 c 0,22,23
 302 846 302 846 661 846 c 0,24,25
 955 846 955 846 1004 857 c 1,26,-1
 1006 857 l 1,27,-1
 1007 886 l 2,28,29
 1015 1194 1015 1194 1054 1358 c 0,30,31
 1104 1563 1104 1563 1221 1694 c 0,32,33
 1299 1782 1299 1782 1342 1782 c 0,34,35
 1356 1782 1356 1782 1356 1768 c 0,36,37
 1356 1743 1356 1743 1306 1683 c 0,38,39
 1287 1661 1287 1661 1282 1652 c 0,40,41
 1191 1503 1191 1503 1175 1026 c 0,42,43
 1170 871 1170 871 1170 514 c 0,44,45
 1170 311 1170 311 1193 192 c 0,46,47
 1199 159 1199 159 1199 136 c 0,48,49
 1199 107 1199 107 1146 50 c 0,50,51
 1086 -16 1086 -16 1047 -16 c 0,52,53
 1034 -16 1034 -16 1031 2 c 0,54,55
 1030 5 1030 5 1029 16 c 0,56,57
 1009 138 1009 138 1003 247 c 0,58,59
 1000 247 1000 247 980 225 c 0,60,61
 931 172 931 172 843 114 c 0,62,63
 650 -16 650 -16 460 -16 c 0,64,65
 332 -16 332 -16 245 81 c 0,66,67
 159 178 159 178 159 318 c 0,68,69
 159 486 159 486 298 660 c 0,70,71
 313 679 313 679 330 699 c 1,0,-1
1003 725 m 2,72,-1
 936 712 l 1,73,74
 835 698 835 698 612 696 c 0,75,76
 431 695 431 695 398 667 c 0,77,78
 391 662 391 662 381 646 c 0,79,80
 327 563 327 563 327 458 c 0,81,82
 327 327 327 327 409 237 c 0,83,84
 416 229 416 229 424 222 c 0,85,86
 500 152 500 152 597 152 c 0,87,88
 688 152 688 152 791 190 c 0,89,90
 971 258 971 258 996 399 c 0,91,92
 1001 423 1001 423 1002 516 c 2,93,-1
 1004 690 l 2,94,95
 1004 725 1004 725 1003 725 c 2,72,-1
EndSplineSet
EndChar

StartChar: uniE00A
Encoding: 57354 57354 71
Width: 1249
Flags: W
LayerCount: 2
Fore
SplineSet
962 16 m 0,0,1
 943 136 943 136 937 247 c 0,2,3
 934 247 934 247 913 225 c 0,4,5
 864 173 864 173 776 114 c 0,6,7
 582 -16 582 -16 395 -16 c 0,8,9
 273 -16 273 -16 185 76 c 0,10,11
 120 144 120 144 93 248 c 0,12,13
 82 293 82 293 82 343 c 0,14,15
 82 517 82 517 209 677 c 0,16,17
 312 807 312 807 445 862 c 0,18,19
 510 889 510 889 568 889 c 0,20,21
 694 889 694 889 720 808 c 0,22,23
 726 792 726 792 726 774 c 0,24,25
 726 731 726 731 696 690 c 0,26,27
 659 640 659 640 593 640 c 0,28,29
 550 640 550 640 516 674 c 0,30,31
 485 704 485 704 470 711 c 0,32,33
 448 722 448 722 419 721 c 0,34,35
 250 717 250 717 250 487 c 0,36,37
 250 341 250 341 338 242 c 0,38,39
 419 152 419 152 533 152 c 0,40,41
 623 152 623 152 728 192 c 0,42,43
 829 230 829 230 881 291 c 0,44,45
 924 341 924 341 932 400 c 0,46,47
 937 434 937 434 936 608 c 0,48,49
 935 773 935 773 942 937 c 0,50,51
 954 1248 954 1248 1004 1418 c 0,52,53
 1067 1632 1067 1632 1209 1748 c 0,54,55
 1251 1782 1251 1782 1275 1782 c 0,56,57
 1289 1782 1289 1782 1289 1768 c 0,58,59
 1289 1744 1289 1744 1236 1680 c 0,60,61
 1220 1660 1220 1660 1215 1652 c 0,62,63
 1123 1502 1123 1502 1108 1003 c 0,64,65
 1103 855 1103 855 1103 529 c 0,66,67
 1103 319 1103 319 1126 195 c 0,68,69
 1133 161 1133 161 1133 137 c 0,70,71
 1133 94 1133 94 1061 32 c 0,72,73
 1006 -16 1006 -16 980 -16 c 0,74,75
 968 -16 968 -16 965 -2 c 0,76,77
 965 0 965 0 962 16 c 0,0,1
EndSplineSet
EndChar

StartChar: uniE009
Encoding: 57353 57353 72
Width: 1310
Flags: W
LayerCount: 2
Fore
SplineSet
891 1 m 2,0,-1
 492 10 l 1,1,2
 279 10 279 10 149 -11 c 0,3,4
 119 -16 119 -16 97 -16 c 0,5,6
 84 -16 84 -16 84 -1 c 0,7,8
 84 24 84 24 105 48 c 0,9,10
 135 83 135 83 145 130 c 0,11,12
 148 150 148 150 150 174 c 0,13,14
 156 255 156 255 156 612 c 2,15,-1
 156 622 l 2,16,17
 156 1075 156 1075 196 1295 c 0,18,19
 248 1592 248 1592 421 1741 c 2,20,-1
 429 1748 l 2,21,22
 471 1782 471 1782 494 1782 c 0,23,24
 509 1782 509 1782 509 1768 c 0,25,26
 509 1746 509 1746 477 1705 c 0,27,28
 422 1637 422 1637 401 1578 c 0,29,30
 398 1572 398 1572 396 1565 c 0,31,32
 342 1399 342 1399 329 1050 c 0,33,34
 323 876 323 876 323 596 c 2,35,-1
 323 575 l 1,36,-1
 378 634 l 1,37,-1
 418 672 l 2,38,39
 557 800 557 800 704 856 c 0,40,41
 788 888 788 888 863 888 c 0,42,43
 990 888 990 888 1077 792 c 0,44,45
 1163 696 1163 696 1163 557 c 0,46,47
 1163 353 1163 353 969 150 c 1,48,-1
 1018 151 l 2,49,50
 1181 151 1181 151 1246 202 c 0,51,52
 1276 226 1276 226 1280 227 c 0,53,54
 1290 233 1290 233 1304 233 c 0,55,56
 1320 233 1320 233 1320 217 c 0,57,58
 1320 184 1320 184 1268 131 c 0,59,60
 1174 34 1174 34 1032 10 c 0,61,62
 1019 8 1019 8 1006 7 c 0,63,64
 962 2 962 2 891 1 c 2,0,-1
272 141 m 1,65,66
 434 158 434 158 610 160 c 1,67,-1
 780 156 l 2,68,69
 882 156 882 156 929 210 c 0,70,71
 987 283 987 283 994 392 c 0,72,73
 995 403 995 403 995 413 c 0,74,75
 995 555 995 555 904 646 c 0,76,77
 828 721 828 721 726 721 c 0,78,79
 649 721 649 721 553 674 c 0,80,81
 384 592 384 592 336 427 c 0,82,83
 331 408 331 408 327 389 c 2,84,-1
 309 250 l 2,85,86
 299 199 299 199 277 156 c 0,87,88
 270 142 270 142 270 141 c 2,89,-1
 272 141 l 1,65,66
EndSplineSet
EndChar

StartChar: uniE00E
Encoding: 57358 57358 73
Width: 1898
Flags: W
LayerCount: 2
Fore
SplineSet
1434 776 m 0,0,1
 1434 732 1434 732 1404 690 c 0,2,3
 1367 640 1367 640 1302 640 c 0,4,5
 1256 640 1256 640 1225 673 c 0,6,7
 1197 702 1197 702 1186 708 c 0,8,9
 1166 720 1166 720 1135 720 c 0,10,11
 1063 720 1063 720 1040 674 c 0,12,13
 1037 669 1037 669 1037 668 c 0,14,15
 991 585 991 585 991 485 c 0,16,17
 991 325 991 325 1085 226 c 0,18,19
 1146 161 1146 161 1219 153 c 0,20,21
 1229 152 1229 152 1243 152 c 0,22,23
 1357 152 1357 152 1453 214 c 0,24,25
 1555 280 1555 280 1577 391 c 0,26,27
 1584 429 1584 429 1584 664 c 0,28,29
 1584 1090 1584 1090 1626 1310 c 0,30,31
 1638 1372 1638 1372 1653 1425 c 0,32,33
 1700 1587 1700 1587 1809 1704 c 0,34,35
 1879 1779 1879 1779 1923 1782 c 0,36,37
 1937 1782 1937 1782 1937 1768 c 0,38,39
 1937 1744 1937 1744 1884 1680 c 0,40,41
 1868 1660 1868 1660 1863 1652 c 0,42,43
 1771 1502 1771 1502 1756 1003 c 0,44,45
 1751 855 1751 855 1751 529 c 0,46,47
 1751 329 1751 329 1775 200 c 0,48,49
 1783 160 1783 160 1781 132 c 0,50,51
 1777 84 1777 84 1704 25 c 0,52,53
 1653 -16 1653 -16 1628 -16 c 128,-1,54
 1603 -16 1603 -16 1590 174 c 0,55,56
 1588 197 1588 197 1586 234 c 1,57,-1
 1560 208 l 2,58,59
 1336 -16 1336 -16 1099 -16 c 0,60,61
 962 -16 962 -16 880 129 c 0,62,63
 852 178 852 178 837 232 c 1,64,65
 770 149 770 149 657 79 c 0,66,67
 503 -16 503 -16 353 -16 c 0,68,69
 239 -16 239 -16 162 83 c 0,70,71
 125 131 125 131 102 198 c 0,72,73
 80 263 80 263 80 333 c 0,74,75
 80 513 80 513 206 678 c 0,76,77
 304 807 304 807 428 862 c 0,78,79
 489 888 489 888 541 888 c 0,80,81
 675 888 675 888 696 801 c 0,82,83
 699 788 699 788 699 774 c 0,84,85
 699 732 699 732 669 691 c 0,86,87
 632 640 632 640 566 640 c 0,88,89
 529 640 529 640 486 676 c 0,90,91
 446 710 446 710 423 717 c 0,92,93
 409 721 409 721 394 721 c 0,94,95
 335 720 335 720 305 681 c 0,96,97
 274 642 274 642 256 556 c 0,98,99
 248 517 248 517 248 477 c 0,100,101
 248 310 248 310 352 211 c 0,102,103
 373 191 373 191 394 179 c 0,104,105
 438 152 438 152 491 152 c 0,106,107
 597 152 597 152 689 199 c 0,108,109
 772 243 772 243 804 328 c 0,110,111
 811 346 811 346 838 452 c 0,112,113
 874 589 874 589 949 685 c 0,114,115
 988 734 988 734 1041 781 c 0,116,117
 1164 888 1164 888 1277 888 c 0,118,119
 1409 888 1409 888 1431 804 c 0,120,121
 1434 790 1434 790 1434 776 c 0,0,1
EndSplineSet
EndChar

StartChar: uniE012
Encoding: 57362 57362 74
Width: 1921
Flags: W
LayerCount: 2
Fore
SplineSet
82 335 m 0,0,1
 82 513 82 513 207 676 c 0,2,3
 305 806 305 806 430 861 c 0,4,5
 491 888 491 888 544 888 c 0,6,7
 671 888 671 888 695 808 c 0,8,9
 700 792 700 792 700 776 c 0,10,11
 700 733 700 733 671 692 c 0,12,13
 633 640 633 640 568 640 c 0,14,15
 520 640 520 640 491 673 c 0,16,17
 465 701 465 701 455 707 c 0,18,19
 433 720 433 720 399 720 c 0,20,21
 330 720 330 720 309 684 c 0,22,23
 252 595 252 595 250 478 c 0,24,25
 250 283 250 283 377 194 c 0,26,27
 437 152 437 152 488 152 c 0,28,29
 585 152 585 152 672 189 c 0,30,31
 728 214 728 214 759 250 c 0,32,33
 809 307 809 307 832 423 c 0,34,35
 860 587 860 587 986 726 c 0,36,37
 1036 781 1036 781 1096 823 c 0,38,39
 1191 888 1191 888 1280 888 c 0,40,41
 1384 888 1384 888 1421 832 c 0,42,43
 1437 808 1437 808 1437 774 c 0,44,45
 1437 736 1437 736 1408 695 c 0,46,47
 1371 640 1371 640 1304 640 c 0,48,49
 1256 640 1256 640 1225 673 c 0,50,51
 1200 701 1200 701 1190 707 c 0,52,53
 1168 721 1168 721 1132 721 c 0,54,55
 1097 721 1097 721 1062 702 c 2,56,-1
 1058 700 l 1,57,58
 992 606 992 606 992 485 c 0,59,60
 992 328 992 328 1084 228 c 0,61,62
 1138 169 1138 169 1204 155 c 0,63,64
 1216 152 1216 152 1242 152 c 0,65,66
 1356 152 1356 152 1455 214 c 0,67,68
 1520 256 1520 256 1549 312 c 0,69,70
 1579 369 1579 369 1587 483 c 0,71,72
 1595 603 1595 603 1610 654 c 0,73,74
 1643 767 1643 767 1747 852 c 0,75,76
 1791 888 1791 888 1816 888 c 0,77,78
 1830 888 1830 888 1830 874 c 0,79,80
 1830 853 1830 853 1810 829 c 0,81,82
 1774 785 1774 785 1762 716 c 0,83,84
 1753 661 1753 661 1753 581 c 0,85,86
 1753 409 1753 409 1781 223 c 0,87,88
 1790 165 1790 165 1790 138 c 0,89,90
 1790 95 1790 95 1718 32 c 0,91,92
 1662 -16 1662 -16 1637 -16 c 0,93,94
 1623 -16 1623 -16 1617 13 c 0,95,96
 1609 67 1609 67 1593 242 c 1,97,-1
 1545 193 l 2,98,99
 1518 167 1518 167 1489 144 c 0,100,101
 1292 -16 1292 -16 1098 -16 c 0,102,103
 960 -16 960 -16 877 138 c 0,104,105
 853 183 853 183 838 232 c 1,106,107
 684 59 684 59 493 4 c 0,108,109
 423 -16 423 -16 355 -16 c 0,110,111
 251 -16 251 -16 174 73 c 0,112,113
 129 125 129 125 103 202 c 0,114,115
 82 266 82 266 82 335 c 0,0,1
EndSplineSet
EndChar

StartChar: uniE016
Encoding: 57366 57366 75
Width: 1273
Flags: W
LayerCount: 2
Fore
SplineSet
86 342 m 0,0,1
 86 514 86 514 213 675 c 0,2,3
 314 804 314 804 441 860 c 0,4,5
 506 888 506 888 561 888 c 0,6,7
 729 888 729 888 729 773 c 0,8,9
 729 732 729 732 699 691 c 0,10,11
 662 640 662 640 596 640 c 0,12,13
 557 640 557 640 515 677 c 0,14,15
 475 711 475 711 455 717 c 0,16,17
 443 721 443 721 430 721 c 0,18,19
 363 721 363 721 320 690 c 0,20,21
 291 669 291 669 269 588 c 0,22,23
 254 536 254 536 254 487 c 0,24,25
 254 293 254 293 393 200 c 0,26,27
 462 154 462 154 527 152 c 0,28,29
 625 152 625 152 735 194 c 0,30,31
 831 231 831 231 880 288 c 0,32,33
 925 341 925 341 936 449 c 2,34,-1
 949 581 l 1,35,36
 971 728 971 728 1068 823 c 0,37,38
 1084 838 1084 838 1101 852 c 0,39,40
 1145 888 1145 888 1170 888 c 0,41,42
 1184 888 1184 888 1184 874 c 0,43,44
 1184 853 1184 853 1165 830 c 0,45,46
 1130 789 1130 789 1117 719 c 0,47,48
 1106 657 1106 657 1106 562 c 0,49,50
 1106 409 1106 409 1135 219 c 0,51,52
 1143 161 1143 161 1143 136 c 0,53,54
 1143 108 1143 108 1092 51 c 0,55,56
 1032 -16 1032 -16 991 -16 c 0,57,58
 978 -16 978 -16 973 5 c 2,59,-1
 946 253 l 2,60,61
 945 253 945 253 900 211 c 0,62,63
 661 -16 661 -16 398 -16 c 0,64,65
 276 -16 276 -16 188 77 c 0,66,67
 124 144 124 144 97 248 c 0,68,69
 86 293 86 293 86 342 c 0,0,1
EndSplineSet
EndChar

StartChar: uniE025
Encoding: 57381 57381 76
Width: 1181
Flags: W
LayerCount: 2
Fore
SplineSet
92 357 m 0,0,1
 92 500 92 500 197 649 c 0,2,3
 306 804 306 804 467 876 c 0,4,5
 572 923 572 923 680 923 c 0,6,7
 819 923 819 923 930 841 c 0,8,9
 1043 758 1043 758 1073 618 c 0,10,11
 1081 581 1081 581 1081 542 c 0,12,13
 1081 363 1081 363 891 77 c 0,14,15
 839 0 839 0 665 -235 c 0,16,17
 501 -454 501 -454 453 -560 c 0,18,19
 420 -633 420 -633 420 -686 c 0,20,21
 420 -747 420 -747 455 -785 c 0,22,23
 469 -801 469 -801 469 -809 c 0,24,25
 469 -836 469 -836 418 -894 c 0,26,27
 357 -961 357 -961 316 -961 c 0,28,29
 296 -961 296 -961 273 -914 c 0,30,31
 252 -870 252 -870 252 -827 c 0,32,33
 252 -709 252 -709 372 -517 c 0,34,35
 442 -405 442 -405 582 -218 c 0,36,37
 816 94 816 94 877 238 c 0,38,39
 913 324 913 324 913 402 c 0,40,41
 913 559 913 559 792 662 c 0,42,43
 703 738 703 738 586 753 c 0,44,45
 572 755 572 755 541 755 c 0,46,47
 463 755 463 755 387 727 c 0,48,49
 331 705 331 705 309 673 c 0,50,51
 260 603 260 603 260 503 c 0,52,53
 260 439 260 439 302 390 c 0,54,55
 334 352 334 352 340 339 c 0,56,57
 351 318 351 318 351 293 c 0,58,59
 351 240 351 240 309 197 c 0,60,61
 271 158 271 158 217 158 c 0,62,63
 148 158 148 158 113 240 c 0,64,65
 92 290 92 290 92 357 c 0,0,1
EndSplineSet
EndChar

StartChar: uniE022
Encoding: 57378 57378 77
Width: 1933
Flags: W
LayerCount: 2
Fore
SplineSet
1489 826 m 0,0,1
 1708 826 1708 826 1793 891 c 2,2,-1
 1831 921 l 2,3,4
 1845 929 1845 929 1861 929 c 0,5,6
 1876 929 1876 929 1876 915 c 0,7,8
 1876 877 1876 877 1805 809 c 0,9,10
 1776 782 1776 782 1744 759 c 0,11,12
 1629 676 1629 676 1460 662 c 0,13,14
 1408 658 1408 658 1336 658 c 0,15,16
 1198 658 1198 658 922 695 c 0,17,18
 799 712 799 712 760 712 c 0,19,20
 757 712 757 712 756 711 c 2,21,-1
 679 644 l 1,22,23
 473 458 473 458 389 313 c 0,24,25
 302 165 302 165 302 5 c 0,26,27
 302 -225 302 -225 457 -392 c 0,28,29
 603 -550 603 -550 831 -596 c 0,30,31
 908 -611 908 -611 989 -611 c 0,32,33
 1190 -611 1190 -611 1354 -524 c 0,34,35
 1523 -435 1523 -435 1607 -266 c 0,36,37
 1643 -195 1643 -195 1647 -149 c 0,38,39
 1648 -139 1648 -139 1648 -129 c 0,40,41
 1648 -95 1648 -95 1613 -53 c 0,42,43
 1578 -12 1578 -12 1571 13 c 0,44,45
 1568 26 1568 26 1568 39 c 0,46,47
 1568 106 1568 106 1627 148 c 0,48,49
 1663 174 1663 174 1702 174 c 0,50,51
 1768 174 1768 174 1799 102 c 0,52,53
 1815 64 1815 64 1815 17 c 0,54,55
 1815 -159 1815 -159 1617 -391 c 0,56,57
 1537 -485 1537 -485 1463 -546 c 0,58,59
 1181 -778 1181 -778 848 -778 c 0,60,61
 590 -778 590 -778 396 -639 c 0,62,63
 216 -509 216 -509 158 -306 c 0,64,65
 135 -225 135 -225 135 -139 c 0,66,67
 135 105 135 105 327 366 c 0,68,69
 448 531 448 531 648 711 c 0,70,71
 659 721 659 721 659 722 c 0,72,73
 659 727 659 727 516 733 c 0,74,75
 475 734 475 734 442 734 c 0,76,77
 223 734 223 734 139 671 c 2,78,-1
 100 640 l 2,79,80
 86 631 86 631 68 631 c 0,81,82
 55 631 55 631 55 645 c 0,83,84
 55 682 55 682 124 748 c 0,85,86
 200 821 200 821 289 858 c 0,87,88
 403 903 403 903 583 903 c 0,89,90
 730 903 730 903 1037 864 c 0,91,92
 1341 826 1341 826 1489 826 c 0,0,1
EndSplineSet
EndChar

StartChar: uniE026
Encoding: 57382 57382 78
Width: 1179
Flags: W
LayerCount: 2
Fore
SplineSet
715 1628 m 0,0,1
 715 1657 715 1657 764 1713 c 0,2,3
 825 1782 825 1782 867 1782 c 0,4,5
 888 1782 888 1782 909 1735 c 0,6,7
 929 1693 929 1693 929 1654 c 0,8,9
 929 1512 929 1512 727 1243 c 1,10,-1
 599 1079 l 1,11,12
 372 795 372 795 312 671 c 0,13,14
 269 585 269 585 269 510 c 0,15,16
 269 362 269 362 375 258 c 0,17,18
 478 158 478 158 625 152 c 1,19,-1
 641 152 l 2,20,21
 717 152 717 152 793 180 c 0,22,23
 853 202 853 202 874 235 c 0,24,25
 919 312 919 312 923 402 c 0,26,27
 923 468 923 468 882 517 c 0,28,29
 849 555 849 555 844 567 c 0,30,31
 833 588 833 588 833 615 c 0,32,33
 833 682 833 682 892 724 c 0,34,35
 928 750 928 750 967 750 c 0,36,37
 1035 750 1035 750 1069 668 c 0,38,39
 1090 618 1090 618 1090 551 c 0,40,41
 1090 359 1090 359 934 192 c 0,42,43
 908 165 908 165 878 139 c 0,44,45
 701 -16 701 -16 503 -16 c 0,46,47
 467 -16 467 -16 410 -4 c 0,48,49
 402 -3 402 -3 396 -3 c 0,50,51
 384 -3 384 -3 350 -49 c 0,52,53
 266 -163 266 -163 254 -314 c 0,54,55
 252 -336 252 -336 252 -358 c 0,56,57
 252 -529 252 -529 383 -633 c 0,58,59
 469 -702 469 -702 579 -717 c 0,60,61
 592 -718 592 -718 618 -718 c 0,62,63
 723 -718 723 -718 799 -682 c 0,64,65
 838 -663 838 -663 857 -636 c 0,66,67
 905 -568 905 -568 905 -466 c 0,68,69
 905 -403 905 -403 864 -354 c 0,70,71
 831 -314 831 -314 825 -301 c 0,72,73
 816 -281 816 -281 816 -256 c 0,74,75
 816 -169 816 -169 899 -133 c 0,76,77
 928 -121 928 -121 950 -121 c 0,78,79
 1018 -121 1018 -121 1052 -203 c 0,80,81
 1073 -254 1073 -254 1073 -321 c 0,82,83
 1073 -469 1073 -469 962 -620 c 0,84,85
 852 -772 852 -772 691 -842 c 0,86,87
 589 -887 589 -887 486 -887 c 0,88,89
 351 -887 351 -887 239 -807 c 0,90,91
 111 -714 111 -714 88 -559 c 0,92,93
 84 -533 84 -533 84 -501 c 0,94,95
 84 -262 84 -262 257 -47 c 0,96,97
 280 -18 280 -18 307 10 c 0,98,99
 320 23 320 23 320 25 c 2,100,-1
 313 29 l 1,101,102
 195 88 195 88 137 208 c 0,103,104
 124 235 124 235 116 263 c 0,105,106
 102 313 102 313 102 363 c 0,107,108
 102 519 102 519 242 733 c 0,109,110
 292 810 292 810 361 898 c 2,111,-1
 602 1204 l 2,112,113
 745 1391 745 1391 759 1488 c 0,114,115
 761 1502 761 1502 761 1514 c 0,116,117
 761 1567 761 1567 728 1606 c 0,118,119
 715 1621 715 1621 715 1628 c 0,0,1
EndSplineSet
EndChar

StartChar: uniE02A
Encoding: 57386 57386 79
Width: 1212
Flags: W
LayerCount: 2
Fore
SplineSet
231 677 m 0,0,1
 231 709 231 709 295 775 c 0,2,3
 382 864 382 864 464 884 c 0,4,5
 482 889 482 889 498 889 c 0,6,7
 578 889 578 889 633 827 c 0,8,9
 674 780 674 780 755 625 c 2,10,-1
 817 505 l 2,11,12
 950 254 950 254 966 228 c 0,13,14
 1008 159 1008 159 1044 142 c 0,15,16
 1052 138 1052 138 1060 136 c 0,17,18
 1070 133 1070 133 1082 133 c 0,19,20
 1098 133 1098 133 1134 167 c 0,21,22
 1178 209 1178 209 1208 211 c 0,23,24
 1224 211 1224 211 1224 195 c 0,25,26
 1224 163 1224 163 1161 97 c 0,27,28
 1076 8 1076 8 997 -12 c 0,29,30
 980 -16 980 -16 964 -16 c 0,31,32
 896 -16 896 -16 839 65 c 0,33,34
 814 101 814 101 739 243 c 2,35,-1
 621 466 l 1,36,-1
 612 455 l 1,37,38
 502 297 502 297 496 289 c 0,39,40
 272 -16 272 -16 133 -16 c 0,41,42
 98 -16 98 -16 68 13 c 0,43,44
 31 46 31 46 23 68 c 1,45,46
 23 110 23 110 93 172 c 0,47,48
 149 221 149 221 175 221 c 0,49,50
 183 221 183 221 210 192 c 0,51,52
 246 152 246 152 274 152 c 0,53,54
 291 152 291 152 299 160 c 0,55,56
 301 162 301 162 310 173 c 0,57,58
 379 259 379 259 504 438 c 2,59,-1
 579 545 l 1,60,-1
 556 589 l 2,61,62
 517 662 517 662 487 693 c 0,63,64
 440 739 440 739 384 739 c 0,65,66
 357 739 357 739 319 703 c 0,67,68
 282 668 282 668 260 663 c 0,69,70
 253 661 253 661 247 661 c 0,71,72
 231 661 231 661 231 677 c 0,0,1
EndSplineSet
EndChar

StartChar: uniE023
Encoding: 57379 57379 80
Width: 1869
Flags: W
LayerCount: 2
Fore
SplineSet
574 730 m 1,0,1
 510 734 510 734 442 735 c 0,2,3
 223 735 223 735 138 670 c 2,4,-1
 99 639 l 2,5,6
 85 631 85 631 68 631 c 0,7,8
 53 631 53 631 53 646 c 0,9,10
 53 684 53 684 128 754 c 0,11,12
 155 780 155 780 184 801 c 0,13,14
 311 893 311 893 522 902 c 0,15,16
 549 903 549 903 577 903 c 0,17,18
 731 903 731 903 1033 864 c 0,19,20
 1338 826 1338 826 1489 825 c 0,21,22
 1707 825 1707 825 1791 890 c 2,23,-1
 1828 920 l 2,24,25
 1842 929 1842 929 1859 929 c 0,26,27
 1874 929 1874 929 1874 914 c 0,28,29
 1874 883 1874 883 1818 824 c 0,30,31
 1798 803 1798 803 1774 783 c 0,32,33
 1655 684 1655 684 1483 664 c 0,34,35
 1422 658 1422 658 1334 658 c 0,36,37
 1200 658 1200 658 766 712 c 0,38,39
 713 719 713 719 704 719 c 1,40,41
 522 602 522 602 459 534 c 0,42,43
 382 450 382 450 380 340 c 2,44,-1
 380 334 l 2,45,46
 380 166 380 166 512 65 c 0,47,48
 641 -34 641 -34 853 -34 c 0,49,50
 953 -34 953 -34 1090 -3 c 0,51,52
 1226 29 1226 29 1319 30 c 0,53,54
 1327 30 1327 30 1334 30 c 0,55,56
 1512 30 1512 30 1613 -44 c 0,57,58
 1701 -110 1701 -110 1701 -222 c 0,59,60
 1701 -378 1701 -378 1565 -545 c 0,61,62
 1450 -687 1450 -687 1302 -763 c 0,63,64
 1203 -813 1203 -813 1122 -813 c 0,65,66
 1113 -813 1113 -813 1099 -813 c 0,67,68
 893 -813 893 -813 823 -724 c 0,69,70
 802 -698 802 -698 802 -677 c 0,71,72
 802 -634 802 -634 874 -572 c 0,73,74
 929 -525 929 -525 954 -525 c 0,75,76
 963 -525 963 -525 973 -544 c 0,77,78
 997 -589 997 -589 1038 -610 c 0,79,80
 1089 -638 1089 -638 1179 -644 c 0,81,82
 1204 -646 1204 -646 1242 -646 c 0,83,84
 1382 -646 1382 -646 1466 -550 c 0,85,86
 1533 -472 1533 -472 1533 -366 c 0,87,88
 1533 -213 1533 -213 1360 -160 c 0,89,90
 1285 -137 1285 -137 1193 -137 c 0,91,92
 1096 -137 1096 -137 962 -169 c 128,-1,93
 828 -201 828 -201 734 -203 c 0,94,95
 724 -203 724 -203 715 -203 c 0,96,97
 475 -203 475 -203 335 -81 c 0,98,99
 212 27 212 27 212 192 c 0,100,101
 212 394 212 394 437 614 c 0,102,103
 490 666 490 666 574 730 c 1,0,1
EndSplineSet
EndChar

StartChar: uniE017
Encoding: 57367 57367 81
Width: 1351
Flags: W
LayerCount: 2
Fore
SplineSet
80 815 m 256,0,1
 80 870 80 870 144 935 c 0,2,3
 195 986 195 986 226 986 c 0,4,5
 244 986 244 986 244 969 c 0,6,7
 244 957 244 957 229 929 c 1,8,9
 239 888 239 888 264 874 c 0,10,11
 307 851 307 851 491 847 c 0,12,13
 562 846 562 846 694 846 c 0,14,15
 951 846 951 846 1048 854 c 0,16,17
 1185 866 1185 866 1220 893 c 0,18,19
 1256 923 1256 923 1280 923 c 0,20,21
 1297 923 1297 923 1297 907 c 0,22,23
 1297 876 1297 876 1245 823 c 0,24,25
 1222 801 1222 801 1193 779 c 1,26,27
 1167 692 1167 692 1167 559 c 0,28,29
 1167 411 1167 411 1195 231 c 0,30,31
 1204 168 1204 168 1204 138 c 0,32,33
 1204 94 1204 94 1132 31 c 0,34,35
 1077 -16 1077 -16 1051 -16 c 0,36,37
 1042 -16 1042 -16 1039 -9 c 0,38,39
 1032 5 1032 5 1011 210 c 0,40,41
 1008 240 1008 240 1007 255 c 1,42,-1
 982 230 l 2,43,44
 763 16 763 16 519 -12 c 0,45,46
 488 -16 488 -16 458 -16 c 0,47,48
 330 -16 330 -16 243 82 c 0,49,50
 157 178 157 178 157 317 c 0,51,52
 157 495 157 495 310 678 c 2,53,-1
 329 700 l 1,54,-1
 306 701 l 2,55,56
 164 709 164 709 121 735 c 0,57,58
 80 760 80 760 80 815 c 256,0,1
1054 721 m 1,59,-1
 1053 721 l 1,60,61
 969 700 969 700 636 697 c 0,62,63
 502 696 502 696 476 692 c 0,64,65
 396 681 396 681 375 643 c 2,66,-1
 365 623 l 2,67,68
 325 545 325 545 325 457 c 0,69,70
 325 317 325 317 416 227 c 0,71,72
 493 152 493 152 595 152 c 0,73,74
 777 152 777 152 902 254 c 0,75,76
 950 293 950 293 969 331 c 0,77,78
 995 381 995 381 1002 485 c 0,79,80
 1010 601 1010 601 1027 655 c 0,81,82
 1035 681 1035 681 1047 705 c 2,83,-1
 1054 721 l 1,59,-1
EndSplineSet
EndChar

StartChar: uniE029
Encoding: 57385 57385 82
Width: 1331
Flags: W
LayerCount: 2
Fore
SplineSet
598 879 m 0,0,1
 728 879 728 879 840 801 c 1,2,-1
 840 808 l 2,3,4
 840 1075 840 1075 902 1327 c 0,5,6
 920 1405 920 1405 941 1457 c 0,7,8
 1002 1609 1002 1609 1108 1716 c 0,9,10
 1174 1782 1174 1782 1209 1782 c 0,11,12
 1223 1782 1223 1782 1223 1768 c 0,13,14
 1223 1745 1223 1745 1194 1709 c 0,15,16
 1139 1642 1139 1642 1111 1579 c 0,17,18
 1006 1346 1006 1346 1006 815 c 0,19,20
 1006 381 1006 381 1011 307 c 0,21,22
 1015 257 1015 257 1024 200 c 1,23,-1
 1146 164 l 2,24,25
 1195 152 1195 152 1238 152 c 0,26,27
 1370 152 1370 152 1453 215 c 0,28,29
 1498 249 1498 249 1499 250 c 0,30,31
 1514 259 1514 259 1528 259 c 128,-1,32
 1542 259 1542 259 1542 245 c 0,33,34
 1542 211 1542 211 1483 149 c 0,35,36
 1380 42 1380 42 1234 2 c 0,37,38
 1167 -16 1167 -16 1097 -16 c 0,39,40
 1033 -16 1033 -16 932 17 c 0,41,42
 836 48 836 48 779 48 c 0,43,44
 726 48 726 48 631 17 c 0,45,46
 530 -16 530 -16 464 -16 c 0,47,48
 335 -16 335 -16 229 66 c 0,49,50
 121 150 121 150 93 285 c 0,51,52
 84 324 84 324 84 366 c 0,53,54
 84 505 84 505 184 645 c 0,55,56
 287 789 287 789 436 848 c 0,57,58
 516 879 516 879 598 879 c 0,0,1
838 460 m 1,59,60
 786 631 786 631 633 697 c 0,61,62
 559 730 559 730 477 730 c 0,63,64
 257 730 257 730 252 518 c 0,65,66
 252 512 252 512 252 507 c 0,67,68
 252 339 252 339 387 229 c 0,69,70
 419 203 419 203 451 187 c 0,71,72
 522 152 522 152 603 152 c 0,73,74
 653 152 653 152 735 177 c 0,75,76
 795 196 795 196 838 206 c 0,77,78
 840 207 840 207 840 208 c 2,79,-1
 839 333 l 1,80,-1
 838 460 l 1,59,60
EndSplineSet
EndChar

StartChar: uniEC31
Encoding: 60465 60465 83
Width: 0
Flags: W
LayerCount: 2
Fore
SplineSet
-167 1171 m 1,0,-1
 -163 1170 l 2,1,2
 -156 1170 -156 1170 -156 1158 c 0,3,4
 -156 1129 -156 1129 -206 1076 c 0,5,6
 -296 982 -296 982 -420 962 c 0,7,8
 -448 957 -448 957 -476 957 c 0,9,10
 -546 957 -546 957 -692 987 c 0,11,12
 -809 1012 -809 1012 -873 1012 c 0,13,14
 -963 1012 -963 1012 -997 981 c 0,15,16
 -1041 940 -1041 940 -1068 940 c 0,17,18
 -1081 940 -1081 940 -1081 953 c 0,19,20
 -1080 985 -1080 985 -1028 1038 c 0,21,22
 -936 1133 -936 1133 -808 1151 c 0,23,24
 -783 1154 -783 1154 -758 1154 c 0,25,26
 -686 1154 -686 1154 -545 1124 c 0,27,28
 -427 1099 -427 1099 -360 1099 c 0,29,30
 -282 1099 -282 1099 -219 1144 c 0,31,32
 -184 1169 -184 1169 -167 1171 c 1,0,-1
EndSplineSet
EndChar

StartChar: uniE001
Encoding: 57345 57345 84
Width: 1421
Flags: W
LayerCount: 2
Fore
SplineSet
982 1 m 2,0,-1
 631 10 l 2,1,2
 510 10 510 10 428 1 c 1,3,-1
 422 1 l 1,4,5
 387 -451 387 -451 340 -624 c 0,6,7
 309 -734 309 -734 255 -819 c 0,8,9
 196 -913 196 -913 124 -968 c 0,10,11
 87 -996 87 -996 65 -996 c 0,12,13
 51 -996 51 -996 51 -982 c 0,14,15
 51 -960 51 -960 105 -892 c 0,16,17
 129 -862 129 -862 134 -851 c 0,18,19
 265 -600 265 -600 265 401 c 0,20,21
 265 614 265 614 247 664 c 0,22,23
 232 704 232 704 194 704 c 0,24,25
 150 704 150 704 114 675 c 0,26,27
 87 654 87 654 67 654 c 0,28,29
 57 654 57 654 53 668 c 1,30,31
 53 697 53 697 106 755 c 0,32,33
 190 847 190 847 288 867 c 0,34,35
 308 871 308 871 329 871 c 0,36,37
 401 871 401 871 421 788 c 0,38,39
 432 744 432 744 433 654 c 2,40,-1
 434 575 l 1,41,42
 506 661 506 661 627 749 c 0,43,44
 821 888 821 888 968 888 c 0,45,46
 1113 888 1113 888 1201 778 c 0,47,48
 1275 685 1275 685 1275 557 c 0,49,50
 1275 358 1275 358 1102 172 c 2,51,-1
 1083 151 l 1,52,-1
 1111 151 l 2,53,54
 1118 151 1118 151 1126 151 c 0,55,56
 1290 151 1290 151 1359 203 c 0,57,58
 1390 226 1390 226 1394 228 c 0,59,60
 1405 233 1405 233 1417 233 c 0,61,62
 1433 233 1433 233 1433 217 c 0,63,64
 1433 190 1433 190 1386 138 c 0,65,66
 1305 48 1305 48 1189 19 c 0,67,68
 1118 1 1118 1 982 1 c 2,0,-1
756 160 m 2,69,-1
 893 157 l 2,70,71
 1049 157 1049 157 1092 311 c 0,72,73
 1093 317 1093 317 1097 331 c 0,74,75
 1107 372 1107 372 1107 415 c 0,76,77
 1107 561 1107 561 1008 652 c 0,78,79
 942 712 942 712 862 720 c 0,80,81
 851 721 851 721 839 721 c 0,82,83
 728 721 728 721 614 646 c 0,84,85
 481 558 481 558 444 424 c 0,86,87
 435 393 435 393 433 360 c 0,88,89
 433 344 433 344 428 139 c 1,90,-1
 449 141 l 1,91,92
 603 160 603 160 756 160 c 2,69,-1
EndSplineSet
EndChar

StartChar: uniE00D
Encoding: 57357 57357 85
Width: 1939
Flags: W
LayerCount: 2
Fore
SplineSet
1461 2 m 1,0,-1
 865 10 l 2,1,2
 842 10 842 10 820 10 c 0,3,4
 461 10 461 10 204 -11 c 0,5,6
 140 -16 140 -16 98 -16 c 0,7,8
 84 -16 84 -16 84 -1 c 0,9,10
 84 24 84 24 104 47 c 0,11,12
 134 80 134 80 144 125 c 0,13,14
 148 147 148 147 150 174 c 0,15,16
 156 255 156 255 156 612 c 2,17,-1
 156 622 l 2,18,19
 156 1075 156 1075 196 1295 c 0,20,21
 248 1592 248 1592 421 1741 c 2,22,-1
 429 1748 l 2,23,24
 471 1782 471 1782 494 1782 c 0,25,26
 509 1782 509 1782 509 1768 c 0,27,28
 509 1746 509 1746 477 1705 c 0,29,30
 422 1637 422 1637 401 1578 c 0,31,32
 398 1572 398 1572 396 1565 c 0,33,34
 338 1389 338 1389 325 996 c 1,35,-1
 323 614 l 1,36,-1
 323 592 l 1,37,-1
 365 641 l 1,38,39
 447 727 447 727 552 797 c 0,40,41
 689 888 689 888 806 888 c 0,42,43
 918 888 918 888 999 781 c 0,44,45
 1059 702 1059 702 1075 601 c 1,46,-1
 1168 696 l 1,47,48
 1371 889 1371 889 1536 889 c 0,49,50
 1601 889 1601 889 1667 845 c 0,51,52
 1787 765 1787 765 1795 590 c 1,53,-1
 1795 578 l 2,54,55
 1795 389 1795 389 1618 182 c 2,56,-1
 1590 150 l 1,57,-1
 1642 151 l 2,58,59
 1806 151 1806 151 1873 203 c 0,60,61
 1904 226 1904 226 1908 228 c 0,62,63
 1918 233 1918 233 1931 233 c 0,64,65
 1947 233 1947 233 1947 217 c 0,66,67
 1947 182 1947 182 1886 123 c 0,68,69
 1839 77 1839 77 1784 50 c 0,70,71
 1687 0 1687 0 1505 1 c 2,72,-1
 1461 2 l 1,0,-1
912 390 m 2,73,74
 912 541 912 541 823 641 c 0,75,76
 767 704 767 704 701 717 c 0,77,78
 691 720 691 720 669 720 c 2,79,-1
 659 720 l 1,80,-1
 645 720 l 1,81,82
 535 710 535 710 445 620 c 0,83,84
 330 506 330 506 319 325 c 0,85,86
 312 217 312 217 271 145 c 1,87,-1
 267 137 l 1,88,-1
 801 162 l 2,89,90
 825 166 825 166 850 176 c 1,91,92
 909 274 909 274 912 376 c 2,93,-1
 912 390 l 2,73,74
999 160 m 1,94,-1
 1385 153 l 2,95,96
 1521 153 1521 153 1569 235 c 1,97,-1
 1585 267 l 2,98,99
 1627 350 1627 350 1627 437 c 0,100,101
 1627 575 1627 575 1540 659 c 0,102,103
 1491 707 1491 707 1432 718 c 0,104,105
 1416 720 1416 720 1402 720 c 0,106,107
 1394 721 1394 721 1388 721 c 2,108,-1
 1367 719 l 1,109,110
 1198 691 1198 691 1102 493 c 0,111,112
 1088 464 1088 464 1041 341 c 0,113,114
 1029 311 1029 311 1021 295 c 0,115,116
 980 218 980 218 931 160 c 1,117,-1
 999 160 l 1,94,-1
EndSplineSet
EndChar

StartChar: uniE006
Encoding: 57350 57350 86
Width: 1898
Flags: W
LayerCount: 2
Fore
SplineSet
82 332 m 0,0,1
 82 513 82 513 209 679 c 0,2,3
 306 807 306 807 426 862 c 0,4,5
 484 888 484 888 533 888 c 0,6,7
 701 888 701 888 701 774 c 0,8,9
 701 718 701 718 655 675 c 0,10,11
 617 639 617 639 567 639 c 0,12,13
 529 639 529 639 485 678 c 0,14,15
 447 712 447 712 428 718 c 0,16,17
 418 721 418 721 408 721 c 0,18,19
 405 721 405 721 396 720 c 0,20,21
 334 720 334 720 311 688 c 0,22,23
 253 595 253 595 250 477 c 0,24,25
 250 310 250 310 355 210 c 0,26,27
 376 190 376 190 397 178 c 0,28,29
 442 152 442 152 493 152 c 0,30,31
 782 152 782 152 831 414 c 0,32,33
 859 575 859 575 977 714 c 0,34,35
 1087 843 1087 843 1207 878 c 0,36,37
 1220 882 1220 882 1232 884 c 0,38,39
 1256 889 1256 889 1282 889 c 0,40,41
 1383 889 1383 889 1421 834 c 0,42,43
 1437 809 1437 809 1437 775 c 0,44,45
 1437 732 1437 732 1407 691 c 0,46,47
 1370 640 1370 640 1305 640 c 0,48,49
 1300 640 1300 640 1297 640 c 0,50,51
 1267 640 1267 640 1227 674 c 0,52,53
 1185 711 1185 711 1158 718 c 0,54,55
 1145 721 1145 721 1131 721 c 0,56,57
 1074 720 1074 720 1044 679 c 128,-1,58
 1014 638 1014 638 999 550 c 0,59,60
 994 521 994 521 994 495 c 2,61,-1
 994 483 l 2,62,63
 994 327 994 327 1086 227 c 0,64,65
 1139 170 1139 170 1205 155 c 0,66,67
 1217 152 1217 152 1243 152 c 2,68,-1
 1279 153 l 1,69,-1
 1280 153 l 1,70,71
 1468 175 1468 175 1545 304 c 0,72,73
 1569 345 1569 345 1579 393 c 0,74,75
 1586 426 1586 426 1585 521 c 0,76,77
 1585 629 1585 629 1621 703 c 0,78,79
 1641 743 1641 743 1673 782 c 0,80,81
 1744 870 1744 870 1797 886 c 0,82,83
 1804 889 1804 889 1810 889 c 0,84,85
 1823 889 1823 889 1823 876 c 0,86,87
 1823 875 1823 875 1823 873 c 0,88,89
 1823 853 1823 853 1795 817 c 128,-1,90
 1767 781 1767 781 1761 755 c 0,91,92
 1750 712 1750 712 1744 70 c 0,93,94
 1740 -260 1740 -260 1727 -385 c 0,95,96
 1697 -690 1697 -690 1576 -857 c 0,97,98
 1533 -915 1533 -915 1477 -962 c 0,99,100
 1436 -996 1436 -996 1410 -996 c 0,101,102
 1396 -996 1396 -996 1396 -982 c 0,103,104
 1396 -962 1396 -962 1450 -891 c 0,105,106
 1477 -856 1477 -856 1483 -843 c 0,107,108
 1547 -713 1547 -713 1564 -437 c 0,109,110
 1568 -359 1568 -359 1578 64 c 2,111,-1
 1581 219 l 1,112,-1
 1581 227 l 1,113,-1
 1559 205 l 1,114,115
 1331 -16 1331 -16 1105 -16 c 0,116,117
 955 -16 955 -16 873 146 c 0,118,119
 852 186 852 186 839 232 c 1,120,121
 685 59 685 59 495 4 c 0,122,123
 424 -16 424 -16 355 -16 c 0,124,125
 224 -16 224 -16 143 114 c 0,126,127
 101 183 101 183 88 261 c 0,128,129
 82 296 82 296 82 332 c 0,0,1
EndSplineSet
EndChar

StartChar: uniE011
Encoding: 57361 57361 87
Width: 2052
Flags: W
LayerCount: 2
Fore
SplineSet
1573 2 m 1,0,-1
 977 10 l 2,1,2
 954 10 954 10 932 10 c 0,3,4
 574 10 574 10 317 -11 c 0,5,6
 253 -16 253 -16 211 -16 c 0,7,8
 197 -16 197 -16 197 -1 c 0,9,10
 197 23 197 23 216 45 c 0,11,12
 247 79 247 79 257 130 c 0,13,14
 261 150 261 150 263 174 c 0,15,16
 268 243 268 243 268 542 c 0,17,18
 268 703 268 703 199 703 c 0,19,20
 153 703 153 703 119 676 c 0,21,22
 93 655 93 655 71 654 c 0,23,24
 57 654 57 654 57 669 c 0,25,26
 57 712 57 712 128 775 c 0,27,28
 214 852 214 852 301 868 c 0,29,30
 318 871 318 871 333 871 c 0,31,32
 409 871 409 871 428 771 c 0,33,34
 436 729 436 729 436 662 c 2,35,-1
 436 592 l 1,36,37
 494 669 494 669 600 751 c 0,38,39
 777 889 777 889 918 889 c 0,40,41
 1011 889 1011 889 1090 807 c 128,-1,42
 1169 725 1169 725 1188 601 c 1,43,44
 1302 734 1302 734 1432 815 c 0,45,46
 1551 889 1551 889 1649 889 c 0,47,48
 1709 889 1709 889 1776 846 c 0,49,50
 1908 761 1908 761 1908 579 c 0,51,52
 1908 380 1908 380 1722 172 c 2,53,-1
 1702 150 l 1,54,-1
 1755 151 l 2,55,56
 1918 151 1918 151 1986 203 c 0,57,58
 2017 226 2017 226 2021 228 c 0,59,60
 2031 233 2031 233 2043 233 c 0,61,62
 2059 233 2059 233 2059 221 c 0,63,64
 2060 219 2060 219 2060 217 c 0,65,66
 2060 183 2060 183 2001 125 c 0,67,68
 1954 78 1954 78 1897 50 c 0,69,70
 1798 0 1798 0 1620 1 c 2,71,-1
 1573 2 l 1,0,-1
1025 388 m 0,72,73
 1025 544 1025 544 934 644 c 0,74,75
 880 704 880 704 814 717 c 0,76,77
 803 720 803 720 782 720 c 0,78,79
 777 720 777 720 771 720 c 2,80,-1
 758 720 l 1,81,82
 643 709 643 709 552 615 c 0,83,84
 443 503 443 503 432 325 c 0,85,86
 426 235 426 235 400 178 c 2,87,-1
 380 137 l 1,88,-1
 913 162 l 2,89,90
 937 166 937 166 962 176 c 1,91,92
 1025 266 1025 266 1025 388 c 0,72,73
1112 160 m 1,93,-1
 1498 153 l 2,94,95
 1634 153 1634 153 1682 235 c 1,96,-1
 1698 267 l 2,97,98
 1740 350 1740 350 1740 437 c 0,99,100
 1740 572 1740 572 1654 657 c 0,101,102
 1605 706 1605 706 1544 718 c 0,103,104
 1528 720 1528 720 1515 720 c 0,105,106
 1508 721 1508 721 1501 721 c 2,107,-1
 1480 719 l 1,108,109
 1317 694 1317 694 1221 503 c 0,110,111
 1204 469 1204 469 1155 343 c 0,112,113
 1143 312 1143 312 1134 295 c 0,114,115
 1100 229 1100 229 1043 160 c 1,116,-1
 1112 160 l 1,93,-1
EndSplineSet
EndChar

StartChar: uniE021
Encoding: 57377 57377 88
Width: 1253
Flags: W
LayerCount: 2
Fore
SplineSet
78 698 m 0,0,1
 78 726 78 726 125 777 c 0,2,3
 203 862 203 862 297 870 c 0,4,5
 306 871 306 871 314 871 c 0,6,7
 392 871 392 871 439 790 c 0,8,9
 449 772 449 772 491 676 c 2,10,-1
 502 651 l 1,11,-1
 520 667 l 1,12,13
 647 787 647 787 736 836 c 0,14,15
 824 885 824 885 897 885 c 0,16,17
 1034 885 1034 885 1108 786 c 0,18,19
 1160 715 1160 715 1160 617 c 0,20,21
 1160 432 1160 432 992 240 c 0,22,23
 893 127 893 127 724 20 c 2,24,-1
 548 -90 l 1,25,26
 419 -176 419 -176 341 -272 c 0,27,28
 257 -375 257 -375 257 -485 c 0,29,30
 257 -620 257 -620 372 -701 c 0,31,32
 413 -730 413 -730 450 -739 c 0,33,34
 482 -747 482 -747 512 -747 c 0,35,36
 587 -747 587 -747 621 -713 c 0,37,38
 678 -657 678 -657 714 -655 c 0,39,40
 728 -655 728 -655 728 -669 c 0,41,42
 728 -703 728 -703 667 -768 c 0,43,44
 573 -869 573 -869 457 -903 c 0,45,46
 415 -915 415 -915 374 -915 c 0,47,48
 270 -915 270 -915 188 -844 c 0,49,50
 107 -774 107 -774 91 -660 c 0,51,52
 90 -650 90 -650 90 -625 c 0,53,54
 90 -447 90 -447 284 -230 c 2,55,-1
 302 -210 l 2,56,57
 398 -107 398 -107 528 -20 c 0,58,59
 539 -13 539 -13 539 -11 c 0,60,61
 514 81 514 81 460 240 c 1,62,63
 452 240 452 240 333 163 c 0,64,65
 158 49 158 49 158 20 c 0,66,67
 158 -33 158 -33 198 -61 c 0,68,69
 218 -75 218 -75 220 -85 c 0,70,71
 220 -109 220 -109 177 -161 c 0,72,73
 120 -230 120 -230 65 -239 c 1,74,75
 11 -215 11 -215 -5 -163 c 0,76,77
 -10 -146 -10 -146 -10 -128 c 0,78,79
 -10 20 -10 20 277 211 c 0,80,81
 339 252 339 252 414 294 c 0,82,83
 436 307 436 307 436 309 c 2,84,-1
 425 341 l 2,85,86
 368 495 368 495 365 495 c 2,87,-1
 358 487 l 1,88,-1
 357 487 l 2,89,90
 357 489 357 489 363 500 c 1,91,-1
 349 534 l 1,92,-1
 314 619 l 1,93,94
 265 722 265 722 198 722 c 0,95,96
 165 722 165 722 135 699 c 0,97,98
 112 682 112 682 93 682 c 0,99,100
 78 682 78 682 78 698 c 0,0,1
992 474 m 0,101,102
 992 595 992 595 909 667 c 0,103,104
 844 723 844 723 750 723 c 0,105,106
 650 723 650 723 555 649 c 0,107,108
 541 638 541 638 528 626 c 0,109,110
 517 615 517 615 517 614 c 0,111,112
 517 611 517 611 546 542 c 0,113,114
 614 379 614 379 689 108 c 0,115,116
 696 84 696 84 697 84 c 0,117,118
 709 84 709 84 828 179 c 0,119,120
 862 206 862 206 877 220 c 0,121,122
 992 325 992 325 992 474 c 0,101,102
EndSplineSet
EndChar

StartChar: uniE00F
Encoding: 57359 57359 89
Width: 1961
Flags: W
LayerCount: 2
Fore
SplineSet
954 846 m 0,0,1
 1517 846 1517 846 1645 862 c 1,2,-1
 1650 862 l 1,3,-1
 1651 888 l 2,4,5
 1660 1216 1660 1216 1709 1396 c 0,6,7
 1772 1627 1772 1627 1920 1748 c 0,8,9
 1962 1782 1962 1782 1986 1782 c 0,10,11
 2000 1782 2000 1782 2000 1768 c 0,12,13
 2000 1742 2000 1742 1951 1684 c 0,14,15
 1931 1661 1931 1661 1926 1652 c 0,16,17
 1834 1501 1834 1501 1819 995 c 0,18,19
 1814 846 1814 846 1814 529 c 0,20,21
 1814 316 1814 316 1838 191 c 0,22,23
 1844 159 1844 159 1844 137 c 0,24,25
 1844 95 1844 95 1772 32 c 0,26,27
 1716 -16 1716 -16 1691 -16 c 128,-1,28
 1666 -16 1666 -16 1653 158 c 0,29,30
 1651 186 1651 186 1648 234 c 1,31,-1
 1623 208 l 1,32,33
 1431 16 1431 16 1218 -12 c 0,34,35
 1189 -16 1189 -16 1162 -16 c 0,36,37
 1023 -16 1023 -16 940 133 c 0,38,39
 915 178 915 178 901 228 c 1,40,-1
 878 206 l 1,41,42
 683 11 683 11 462 -13 c 0,43,44
 436 -16 436 -16 412 -16 c 0,45,46
 286 -16 286 -16 207 103 c 0,47,48
 196 120 196 120 187 138 c 0,49,50
 148 219 148 219 148 305 c 0,51,52
 149 485 149 485 284 659 c 0,53,54
 296 674 296 674 309 689 c 0,55,56
 321 703 321 703 321 705 c 2,57,-1
 300 707 l 1,58,59
 151 714 151 714 115 739 c 0,60,61
 95 754 95 754 85 793 c 0,62,63
 82 806 82 806 82 816 c 0,64,65
 82 869 82 869 144 933 c 0,66,67
 195 986 195 986 230 986 c 0,68,69
 246 986 246 986 246 970 c 0,70,71
 246 959 246 959 234 934 c 0,72,73
 232 930 232 930 232 928 c 0,74,75
 232 913 232 913 246 891 c 0,76,77
 252 882 252 882 258 880 c 0,78,79
 332 845 332 845 937 846 c 0,80,81
 947 846 947 846 954 846 c 0,0,1
1648 692 m 1,82,-1
 1648 728 l 1,83,84
 1634 714 1634 714 1354 705 c 0,85,86
 1141 698 1141 698 1116 690 c 0,87,88
 1096 683 1096 683 1073 607 c 0,89,90
 1054 541 1054 541 1054 482 c 0,91,92
 1054 327 1054 327 1146 228 c 0,93,94
 1208 161 1208 161 1281 153 c 0,95,96
 1291 152 1291 152 1305 152 c 0,97,98
 1425 152 1425 152 1521 217 c 0,99,100
 1619 283 1619 283 1639 391 c 0,101,102
 1645 420 1645 420 1647 525 c 2,103,-1
 1648 692 l 1,82,-1
1021 695 m 1,104,-1
 536 698 l 2,105,106
 415 698 415 698 390 672 c 2,107,-1
 386 668 l 1,108,109
 318 570 318 570 317 448 c 0,110,111
 317 308 317 308 403 219 c 0,112,113
 453 168 453 168 515 154 c 0,114,115
 526 152 526 152 552 152 c 0,116,117
 706 152 706 152 809 240 c 0,118,119
 843 268 843 268 858 296 c 0,120,121
 874 326 874 326 891 411 c 0,122,123
 914 530 914 530 966 617 c 0,124,125
 991 657 991 657 1021 695 c 1,104,-1
EndSplineSet
EndChar

StartChar: uniE005
Encoding: 57349 57349 90
Width: 2045
Flags: W
LayerCount: 2
Fore
SplineSet
1587 1 m 2,0,-1
 966 10 l 1,1,2
 631 10 631 10 430 -6 c 1,3,-1
 422 -6 l 1,4,-1
 421 -14 l 1,5,6
 421 -154 421 -154 376 -444 c 0,7,8
 367 -498 367 -498 360 -535 c 0,9,10
 315 -766 315 -766 188 -910 c 0,11,12
 122 -986 122 -986 74 -995 c 0,13,14
 69 -996 69 -996 65 -996 c 0,15,16
 51 -996 51 -996 51 -982 c 0,17,18
 51 -960 51 -960 105 -892 c 0,19,20
 129 -862 129 -862 134 -851 c 0,21,22
 265 -600 265 -600 265 401 c 0,23,24
 265 614 265 614 247 664 c 0,25,26
 232 704 232 704 194 704 c 0,27,28
 150 704 150 704 114 675 c 0,29,30
 87 654 87 654 67 654 c 0,31,32
 57 654 57 654 53 668 c 1,33,34
 53 697 53 697 106 755 c 0,35,36
 190 847 190 847 288 867 c 0,37,38
 308 871 308 871 329 871 c 0,39,40
 405 871 405 871 424 777 c 0,41,42
 432 737 432 737 433 662 c 2,43,-1
 434 592 l 1,44,45
 637 818 637 818 819 874 c 0,46,47
 865 888 865 888 904 888 c 0,48,49
 1045 888 1045 888 1128 760 c 0,50,51
 1174 685 1174 685 1187 601 c 1,52,-1
 1253 672 l 1,53,54
 1458 877 1458 877 1632 888 c 1,55,-1
 1650 888 l 2,56,57
 1740 888 1740 888 1813 817 c 0,58,59
 1883 750 1883 750 1901 644 c 0,60,61
 1906 613 1906 613 1906 580 c 0,62,63
 1906 365 1906 365 1702 151 c 1,64,-1
 1738 151 l 2,65,66
 1920 151 1920 151 1986 203 c 0,67,68
 2016 226 2016 226 2018 227 c 0,69,70
 2029 233 2029 233 2043 233 c 0,71,72
 2059 233 2059 233 2059 216 c 0,73,74
 2059 186 2059 186 2012 137 c 0,75,76
 1931 54 1931 54 1834 25 c 0,77,78
 1751 1 1751 1 1587 1 c 2,0,-1
432 331 m 2,79,-1
 428 136 l 1,80,-1
 712 153 l 1,81,-1
 890 158 l 2,82,83
 946 163 946 163 965 182 c 0,84,85
 980 198 980 198 996 241 c 0,86,87
 1024 315 1024 315 1024 389 c 0,88,89
 1024 536 1024 536 938 637 c 0,90,91
 876 710 876 710 801 719 c 0,92,93
 791 721 791 721 773 721 c 0,94,95
 676 721 676 721 580 642 c 0,96,97
 465 547 465 547 439 403 c 0,98,99
 432 368 432 368 432 331 c 2,79,-1
1739 437 m 0,100,101
 1739 562 1739 562 1667 645 c 0,102,103
 1601 720 1601 720 1504 720 c 0,104,105
 1444 720 1444 720 1368 674 c 0,106,107
 1301 632 1301 632 1257 567 c 0,108,109
 1214 503 1214 503 1165 372 c 0,110,111
 1146 322 1146 322 1136 301 c 0,112,113
 1102 232 1102 232 1043 160 c 1,114,-1
 1132 159 l 1,115,-1
 1502 153 l 1,116,-1
 1504 153 l 2,117,118
 1608 153 1608 153 1655 204 c 0,119,120
 1673 224 1673 224 1692 258 c 0,121,122
 1739 344 1739 344 1739 437 c 0,100,101
EndSplineSet
EndChar

StartChar: uniE007
Encoding: 57351 57351 91
Width: 1978
Flags: W
LayerCount: 2
Fore
SplineSet
84 818 m 0,0,1
 84 872 84 872 147 935 c 0,2,3
 198 986 198 986 230 986 c 0,4,5
 247 986 247 986 247 970 c 0,6,7
 247 962 247 962 235 935 c 0,8,9
 234 931 234 931 234 930 c 0,10,11
 234 903 234 903 256 885 c 0,12,13
 265 877 265 877 277 874 c 0,14,15
 396 846 396 846 993 846 c 0,16,17
 1684 846 1684 846 1823 879 c 0,18,19
 1849 885 1849 885 1859 892 c 0,20,21
 1900 923 1900 923 1920 923 c 0,22,23
 1937 923 1937 923 1937 907 c 0,24,25
 1937 874 1937 874 1884 822 c 0,26,27
 1860 799 1860 799 1828 775 c 1,28,29
 1817 739 1817 739 1816 699 c 0,30,31
 1815 676 1815 676 1815 639 c 2,32,-1
 1798 -247 l 2,33,34
 1797 -256 1797 -256 1797 -262 c 0,35,36
 1781 -525 1781 -525 1732 -668 c 0,37,38
 1680 -821 1680 -821 1572 -930 c 0,39,40
 1508 -996 1508 -996 1470 -996 c 0,41,42
 1457 -996 1457 -996 1457 -983 c 0,43,44
 1457 -961 1457 -961 1511 -891 c 0,45,46
 1537 -858 1537 -858 1543 -846 c 0,47,48
 1610 -710 1610 -710 1625 -421 c 1,49,-1
 1642 208 l 1,50,-1
 1643 227 l 1,51,-1
 1620 204 l 1,52,53
 1399 -8 1399 -8 1179 -16 c 0,54,55
 1171 -16 1171 -16 1164 -16 c 0,56,57
 1024 -16 1024 -16 942 132 c 0,58,59
 916 177 916 177 902 228 c 1,60,-1
 879 206 l 1,61,62
 684 11 684 11 463 -13 c 0,63,64
 437 -16 437 -16 413 -16 c 0,65,66
 287 -16 287 -16 208 103 c 0,67,68
 197 120 197 120 188 138 c 0,69,70
 149 217 149 217 149 306 c 0,71,72
 149 482 149 482 284 657 c 0,73,74
 303 681 303 681 324 705 c 1,75,-1
 177 719 l 1,76,77
 117 729 117 729 99 763 c 0,78,79
 92 775 92 775 88 792 c 0,80,81
 84 805 84 805 84 818 c 0,0,1
1647 504 m 0,82,83
 1648 602 1648 602 1659 640 c 0,84,85
 1671 682 1671 682 1693 724 c 1,86,87
 1693 713 1693 713 1392 705 c 0,88,89
 1119 697 1119 697 1111 687 c 0,90,91
 1080 645 1080 645 1063 561 c 0,92,93
 1055 521 1055 521 1055 485 c 0,94,95
 1055 288 1055 288 1184 196 c 0,96,97
 1246 153 1246 153 1302 152 c 0,98,99
 1398 152 1398 152 1488 195 c 0,100,101
 1546 223 1546 223 1582 265 c 0,102,103
 1639 331 1639 331 1646 446 c 0,104,105
 1647 470 1647 470 1647 504 c 0,82,83
1022 695 m 2,106,-1
 538 698 l 1,107,-1
 537 698 l 2,108,109
 414 698 414 698 390 672 c 0,110,111
 388 670 388 670 387 668 c 0,112,113
 319 574 319 574 318 448 c 0,114,115
 318 308 318 308 404 219 c 0,116,117
 454 168 454 168 516 154 c 0,118,119
 527 152 527 152 553 152 c 0,120,121
 707 152 707 152 810 240 c 0,122,123
 844 268 844 268 859 296 c 0,124,125
 879 333 879 333 893 412 c 0,126,127
 911 515 911 515 955 596 c 0,128,129
 969 621 969 621 986 647 c 0,130,131
 1018 692 1018 692 1022 695 c 2,106,-1
EndSplineSet
EndChar

StartChar: uniE015
Encoding: 57365 57365 92
Width: 1421
Flags: W
LayerCount: 2
Fore
SplineSet
1004 1 m 2,0,-1
 605 10 l 1,1,2
 392 10 392 10 262 -11 c 0,3,4
 231 -16 231 -16 210 -16 c 0,5,6
 197 -16 197 -16 197 0 c 0,7,8
 197 23 197 23 216 46 c 0,9,10
 247 80 247 80 257 129 c 0,11,12
 261 149 261 149 263 174 c 0,13,14
 268 243 268 243 268 542 c 0,15,16
 268 703 268 703 199 703 c 0,17,18
 153 703 153 703 119 676 c 0,19,20
 93 655 93 655 71 654 c 0,21,22
 57 654 57 654 57 669 c 0,23,24
 57 712 57 712 128 775 c 0,25,26
 214 852 214 852 301 868 c 0,27,28
 318 871 318 871 333 871 c 0,29,30
 412 871 412 871 429 763 c 0,31,32
 436 722 436 722 436 654 c 0,33,34
 436 576 436 576 437 576 c 0,35,36
 442 576 442 576 462 601 c 0,37,38
 530 685 530 685 663 773 c 0,39,40
 818 876 818 876 955 888 c 1,41,-1
 979 889 l 1,42,43
 1120 889 1120 889 1206 770 c 0,44,45
 1263 692 1263 692 1274 595 c 0,46,47
 1276 584 1276 584 1276 557 c 0,48,49
 1276 349 1276 349 1082 150 c 1,50,-1
 1131 151 l 2,51,52
 1291 151 1291 151 1359 202 c 0,53,54
 1390 226 1390 226 1395 228 c 0,55,56
 1405 233 1405 233 1417 233 c 0,57,58
 1433 233 1433 233 1433 218 c 0,59,60
 1433 185 1433 185 1381 131 c 0,61,62
 1287 33 1287 33 1146 11 c 0,63,64
 1133 8 1133 8 1119 7 c 0,65,66
 1075 2 1075 2 1004 1 c 2,0,-1
723 160 m 1,67,-1
 892 156 l 2,68,69
 969 156 969 156 1017 188 c 0,70,71
 1030 197 1030 197 1039 207 c 0,72,73
 1098 276 1098 276 1107 393 c 0,74,75
 1108 405 1108 405 1108 415 c 0,76,77
 1108 599 1108 599 967 681 c 0,78,79
 899 721 899 721 839 721 c 0,80,81
 762 721 762 721 667 676 c 0,82,83
 494 593 494 593 447 422 c 0,84,85
 442 406 442 406 439 389 c 0,86,87
 437 377 437 377 425 278 c 0,88,89
 416 200 416 200 382 141 c 1,90,-1
 384 141 l 1,91,92
 547 158 547 158 723 160 c 1,67,-1
EndSplineSet
EndChar

StartChar: uniE003
Encoding: 57347 57347 93
Width: 1333
Flags: W
LayerCount: 2
Fore
SplineSet
82 815 m 0,0,1
 82 869 82 869 144 933 c 0,2,3
 195 986 195 986 229 986 c 0,4,5
 246 986 246 986 246 970 c 0,6,7
 246 957 246 957 231 929 c 1,8,9
 241 891 241 891 264 877 c 0,10,11
 308 851 308 851 507 847 c 0,12,13
 570 846 570 846 664 846 c 0,14,15
 942 846 942 846 1036 853 c 0,16,17
 1177 864 1177 864 1214 892 c 0,18,19
 1255 923 1255 923 1275 923 c 0,20,21
 1292 923 1292 923 1292 907 c 0,22,23
 1292 876 1292 876 1243 825 c 0,24,25
 1218 800 1218 800 1183 775 c 1,26,27
 1173 740 1173 740 1171 692 c 0,28,29
 1170 671 1170 671 1170 639 c 0,30,31
 1163 -11 1163 -11 1156 -161 c 0,32,33
 1143 -478 1143 -478 1098 -635 c 0,34,35
 1048 -808 1048 -808 927 -930 c 0,36,37
 863 -996 863 -996 825 -996 c 0,38,39
 812 -996 812 -996 812 -983 c 0,40,41
 812 -962 812 -962 864 -894 c 0,42,43
 891 -859 891 -859 897 -846 c 0,44,45
 960 -722 960 -722 978 -460 c 0,46,47
 985 -354 985 -354 995 105 c 2,48,-1
 996 165 l 2,49,50
 997 200 997 200 997 235 c 2,51,-1
 997 242 l 1,52,-1
 979 224 l 2,53,54
 762 12 762 12 515 -13 c 0,55,56
 487 -16 487 -16 460 -16 c 0,57,58
 332 -16 332 -16 245 81 c 0,59,60
 159 177 159 177 159 316 c 0,61,62
 159 505 159 505 331 700 c 1,63,64
 189 709 189 709 156 719 c 0,65,66
 112 732 112 732 93 770 c 0,67,68
 82 793 82 793 82 815 c 0,0,1
1043 719 m 2,69,-1
 946 707 l 2,70,71
 842 698 842 698 647 697 c 0,72,73
 451 696 451 696 411 677 c 0,74,75
 396 669 396 669 383 650 c 0,76,77
 327 568 327 568 327 458 c 0,78,79
 327 327 327 327 409 237 c 0,80,81
 416 229 416 229 424 222 c 0,82,83
 500 152 500 152 597 152 c 0,84,85
 688 152 688 152 793 192 c 0,86,87
 890 228 890 228 942 286 c 0,88,89
 995 345 995 345 1001 451 c 0,90,91
 1002 474 1002 474 1002 530 c 0,92,93
 1004 624 1004 624 1026 677 c 2,94,-1
 1045 718 l 2,95,96
 1045 719 1045 719 1043 719 c 2,69,-1
EndSplineSet
EndChar

StartChar: uniEC22
Encoding: 60450 60450 94
Width: 0
Flags: W
LayerCount: 2
Fore
SplineSet
-1724 1022 m 0,0,1
 -1724 1060 -1724 1060 -1660 1114 c 0,2,3
 -1616 1151 -1616 1151 -1595 1151 c 2,4,-1
 -1493 1132 l 2,5,6
 -1453 1127 -1453 1127 -1403 1122 c 0,7,8
 -1346 1118 -1346 1118 -960 1118 c 2,9,-1
 -890 1118 l 2,10,11
 -438 1118 -438 1118 -363 1123 c 0,12,13
 -291 1128 -291 1128 -206 1148 c 0,14,15
 -188 1151 -188 1151 -183 1151 c 0,16,17
 -172 1151 -172 1151 -172 1138 c 0,18,19
 -172 1116 -172 1116 -206 1075 c 0,20,21
 -253 1018 -253 1018 -315 1006 c 0,22,23
 -430 983 -430 983 -540 979 c 0,24,25
 -646 975 -646 975 -1006 975 c 0,26,27
 -1456 975 -1456 975 -1526 980 c 0,28,29
 -1581 984 -1581 984 -1659 998 c 0,30,31
 -1716 1008 -1716 1008 -1721 1013 c 0,32,33
 -1724 1016 -1724 1016 -1724 1022 c 0,0,1
EndSplineSet
EndChar

StartChar: uniEBD0
Encoding: 60368 60368 95
Width: 0
Flags: W
LayerCount: 2
Fore
SplineSet
-892 -625 m 0,0,1
 -967 -625 -967 -625 -1011 -563 c 0,2,3
 -1042 -519 -1042 -519 -1042 -459 c 0,4,5
 -1042 -311 -1042 -311 -868 -136 c 0,6,7
 -821 -90 -821 -90 -744 -23 c 0,8,9
 -585 115 -585 115 -575 115 c 0,10,11
 -571 116 -571 116 -567 116 c 0,12,13
 -547 116 -547 116 -544 95 c 0,14,15
 -544 71 -544 71 -673 -60 c 2,16,-1
 -684 -71 l 2,17,18
 -852 -244 -852 -244 -884 -308 c 0,19,20
 -900 -340 -900 -340 -900 -376 c 0,21,22
 -900 -440 -900 -440 -834 -453 c 0,23,24
 -822 -456 -822 -456 -808 -456 c 0,25,26
 -739 -456 -739 -456 -675 -400 c 0,27,28
 -642 -371 -642 -371 -629 -369 c 0,29,30
 -616 -369 -616 -369 -616 -388 c 0,31,32
 -616 -451 -616 -451 -690 -525 c 0,33,34
 -770 -606 -770 -606 -860 -622 c 0,35,36
 -876 -625 -876 -625 -892 -625 c 0,0,1
EndSplineSet
EndChar

StartChar: uniEBD1
Encoding: 60369 60369 96
Width: 0
Flags: W
LayerCount: 2
Fore
SplineSet
-606 -601 m 0,0,1
 -688 -601 -688 -601 -731 -536 c 0,2,3
 -759 -494 -759 -494 -759 -434 c 0,4,5
 -759 -291 -759 -291 -590 -126 c 0,6,7
 -545 -81 -545 -81 -477 -24 c 0,8,9
 -312 116 -312 116 -291 116 c 0,10,11
 -272 116 -272 116 -270 93 c 0,12,13
 -270 67 -270 67 -359 -18 c 0,14,15
 -478 -132 -478 -132 -499 -154 c 0,16,17
 -616 -277 -616 -277 -616 -352 c 0,18,19
 -616 -416 -616 -416 -549 -431 c 0,20,21
 -534 -434 -534 -434 -519 -434 c 0,22,23
 -452 -434 -452 -434 -390 -380 c 0,24,25
 -356 -352 -356 -352 -344 -351 c 0,26,27
 -331 -351 -331 -351 -331 -368 c 0,28,29
 -331 -430 -331 -430 -406 -503 c 0,30,31
 -486 -583 -486 -583 -574 -598 c 0,32,33
 -591 -601 -591 -601 -606 -601 c 0,0,1
EndSplineSet
EndChar

StartChar: uniE02C
Encoding: 57388 57388 97
Width: 632
Flags: W
LayerCount: 2
Fore
SplineSet
92 668 m 1,0,1
 92 709 92 709 162 774 c 0,2,3
 247 852 247 852 330 868 c 0,4,5
 346 871 346 871 361 871 c 0,6,7
 423 871 423 871 449 820 c 0,8,9
 463 791 463 791 470 746 c 0,10,11
 472 723 472 723 472 518 c 0,12,13
 472 -245 472 -245 390 -576 c 0,14,15
 352 -727 352 -727 294 -819 c 0,16,17
 235 -913 235 -913 163 -968 c 0,18,19
 126 -996 126 -996 104 -996 c 0,20,21
 90 -996 90 -996 90 -982 c 0,22,23
 90 -960 90 -960 144 -892 c 0,24,25
 168 -862 168 -862 173 -851 c 0,26,27
 293 -622 293 -622 303 253 c 0,28,29
 304 326 304 326 304 401 c 0,30,31
 304 614 304 614 286 664 c 0,32,33
 271 704 271 704 233 704 c 0,34,35
 189 704 189 704 153 675 c 0,36,37
 126 654 126 654 106 654 c 0,38,39
 96 654 96 654 92 668 c 1,0,1
EndSplineSet
EndChar

StartChar: uni801A
Encoding: 32794 32794 98
Width: 0
Flags: W
LayerCount: 2
Fore
SplineSet
-1194 -229 m 0,0,1
 -1233 -229 -1233 -229 -1246 -195 c 0,2,3
 -1249 -185 -1249 -185 -1249 -175 c 0,4,5
 -1249 -142 -1249 -142 -1205 -104 c 0,6,7
 -1089 -4 -1089 -4 -907 129 c 0,8,9
 -777 225 -777 225 -757 225 c 0,10,11
 -731 225 -731 225 -731 199 c 0,12,13
 -731 185 -731 185 -746 169 c 0,14,15
 -754 160 -754 160 -775 138 c 0,16,17
 -946 -35 -946 -35 -996 -82 c 0,18,19
 -1151 -229 -1151 -229 -1194 -229 c 0,0,1
EndSplineSet
EndChar

StartChar: uniEDC3
Encoding: 60867 60867 99
Width: 0
Flags: W
LayerCount: 2
Fore
SplineSet
-1286 1670 m 0,0,1
 -1286 1704 -1286 1704 -1257 1719 c 0,2,3
 -1246 1724 -1246 1724 -1234 1724 c 0,4,5
 -1202 1724 -1202 1724 -1171 1692 c 0,6,7
 -1163 1685 -1163 1685 -1149 1669 c 0,8,9
 -935 1429 -935 1429 -797 1251 c 0,10,11
 -715 1144 -715 1144 -715 1124 c 128,-1,12
 -715 1104 -715 1104 -735 1100 c 0,13,14
 -738 1099 -738 1099 -741 1099 c 0,15,16
 -770 1099 -770 1099 -1016 1349 c 0,17,18
 -1229 1566 -1229 1566 -1272 1628 c 0,19,20
 -1276 1633 -1276 1633 -1277 1636 c 0,21,22
 -1286 1653 -1286 1653 -1286 1670 c 0,0,1
EndSplineSet
EndChar

StartChar: uniEDC2
Encoding: 60866 60866 100
Width: 0
Flags: W
LayerCount: 2
Fore
SplineSet
-960 1660 m 0,0,1
 -960 1697 -960 1697 -929 1711 c 0,2,3
 -919 1715 -919 1715 -908 1715 c 0,4,5
 -877 1715 -877 1715 -843 1676 c 0,6,7
 -806 1634 -806 1634 -679 1440 c 0,8,9
 -502 1168 -502 1168 -491 1130 c 0,10,11
 -490 1127 -490 1127 -490 1125 c 0,12,13
 -495 1102 -495 1102 -516 1098 c 0,14,15
 -530 1098 -530 1098 -539 1107 c 0,16,17
 -572 1133 -572 1133 -805 1428 c 0,18,19
 -894 1541 -894 1541 -934 1596 c 0,20,21
 -960 1632 -960 1632 -960 1660 c 0,0,1
EndSplineSet
EndChar

StartChar: uniEDC1
Encoding: 60865 60865 101
Width: 0
Flags: W
LayerCount: 2
Fore
SplineSet
-903 1670 m 0,0,1
 -903 1704 -903 1704 -874 1719 c 0,2,3
 -863 1724 -863 1724 -851 1724 c 0,4,5
 -819 1724 -819 1724 -788 1692 c 0,6,7
 -780 1685 -780 1685 -766 1669 c 0,8,9
 -552 1429 -552 1429 -414 1251 c 0,10,11
 -332 1144 -332 1144 -332 1124 c 128,-1,12
 -332 1104 -332 1104 -352 1100 c 0,13,14
 -355 1099 -355 1099 -358 1099 c 0,15,16
 -387 1099 -387 1099 -633 1349 c 0,17,18
 -846 1566 -846 1566 -889 1628 c 0,19,20
 -893 1633 -893 1633 -894 1636 c 0,21,22
 -903 1653 -903 1653 -903 1670 c 0,0,1
EndSplineSet
EndChar

StartChar: uniEDC0
Encoding: 60864 60864 102
Width: 0
Flags: W
LayerCount: 2
Fore
SplineSet
-628 1660 m 0,0,1
 -628 1697 -628 1697 -597 1711 c 0,2,3
 -587 1715 -587 1715 -576 1715 c 0,4,5
 -546 1715 -546 1715 -513 1677 c 0,6,7
 -479 1639 -479 1639 -347 1440 c 0,8,9
 -170 1168 -170 1168 -159 1130 c 0,10,11
 -158 1127 -158 1127 -158 1125 c 0,12,13
 -163 1102 -163 1102 -184 1098 c 0,14,15
 -198 1098 -198 1098 -207 1107 c 0,16,17
 -240 1133 -240 1133 -460 1410 c 0,18,19
 -560 1537 -560 1537 -602 1596 c 0,20,21
 -628 1630 -628 1630 -628 1660 c 0,0,1
EndSplineSet
EndChar

StartChar: uni8021
Encoding: 32801 32801 103
Width: 1054
Flags: W
LayerCount: 2
Fore
SplineSet
86 365 m 0,0,1
 86 540 86 540 220 694 c 0,2,3
 327 817 327 817 464 866 c 0,4,5
 525 888 525 888 579 888 c 0,6,7
 733 888 733 888 807 822 c 0,8,9
 848 784 848 784 848 734 c 0,10,11
 848 693 848 693 818 652 c 0,12,13
 781 601 781 601 715 601 c 0,14,15
 676 601 676 601 629 640 c 0,16,17
 577 684 577 684 553 697 c 0,18,19
 507 721 507 721 449 721 c 0,20,21
 389 721 389 721 337 699 c 0,22,23
 308 687 308 687 298 671 c 0,24,25
 254 599 254 599 254 507 c 0,26,27
 254 339 254 339 379 231 c 0,28,29
 404 209 404 209 430 194 c 0,30,31
 502 152 502 152 590 152 c 0,32,33
 771 152 771 152 881 239 c 2,34,-1
 946 293 l 2,35,36
 968 308 968 308 988 308 c 1,37,38
 999 304 999 304 1002 293 c 0,39,40
 1002 265 1002 265 957 215 c 2,41,-1
 642 -103 l 2,42,43
 489 -255 489 -255 465 -271 c 0,44,45
 436 -290 436 -290 419 -290 c 0,46,47
 405 -290 405 -290 405 -276 c 0,48,49
 405 -245 405 -245 467 -179 c 2,50,-1
 666 21 l 1,51,52
 564 -16 564 -16 455 -16 c 0,53,54
 271 -16 271 -16 163 132 c 0,55,56
 137 167 137 167 121 203 c 0,57,58
 86 282 86 282 86 365 c 0,0,1
EndSplineSet
EndChar

StartChar: uni205D
Encoding: 8285 8285 104
Width: 487
Flags: W
LayerCount: 2
Fore
SplineSet
124 849 m 0,0,1
 124 861 124 861 197 933 c 0,2,3
 250 984 250 984 260 984 c 0,4,5
 272 984 272 984 343 912 c 0,6,7
 395 859 395 859 395 849 c 0,8,9
 395 836 395 836 323 765 c 0,10,11
 271 714 271 714 260 714 c 0,12,13
 246 714 246 714 173 790 c 0,14,15
 124 840 124 840 124 849 c 0,0,1
124 436 m 0,16,17
 124 449 124 449 198 520 c 0,18,19
 250 571 250 571 260 571 c 0,20,21
 273 571 273 571 343 500 c 0,22,23
 395 447 395 447 395 436 c 0,24,25
 395 423 395 423 323 352 c 0,26,27
 271 301 271 301 260 301 c 0,28,29
 246 301 246 301 172 379 c 0,30,31
 124 427 124 427 124 436 c 0,16,17
124 24 m 0,32,33
 124 37 124 37 198 108 c 0,34,35
 250 158 250 158 260 158 c 0,36,37
 274 158 274 158 347 82 c 0,38,39
 395 33 395 33 395 23 c 0,40,41
 395 11 395 11 323 -60 c 0,42,43
 271 -112 271 -112 260 -112 c 0,44,45
 246 -112 246 -112 172 -34 c 0,46,47
 124 15 124 15 124 24 c 0,32,33
EndSplineSet
EndChar

StartChar: uniECA3
Encoding: 60579 60579 105
Width: 0
Flags: W
LayerCount: 2
Fore
SplineSet
-768 -228 m 0,0,1
 -740 -228 -740 -228 -740 -253 c 0,2,3
 -740 -270 -740 -270 -760 -287 c 2,4,-1
 -776 -301 l 1,5,6
 -1018 -503 -1018 -503 -1209 -638 c 0,7,8
 -1337 -729 -1337 -729 -1365 -729 c 0,9,10
 -1404 -729 -1404 -729 -1417 -696 c 0,11,12
 -1421 -686 -1421 -686 -1421 -675 c 0,13,14
 -1421 -642 -1421 -642 -1377 -607 c 0,15,16
 -1367 -600 -1367 -600 -1350 -588 c 0,17,18
 -1148 -449 -1148 -449 -918 -309 c 0,19,20
 -785 -228 -785 -228 -768 -228 c 0,0,1
EndSplineSet
EndChar

StartChar: uniECA2
Encoding: 60578 60578 106
Width: 0
Flags: W
LayerCount: 2
Fore
SplineSet
-885 -681 m 0,0,1
 -925 -681 -925 -681 -937 -647 c 0,2,3
 -940 -638 -940 -638 -940 -628 c 0,4,5
 -940 -594 -940 -594 -896 -556 c 0,6,7
 -737 -424 -737 -424 -569 -302 c 0,8,9
 -465 -228 -465 -228 -448 -228 c 0,10,11
 -425 -233 -425 -233 -421 -253 c 1,12,13
 -421 -275 -421 -275 -592 -443 c 0,14,15
 -783 -630 -783 -630 -851 -672 c 0,16,17
 -860 -678 -860 -678 -865 -679 c 0,18,19
 -873 -681 -873 -681 -885 -681 c 0,0,1
EndSplineSet
EndChar

StartChar: uniECA1
Encoding: 60577 60577 107
Width: 0
Flags: W
LayerCount: 2
Fore
SplineSet
-803 -681 m 0,0,1
 -844 -681 -844 -681 -855 -646 c 0,2,3
 -858 -638 -858 -638 -858 -628 c 0,4,5
 -858 -590 -858 -590 -779 -524 c 0,6,7
 -740 -491 -740 -491 -575 -369 c 2,8,-1
 -441 -269 l 2,9,10
 -380 -228 -380 -228 -366 -228 c 0,11,12
 -343 -233 -343 -233 -339 -253 c 1,13,14
 -339 -275 -339 -275 -510 -443 c 0,15,16
 -701 -630 -701 -630 -769 -672 c 0,17,18
 -778 -678 -778 -678 -783 -679 c 0,19,20
 -791 -681 -791 -681 -803 -681 c 0,0,1
EndSplineSet
EndChar

StartChar: parenleft
Encoding: 40 40 108
Width: 731
Flags: W
LayerCount: 2
Fore
SplineSet
605 -452 m 0,0,1
 605 -495 605 -495 533 -557 c 0,2,3
 477 -605 477 -605 452 -605 c 0,4,5
 430 -605 430 -605 315 -455 c 0,6,7
 300 -435 300 -435 293 -425 c 0,8,9
 92 -144 92 -144 50 204 c 0,10,11
 41 283 41 283 41 363 c 0,12,13
 41 719 41 719 221 1055 c 0,14,15
 340 1277 340 1277 507 1428 c 0,16,17
 556 1473 556 1473 590 1478 c 0,18,19
 605 1478 605 1478 605 1463 c 0,20,21
 605 1437 605 1437 552 1377 c 2,22,-1
 502 1322 l 1,23,24
 307 1100 307 1100 239 785 c 0,25,26
 209 648 209 648 209 508 c 0,27,28
 209 104 209 104 430 -232 c 0,29,30
 500 -338 500 -338 589 -429 c 0,31,32
 605 -445 605 -445 605 -452 c 0,0,1
EndSplineSet
EndChar

StartChar: uniECD3
Encoding: 60627 60627 109
Width: 0
Flags: W
LayerCount: 2
Fore
SplineSet
-1289 -702 m 0,0,1
 -1289 -785 -1289 -785 -1226 -810 c 0,2,3
 -1212 -816 -1212 -816 -1201 -816 c 0,4,5
 -1129 -816 -1129 -816 -1040 -711 c 2,6,-1
 -1017 -684 l 2,7,8
 -956 -608 -956 -608 -860 -451 c 0,9,10
 -787 -332 -787 -332 -735 -263 c 0,11,12
 -709 -234 -709 -234 -695 -231 c 1,13,14
 -677 -236 -677 -236 -674 -255 c 0,15,16
 -674 -275 -674 -275 -798 -495 c 0,17,18
 -948 -765 -948 -765 -1064 -873 c 0,19,20
 -1171 -973 -1171 -973 -1276 -973 c 0,21,22
 -1359 -973 -1359 -973 -1405 -910 c 0,23,24
 -1437 -867 -1437 -867 -1437 -809 c 0,25,26
 -1437 -701 -1437 -701 -1340 -604 c 0,27,28
 -1279 -548 -1279 -548 -1241 -540 c 0,29,30
 -1227 -540 -1227 -540 -1227 -553 c 128,-1,31
 -1227 -566 -1227 -566 -1250 -596 c 0,32,33
 -1289 -645 -1289 -645 -1289 -702 c 0,0,1
EndSplineSet
EndChar

StartChar: uniECD2
Encoding: 60626 60626 110
Width: 0
Flags: W
LayerCount: 2
Fore
SplineSet
-869 -785 m 0,0,1
 -770 -785 -770 -785 -660 -582 c 0,2,3
 -639 -542 -639 -542 -556 -364 c 0,4,5
 -499 -240 -499 -240 -472 -231 c 0,6,7
 -469 -230 -469 -230 -466 -230 c 0,8,9
 -447 -234 -447 -234 -444 -255 c 0,10,11
 -444 -278 -444 -278 -543 -515 c 0,12,13
 -585 -615 -585 -615 -607 -659 c 0,14,15
 -715 -873 -715 -873 -848 -932 c 0,16,17
 -893 -951 -893 -951 -938 -951 c 0,18,19
 -1016 -951 -1016 -951 -1065 -890 c 0,20,21
 -1102 -844 -1102 -844 -1102 -782 c 0,22,23
 -1102 -698 -1102 -698 -1029 -601 c 0,24,25
 -976 -530 -976 -530 -936 -519 c 0,26,27
 -931 -517 -931 -517 -926 -517 c 0,28,29
 -915 -517 -915 -517 -915 -531 c 0,30,31
 -915 -555 -915 -555 -938 -584 c 0,32,33
 -967 -620 -967 -620 -967 -660 c 0,34,35
 -967 -732 -967 -732 -915 -769 c 0,36,37
 -892 -785 -892 -785 -869 -785 c 0,0,1
EndSplineSet
EndChar

StartChar: uniECD1
Encoding: 60625 60625 111
Width: 0
Flags: W
LayerCount: 2
Fore
SplineSet
-859 -708 m 0,0,1
 -859 -789 -859 -789 -809 -819 c 0,2,3
 -791 -830 -791 -830 -768 -830 c 0,4,5
 -692 -830 -692 -830 -585 -697 c 0,6,7
 -529 -628 -529 -628 -427 -463 c 0,8,9
 -350 -338 -350 -338 -295 -263 c 0,10,11
 -273 -236 -273 -236 -263 -232 c 0,12,13
 -259 -231 -259 -231 -255 -231 c 0,14,15
 -237 -236 -237 -236 -234 -255 c 0,16,17
 -234 -288 -234 -288 -382 -536 c 0,18,19
 -494 -725 -494 -725 -554 -803 c 0,20,21
 -676 -962 -676 -962 -812 -985 c 0,22,23
 -830 -988 -830 -988 -846 -988 c 0,24,25
 -927 -988 -927 -988 -974 -926 c 0,26,27
 -1008 -882 -1008 -882 -1008 -824 c 0,28,29
 -1008 -743 -1008 -743 -937 -649 c 0,30,31
 -878 -571 -878 -571 -826 -557 c 0,32,33
 -818 -555 -818 -555 -811 -555 c 0,34,35
 -796 -555 -796 -555 -796 -568 c 0,36,37
 -796 -587 -796 -587 -821 -614 c 0,38,39
 -854 -653 -854 -653 -858 -693 c 0,40,41
 -859 -700 -859 -700 -859 -708 c 0,0,1
EndSplineSet
EndChar

StartChar: uniECD0
Encoding: 60624 60624 112
Width: 0
Flags: W
LayerCount: 2
Fore
SplineSet
-487 -800 m 2,0,1
 -388 -800 -388 -800 -275 -590 c 0,2,3
 -253 -550 -253 -550 -167 -365 c 0,4,5
 -108 -239 -108 -239 -83 -230 c 0,6,7
 -80 -229 -80 -229 -77 -230 c 0,8,9
 -58 -230 -58 -230 -55 -254 c 0,10,11
 -55 -281 -55 -281 -158 -525 c 0,12,13
 -197 -620 -197 -620 -219 -663 c 0,14,15
 -345 -910 -345 -910 -486 -956 c 0,16,17
 -521 -967 -521 -967 -557 -967 c 0,18,19
 -646 -967 -646 -967 -693 -893 c 0,20,21
 -721 -850 -721 -850 -721 -795 c 0,22,23
 -721 -714 -721 -714 -649 -618 c 0,24,25
 -596 -547 -596 -547 -556 -535 c 0,26,27
 -551 -534 -551 -534 -547 -534 c 2,28,-1
 -543 -534 l 2,29,30
 -533 -534 -533 -534 -533 -546 c 0,31,32
 -533 -570 -533 -570 -559 -602 c 0,33,34
 -586 -638 -586 -638 -586 -669 c 0,35,36
 -586 -760 -586 -760 -523 -792 c 0,37,38
 -506 -800 -506 -800 -493 -800 c 2,39,-1
 -487 -800 l 2,0,1
EndSplineSet
EndChar

StartChar: uniE03C
Encoding: 57404 57404 113
Width: 1052
Flags: W
LayerCount: 2
Fore
SplineSet
581 -678 m 0,0,1
 581 -712 581 -712 519 -776 c 0,2,3
 424 -874 424 -874 308 -905 c 0,4,5
 266 -916 266 -916 227 -916 c 0,6,7
 90 -916 90 -916 4 -813 c 0,8,9
 -66 -729 -66 -729 -67 -618 c 0,10,11
 -67 -464 -67 -464 70 -277 c 0,12,13
 116 -213 116 -213 177 -149 c 2,14,-1
 193 -131 l 1,15,-1
 195 -97 l 2,16,17
 199 -3 199 -3 202 114 c 2,18,-1
 205 839 l 1,19,-1
 219 1104 l 1,20,21
 236 1323 236 1323 284 1460 c 0,22,23
 333 1602 333 1602 434 1709 c 0,24,25
 490 1767 490 1767 529 1779 c 0,26,27
 536 1782 536 1782 543 1782 c 0,28,29
 557 1782 557 1782 557 1768 c 0,30,31
 557 1749 557 1749 520 1700 c 0,32,33
 469 1633 469 1633 451 1585 c 0,34,35
 372 1374 372 1374 372 821 c 0,36,37
 372 801 372 801 372 779 c 2,38,-1
 372 699 l 1,39,40
 490 791 490 791 528 816 c 0,41,42
 642 888 642 888 753 888 c 0,43,44
 857 888 857 888 910 793 c 0,45,46
 946 731 946 731 946 645 c 0,47,48
 946 405 946 405 684 163 c 0,49,50
 627 111 627 111 468 -3 c 0,51,52
 300 -122 300 -122 229 -196 c 0,53,54
 101 -331 101 -331 101 -478 c 0,55,56
 101 -578 101 -578 167 -655 c 0,57,58
 245 -748 245 -748 363 -748 c 0,59,60
 439 -748 439 -748 505 -698 c 0,61,62
 544 -668 544 -668 557 -665 c 0,63,64
 562 -664 562 -664 568 -664 c 0,65,66
 579 -664 579 -664 581 -678 c 0,0,1
778 504 m 0,67,68
 778 619 778 619 713 681 c 0,69,70
 673 720 673 720 620 720 c 0,71,72
 613 720 613 720 607 720 c 0,73,74
 506 720 506 720 388 617 c 2,75,-1
 372 603 l 1,76,-1
 371 455 l 2,77,78
 371 254 371 254 363 49 c 0,79,80
 362 30 362 30 362 11 c 1,81,-1
 364 11 l 1,82,83
 370 17 370 17 458 75 c 0,84,85
 613 177 613 177 694 273 c 0,86,87
 778 373 778 373 778 504 c 0,67,68
EndSplineSet
EndChar

StartChar: uniE802
Encoding: 59394 59394 114
Width: 1925
Flags: W
LayerCount: 2
Fore
SplineSet
420 -16 m 0,0,1
 276 -16 276 -16 188 110 c 0,2,3
 105 228 105 228 105 407 c 0,4,5
 105 729 105 729 323 1038 c 0,6,7
 513 1305 513 1305 810 1485 c 1,8,-1
 865 1517 l 1,9,10
 1266 1740 1266 1740 1778 1777 c 0,11,12
 1851 1782 1851 1782 1928 1783 c 0,13,14
 1961 1783 1961 1783 1965 1775 c 0,15,16
 1966 1773 1966 1773 1966 1768 c 0,17,18
 1966 1745 1966 1745 1913 1680 c 0,19,20
 1896 1660 1896 1660 1891 1652 c 0,21,22
 1799 1502 1799 1502 1784 1003 c 0,23,24
 1779 855 1779 855 1779 529 c 0,25,26
 1779 316 1779 316 1803 191 c 0,27,28
 1809 159 1809 159 1809 137 c 0,29,30
 1809 95 1809 95 1737 32 c 0,31,32
 1681 -16 1681 -16 1656 -16 c 0,33,34
 1644 -16 1644 -16 1641 -2 c 0,35,36
 1641 0 1641 0 1638 16 c 0,37,38
 1620 121 1620 121 1614 225 c 1,39,-1
 1614 237 l 1,40,-1
 1589 212 l 2,41,42
 1406 29 1406 29 1197 -8 c 0,43,44
 1156 -16 1156 -16 1121 -16 c 0,45,46
 981 -16 981 -16 898 115 c 0,47,48
 871 156 871 156 852 209 c 0,49,50
 849 220 849 220 847 220 c 2,51,-1
 776 148 l 1,52,53
 601 -16 601 -16 420 -16 c 0,0,1
1296 639 m 0,54,55
 1249 638 1249 638 1214 673 c 0,56,57
 1183 703 1183 703 1169 710 c 0,58,59
 1149 720 1149 720 1123 720 c 0,60,61
 1071 720 1071 720 1046 692 c 0,62,63
 1016 657 1016 657 1000 567 c 0,64,65
 995 533 995 533 995 499 c 0,66,67
 995 381 995 381 1055 279 c 0,68,69
 1128 157 1128 157 1246 152 c 0,70,71
 1252 152 1252 152 1257 152 c 0,72,73
 1348 152 1348 152 1442 195 c 0,74,75
 1508 225 1508 225 1548 270 c 0,76,77
 1607 337 1607 337 1610 420 c 0,78,79
 1610 423 1610 423 1610 425 c 0,80,81
 1619 977 1619 977 1636 1155 c 0,82,83
 1659 1409 1659 1409 1730 1550 c 0,84,85
 1747 1583 1747 1583 1767 1614 c 1,86,87
 1765 1614 1765 1614 1765 1615 c 1,88,89
 1190 1601 1190 1601 781 1366 c 0,90,91
 567 1242 567 1242 455 1092 c 0,92,93
 309 897 309 897 279 639 c 0,94,95
 273 589 273 589 273 544 c 0,96,97
 273 368 273 368 359 255 c 0,98,99
 438 152 438 152 557 152 c 0,100,101
 649 152 649 152 723 198 c 0,102,103
 785 237 785 237 808 322 c 1,104,-1
 844 484 l 1,105,106
 884 632 884 632 998 748 c 0,107,108
 1136 888 1136 888 1267 888 c 0,109,110
 1405 888 1405 888 1422 796 c 0,111,112
 1424 785 1424 785 1424 774 c 0,113,114
 1424 705 1424 705 1364 663 c 0,115,116
 1331 640 1331 640 1296 639 c 0,54,55
EndSplineSet
EndChar

StartChar: uniE03E
Encoding: 57406 57406 115
Width: 1071
Flags: W
LayerCount: 2
Fore
SplineSet
442 871 m 0,0,1
 639 857 639 857 837 847 c 0,2,3
 891 847 891 847 921 872 c 0,4,5
 941 889 941 889 960 889 c 0,6,7
 974 889 974 889 976 874 c 0,8,9
 976 854 976 854 950 822 c 0,10,11
 918 782 918 782 910 745 c 0,12,13
 906 722 906 722 906 639 c 0,14,15
 898 -28 898 -28 888 -249 c 0,16,17
 887 -257 887 -257 887 -262 c 0,18,19
 873 -532 873 -532 818 -683 c 0,20,21
 765 -827 765 -827 663 -930 c 0,22,23
 597 -996 597 -996 561 -996 c 0,24,25
 547 -996 547 -996 547 -983 c 0,26,27
 547 -963 547 -963 602 -891 c 0,28,29
 627 -858 627 -858 633 -846 c 0,30,31
 696 -722 696 -722 713 -468 c 0,32,33
 721 -355 721 -355 730 113 c 2,34,-1
 738 497 l 2,35,36
 738 635 738 635 765 686 c 1,37,38
 741 681 741 681 713 680 c 0,39,40
 705 680 705 680 694 680 c 2,41,-1
 560 686 l 2,42,43
 512 687 512 687 386 699 c 0,44,45
 345 704 345 704 304 704 c 0,46,47
 179 704 179 704 107 649 c 0,48,49
 70 621 70 621 64 618 c 0,50,51
 54 614 54 614 43 614 c 0,52,53
 27 614 27 614 29 632 c 0,54,55
 33 669 33 669 93 729 c 0,56,57
 200 834 200 834 350 863 c 0,58,59
 395 871 395 871 442 871 c 0,0,1
EndSplineSet
EndChar

StartChar: uniED73
Encoding: 60787 60787 116
Width: 0
Flags: W
LayerCount: 2
Fore
SplineSet
-1319 -418 m 0,0,1
 -1319 -343 -1319 -343 -1249 -264 c 0,2,3
 -1176 -182 -1176 -182 -1090 -171 c 0,4,5
 -1080 -169 -1080 -169 -1069 -169 c 0,6,7
 -975 -169 -975 -169 -933 -242 c 0,8,9
 -910 -281 -910 -281 -910 -334 c 0,10,11
 -910 -408 -910 -408 -985 -488 c 0,12,13
 -1057 -564 -1057 -564 -1133 -577 c 0,14,15
 -1144 -578 -1144 -578 -1154 -578 c 0,16,17
 -1249 -578 -1249 -578 -1294 -508 c 0,18,19
 -1319 -469 -1319 -469 -1319 -418 c 0,0,1
-1023 -419 m 0,20,21
 -1023 -381 -1023 -381 -1051 -340 c 0,22,23
 -1091 -283 -1091 -283 -1162 -283 c 0,24,25
 -1187 -283 -1187 -283 -1199 -289 c 1,26,27
 -1205 -301 -1205 -301 -1205 -328 c 0,28,29
 -1205 -420 -1205 -420 -1117 -454 c 0,30,31
 -1089 -465 -1089 -465 -1068 -465 c 0,32,33
 -1033 -465 -1033 -465 -1027 -449 c 0,34,35
 -1023 -440 -1023 -440 -1023 -419 c 0,20,21
EndSplineSet
EndChar

StartChar: uniED72
Encoding: 60786 60786 117
Width: 0
Flags: W
LayerCount: 2
Fore
SplineSet
-1196 -419 m 0,0,1
 -1196 -344 -1196 -344 -1127 -265 c 0,2,3
 -1054 -183 -1054 -183 -969 -171 c 0,4,5
 -958 -169 -958 -169 -946 -169 c 0,6,7
 -852 -169 -852 -169 -810 -242 c 0,8,9
 -787 -281 -787 -281 -787 -334 c 0,10,11
 -787 -409 -787 -409 -862 -488 c 0,12,13
 -934 -565 -934 -565 -1010 -577 c 0,14,15
 -1021 -578 -1021 -578 -1031 -578 c 0,16,17
 -1128 -578 -1128 -578 -1172 -507 c 0,18,19
 -1196 -469 -1196 -469 -1196 -419 c 0,0,1
-901 -420 m 0,20,21
 -901 -382 -901 -382 -929 -341 c 0,22,23
 -968 -283 -968 -283 -1039 -283 c 0,24,25
 -1064 -283 -1064 -283 -1076 -289 c 1,26,27
 -1082 -301 -1082 -301 -1082 -328 c 0,28,29
 -1082 -420 -1082 -420 -994 -454 c 0,30,31
 -966 -465 -966 -465 -945 -465 c 0,32,33
 -910 -465 -910 -465 -904 -450 c 0,34,35
 -901 -441 -901 -441 -901 -420 c 0,20,21
EndSplineSet
EndChar

StartChar: uniE03A
Encoding: 57402 57402 118
Width: 2097
Flags: W
LayerCount: 2
Fore
SplineSet
436 592 m 1,0,1
 494 669 494 669 600 751 c 0,2,3
 777 889 777 889 918 889 c 0,4,5
 1011 889 1011 889 1090 807 c 128,-1,6
 1169 725 1169 725 1188 601 c 1,7,8
 1302 734 1302 734 1432 815 c 0,9,10
 1551 889 1551 889 1649 889 c 0,11,12
 1709 889 1709 889 1776 846 c 0,13,14
 1908 761 1908 761 1908 579 c 0,15,16
 1908 368 1908 368 1703 151 c 1,17,-1
 1730 150 l 2,18,19
 1904 146 1904 146 2012 16 c 0,20,21
 2087 -74 2087 -74 2087 -198 c 0,22,23
 2087 -326 2087 -326 1989 -456 c 0,24,25
 1879 -603 1879 -603 1707 -662 c 0,26,27
 1615 -694 1615 -694 1517 -694 c 0,28,29
 1370 -694 1370 -694 1251 -625 c 0,30,31
 1164 -575 1164 -575 1132 -505 c 0,32,33
 1112 -461 1112 -461 1112 -426 c 0,34,35
 1112 -355 1112 -355 1182 -272 c 1,36,37
 1245 -205 1245 -205 1287 -198 c 0,38,39
 1303 -198 1303 -198 1303 -214 c 0,40,41
 1303 -234 1303 -234 1281 -263 c 0,42,43
 1262 -287 1262 -287 1262 -306 c 0,44,45
 1262 -415 1262 -415 1402 -491 c 0,46,47
 1446 -514 1446 -514 1488 -526 c 0,48,49
 1559 -545 1559 -545 1640 -545 c 0,50,51
 1723 -545 1723 -545 1807 -514 c 0,52,53
 1866 -492 1866 -492 1893 -460 c 0,54,55
 1935 -405 1935 -405 1937 -312 c 0,56,57
 1937 -166 1937 -166 1819 -74 c 0,58,59
 1745 -16 1745 -16 1654 -2 c 0,60,61
 1615 4 1615 4 1022 9 c 0,62,63
 954 10 954 10 916 10 c 0,64,65
 568 10 568 10 318 -11 c 0,66,67
 254 -16 254 -16 211 -16 c 0,68,69
 197 -16 197 -16 197 -1 c 0,70,71
 197 23 197 23 216 45 c 0,72,73
 247 79 247 79 257 130 c 0,74,75
 261 150 261 150 263 174 c 0,76,77
 268 243 268 243 268 542 c 0,78,79
 268 703 268 703 199 703 c 0,80,81
 153 703 153 703 119 676 c 0,82,83
 93 655 93 655 71 654 c 0,84,85
 57 654 57 654 57 669 c 0,86,87
 57 712 57 712 128 775 c 0,88,89
 214 852 214 852 301 868 c 0,90,91
 318 871 318 871 333 871 c 0,92,93
 409 871 409 871 428 771 c 0,94,95
 436 729 436 729 436 662 c 2,96,-1
 436 592 l 1,0,1
1025 388 m 0,97,98
 1025 544 1025 544 934 644 c 0,99,100
 880 704 880 704 814 717 c 0,101,102
 803 720 803 720 782 720 c 0,103,104
 777 720 777 720 771 720 c 2,105,-1
 758 720 l 1,106,107
 643 709 643 709 552 615 c 0,108,109
 444 503 444 503 432 325 c 0,110,111
 425 221 425 221 392 161 c 1,112,113
 440 247 440 247 379 137 c 1,114,-1
 382 137 l 1,115,-1
 598 150 l 2,116,117
 701 154 701 154 847 158 c 0,118,119
 946 160 946 160 965 181 c 0,120,121
 967 183 967 183 969 186 c 0,122,123
 1025 273 1025 273 1025 388 c 0,97,98
1070 160 m 1,124,-1
 1520 154 l 2,125,126
 1624 154 1624 154 1677 230 c 0,127,128
 1687 245 1687 245 1698 267 c 0,129,130
 1740 350 1740 350 1740 437 c 0,131,132
 1740 572 1740 572 1654 657 c 0,133,134
 1605 706 1605 706 1544 718 c 0,135,136
 1528 720 1528 720 1515 720 c 0,137,138
 1508 721 1508 721 1501 721 c 2,139,-1
 1480 719 l 1,140,141
 1317 694 1317 694 1221 503 c 0,142,143
 1204 469 1204 469 1155 343 c 0,144,145
 1143 312 1143 312 1134 295 c 0,146,147
 1100 229 1100 229 1043 160 c 1,148,-1
 1070 160 l 1,124,-1
EndSplineSet
EndChar

StartChar: uniE067
Encoding: 57447 57447 119
Width: 1009
Flags: W
LayerCount: 2
Fore
SplineSet
107 1298 m 2,0,1
 107 1330 107 1330 165 1389 c 0,2,3
 250 1476 250 1476 345 1495 c 0,4,5
 363 1498 363 1498 384 1498 c 2,6,-1
 385 1498 l 1,7,8
 465 1493 465 1493 482 1374 c 1,9,10
 535 1427 535 1427 609 1451 c 0,11,12
 644 1463 644 1463 676 1463 c 0,13,14
 758 1463 758 1463 775 1355 c 0,15,16
 777 1339 777 1339 779 1319 c 0,17,18
 780 1304 780 1304 780 1150 c 0,19,20
 780 481 780 481 699 241 c 0,21,22
 642 69 642 69 451 -100 c 0,23,24
 428 -120 428 -120 287 -235 c 0,25,26
 177 -324 177 -324 149 -376 c 0,27,28
 139 -394 139 -394 136 -412 c 0,29,30
 135 -419 135 -419 135 -426 c 0,31,32
 135 -492 135 -492 191 -525 c 0,33,34
 221 -543 221 -543 259 -543 c 0,35,36
 303 -543 303 -543 344 -510 c 0,37,38
 376 -484 376 -484 395 -482 c 0,39,40
 398 -481 398 -481 401 -481 c 0,41,42
 416 -481 416 -481 416 -494 c 0,43,44
 416 -535 416 -535 344 -601 c 0,45,46
 255 -685 255 -685 164 -706 c 0,47,48
 142 -711 142 -711 122 -711 c 0,49,50
 32 -711 32 -711 -10 -645 c 0,51,52
 -32 -610 -32 -610 -32 -566 c 0,53,54
 -32 -473 -32 -473 73 -346 c 2,55,-1
 155 -249 l 2,56,57
 165 -236 165 -236 171 -225 c 0,58,59
 265 -58 265 -58 296 340 c 0,60,61
 317 617 317 617 317 1115 c 0,62,63
 317 1272 317 1272 289 1309 c 0,64,65
 273 1330 273 1330 243 1330 c 0,66,67
 203 1330 203 1330 167 1302 c 0,68,69
 140 1281 140 1281 120 1281 c 0,70,71
 107 1281 107 1281 107 1294 c 2,72,-1
 107 1298 l 2,0,1
613 1048 m 0,73,74
 613 1227 613 1227 590 1268 c 0,75,76
 574 1295 574 1295 534 1295 c 0,77,78
 508 1295 508 1295 490 1285 c 0,79,80
 487 1283 487 1283 485 1283 c 2,81,-1
 485 1245 l 2,82,83
 485 569 485 569 447 287 c 0,84,85
 418 67 418 67 348 -93 c 1,86,-1
 368 -77 l 2,87,88
 477 13 477 13 512 73 c 0,89,90
 539 121 539 121 561 231 c 0,91,92
 601 439 601 439 609 725 c 0,93,94
 613 859 613 859 613 1048 c 0,73,74
EndSplineSet
EndChar

StartChar: parenright
Encoding: 41 41 120
Width: 731
Flags: W
LayerCount: 2
Fore
SplineSet
90 1324 m 0,0,1
 90 1366 90 1366 162 1429 c 0,2,3
 218 1478 218 1478 243 1478 c 0,4,5
 261 1478 261 1478 353 1363 c 0,6,7
 585 1076 585 1076 640 706 c 0,8,9
 654 606 654 606 654 506 c 0,10,11
 654 5 654 5 322 -408 c 0,12,13
 273 -469 273 -469 218 -526 c 0,14,15
 142 -605 142 -605 105 -605 c 0,16,17
 90 -605 90 -605 90 -591 c 0,18,19
 90 -565 90 -565 144 -505 c 2,20,-1
 193 -450 l 2,21,22
 388 -227 388 -227 456 86 c 0,23,24
 486 223 486 223 486 362 c 0,25,26
 486 789 486 789 245 1133 c 0,27,28
 183 1222 183 1222 106 1301 c 0,29,30
 90 1318 90 1318 90 1324 c 0,0,1
EndSplineSet
EndChar

StartChar: uniECA0
Encoding: 60576 60576 121
Width: 0
Flags: W
LayerCount: 2
Fore
SplineSet
-505 -707 m 0,0,1
 -540 -707 -540 -707 -554 -676 c 0,2,3
 -559 -665 -559 -665 -559 -652 c 0,4,5
 -559 -618 -559 -618 -498 -550 c 0,6,7
 -476 -524 -476 -524 -381 -425 c 0,8,9
 -233 -273 -233 -273 -187 -232 c 0,10,11
 -181 -226 -181 -226 -167 -226 c 0,12,13
 -144 -231 -144 -231 -141 -252 c 0,14,15
 -141 -272 -141 -272 -287 -474 c 0,16,17
 -410 -645 -410 -645 -452 -684 c 0,18,19
 -478 -707 -478 -707 -505 -707 c 0,0,1
EndSplineSet
EndChar

StartChar: uniEBE0
Encoding: 60384 60384 122
Width: 784
Flags: W
LayerCount: 2
Fore
SplineSet
-579 0 m 2,0,1
 -610 0 -610 0 -613 8 c 0,2,3
 -614 11 -614 11 -614 15 c 0,4,5
 -614 44 -614 44 -571 92 c 0,6,7
 -540 126 -540 126 -507 141 c 0,8,9
 -479 154 -479 154 -285 154 c 1,10,-1
 -211 156 l 2,11,12
 -130 156 -130 156 -96 172 c 0,13,14
 -54 191 -54 191 23 274 c 0,15,16
 159 426 159 426 277 477 c 0,17,18
 339 504 339 504 400 504 c 0,19,20
 550 504 550 504 657 389 c 0,21,22
 766 273 766 273 776 98 c 1,23,-1
 776 68 l 2,24,25
 776 -134 776 -134 639 -291 c 0,26,27
 537 -409 537 -409 406 -450 c 0,28,29
 359 -465 359 -465 316 -465 c 0,30,31
 167 -465 167 -465 100 -348 c 0,32,33
 70 -295 70 -295 70 -251 c 0,34,35
 70 -148 70 -148 160 -58 c 0,36,37
 211 -7 211 -7 245 -1 c 1,38,-1
 249 -1 l 2,39,40
 266 -1 266 -1 266 -17 c 0,41,42
 266 -38 266 -38 245 -65 c 0,43,44
 220 -97 220 -97 220 -130 c 0,45,46
 220 -181 220 -181 258 -233 c 0,47,48
 317 -315 317 -315 431 -315 c 0,49,50
 537 -315 537 -315 582 -238 c 0,51,52
 593 -221 593 -221 603 -195 c 0,53,54
 627 -129 627 -129 627 -53 c 0,55,56
 627 112 627 112 530 232 c 0,57,58
 452 327 452 327 349 348 c 0,59,60
 319 354 319 354 289 354 c 0,61,62
 229 354 229 354 187 332 c 0,63,64
 157 316 157 316 83 237 c 0,65,66
 -19 129 -19 129 -83 84 c 0,67,68
 -180 15 -180 15 -278 7 c 1,69,-1
 -340 6 l 1,70,-1
 -341 6 l 1,71,-1
 -579 0 l 2,0,1
EndSplineSet
EndChar

StartChar: uniEBDA
Encoding: 60378 60378 123
Width: 1218
Flags: W
LayerCount: 2
Fore
SplineSet
238 751 m 1,0,-1
 -221 740 l 2,1,2
 -244 740 -244 740 -246 748 c 0,3,4
 -248 751 -248 751 -248 756 c 0,5,6
 -248 798 -248 798 -180 854 c 0,7,8
 -146 882 -146 882 -125 888 c 1,9,-1
 252 899 l 2,10,11
 299 900 299 900 341 900 c 0,12,13
 561 900 561 900 675 867 c 0,14,15
 885 806 885 806 945 612 c 0,16,17
 961 560 961 560 961 507 c 0,18,19
 961 383 961 383 872 254 c 0,20,21
 774 110 774 110 627 54 c 0,22,23
 552 26 552 26 474 26 c 0,24,25
 365 26 365 26 268 90 c 0,26,27
 152 166 152 166 146 282 c 1,28,-1
 146 294 l 2,29,30
 146 391 146 391 233 476 c 0,31,32
 284 526 284 526 320 530 c 0,33,34
 337 530 337 530 337 514 c 0,35,36
 337 495 337 495 316 469 c 0,37,38
 295 441 295 441 295 412 c 0,39,40
 295 332 295 332 369 262 c 0,41,42
 464 177 464 177 593 175 c 0,43,44
 676 175 676 175 735 210 c 0,45,46
 747 217 747 217 756 225 c 0,47,48
 798 261 798 261 809 363 c 0,49,50
 810 377 810 377 810 389 c 0,51,52
 810 513 810 513 726 611 c 0,53,54
 651 698 651 698 536 724 c 0,55,56
 430 751 430 751 238 751 c 1,0,-1
EndSplineSet
EndChar

StartChar: uniEBF8
Encoding: 60408 60408 124
Width: 905
Flags: W
LayerCount: 2
Fore
SplineSet
-372 149 m 2,0,-1
 -46 142 l 1,1,-1
 -39 142 l 1,2,-1
 -24 172 l 2,3,4
 88 400 88 400 261 541 c 0,5,6
 432 680 432 680 604 680 c 0,7,8
 736 680 736 680 778 561 c 0,9,10
 792 519 792 519 792 472 c 0,11,12
 792 328 792 328 669 195 c 0,13,14
 594 115 594 115 496 64 c 0,15,16
 352 -8 352 -8 65 -12 c 2,17,-1
 13 -13 l 1,18,-1
 -84 -306 l 1,19,20
 -159 -512 -159 -512 -251 -650 c 0,21,22
 -347 -793 -347 -793 -468 -888 c 0,23,24
 -548 -951 -548 -951 -624 -977 c 0,25,26
 -675 -995 -675 -995 -726 -995 c 0,27,28
 -828 -995 -828 -995 -880 -933 c 0,29,30
 -911 -896 -911 -896 -911 -850 c 0,31,32
 -911 -779 -911 -779 -836 -723 c 0,33,34
 -797 -694 -797 -694 -776 -694 c 0,35,36
 -760 -694 -760 -694 -760 -714 c 0,37,38
 -761 -725 -761 -725 -761 -733 c 0,39,40
 -761 -792 -761 -792 -699 -825 c 0,41,42
 -659 -846 -659 -846 -609 -846 c 0,43,44
 -499 -846 -499 -846 -406 -733 c 0,45,46
 -328 -639 -328 -639 -264 -481 c 0,47,48
 -220 -374 -220 -374 -163 -199 c 0,49,50
 -120 -63 -120 -63 -101 -10 c 1,51,52
 -359 -2 -359 -2 -405 -1 c 0,53,54
 -449 0 -449 0 -497 0 c 2,55,-1
 -551 0 l 2,56,57
 -607 0 -607 0 -611 7 c 0,58,59
 -613 10 -613 10 -613 16 c 0,60,61
 -613 45 -613 45 -569 93 c 0,62,63
 -538 126 -538 126 -506 141 c 0,64,65
 -490 149 -490 149 -462 149 c 0,66,67
 -452 149 -452 149 -422 149 c 0,68,69
 -400 149 -400 149 -372 149 c 2,0,-1
643 353 m 0,70,71
 643 436 643 436 595 488 c 0,72,73
 556 531 556 531 494 531 c 0,74,75
 306 531 306 531 182 359 c 0,76,77
 131 289 131 289 87 187 c 0,78,79
 67 143 67 143 67 138 c 1,80,-1
 101 138 l 2,81,82
 416 138 416 138 527 181 c 0,83,84
 624 219 624 219 639 310 c 0,85,86
 643 330 643 330 643 353 c 0,70,71
EndSplineSet
EndChar

StartChar: uniEBF9
Encoding: 60409 60409 125
Width: 1218
Flags: W
LayerCount: 2
Fore
SplineSet
-361 -707 m 2,0,-1
 -362 -740 l 2,1,2
 -362 -772 -362 -772 -332 -811 c 0,3,4
 -279 -876 -279 -876 -177 -876 c 0,5,6
 -64 -876 -64 -876 18 -787 c 0,7,8
 133 -662 133 -662 227 -375 c 1,9,-1
 334 -27 l 1,10,-1
 351 26 l 2,11,12
 349 28 349 28 308 28 c 0,13,14
 59 36 59 36 -200 36 c 2,15,-1
 -323 36 l 1,16,17
 -335 41 -335 41 -336 48 c 2,18,-1
 -336 54 l 1,19,20
 -332 100 -332 100 -265 154 c 0,21,22
 -244 170 -244 170 -230 177 c 128,-1,23
 -216 184 -216 184 -196 185 c 0,24,25
 -185 185 -185 185 -155 185 c 2,26,-1
 -99 185 l 2,27,28
 -75 185 -75 185 -47 185 c 0,29,30
 165 185 165 185 411 178 c 1,31,-1
 429 214 l 2,32,33
 557 465 557 465 743 602 c 0,34,35
 901 718 901 718 1063 718 c 0,36,37
 1165 718 1165 718 1213 633 c 0,38,39
 1244 581 1244 581 1244 507 c 0,40,41
 1244 374 1244 374 1133 246 c 0,42,43
 989 79 989 79 742 40 c 0,44,45
 647 25 647 25 519 25 c 2,46,-1
 466 24 l 1,47,-1
 416 -142 l 2,48,49
 306 -515 306 -515 188 -690 c 0,50,51
 150 -746 150 -746 92 -811 c 0,52,53
 -102 -1026 -102 -1026 -294 -1026 c 0,54,55
 -407 -1026 -407 -1026 -469 -959 c 0,56,57
 -511 -914 -511 -914 -511 -851 c 0,58,59
 -511 -817 -511 -817 -502 -798 c 0,60,61
 -479 -752 -479 -752 -426 -714 c 0,62,63
 -395 -692 -395 -692 -377 -692 c 0,64,65
 -362 -692 -362 -692 -361 -707 c 2,0,-1
1094 387 m 0,66,67
 1094 494 1094 494 1028 543 c 0,68,69
 994 568 994 568 950 568 c 0,70,71
 759 568 759 568 634 397 c 0,72,73
 595 343 595 343 560 271 c 0,74,75
 519 189 519 189 519 175 c 1,76,-1
 553 175 l 2,77,78
 874 175 874 175 989 223 c 0,79,80
 1026 238 1026 238 1051 260 c 0,81,82
 1089 292 1089 292 1094 376 c 0,83,84
 1094 382 1094 382 1094 387 c 0,66,67
EndSplineSet
EndChar

StartChar: uniE801
Encoding: 59393 59393 126
Width: 2107
Flags: W
LayerCount: 2
Fore
SplineSet
638 846 m 0,0,1
 952 846 952 846 1005 857 c 0,2,3
 1008 857 1008 857 1011 953 c 0,4,5
 1017 1179 1017 1179 1058 1365 c 0,6,7
 1097 1539 1097 1539 1194 1660 c 0,8,9
 1265 1749 1265 1749 1319 1775 c 0,10,11
 1333 1782 1333 1782 1343 1782 c 0,12,13
 1357 1782 1357 1782 1357 1767 c 0,14,15
 1357 1744 1357 1744 1332 1714 c 0,16,17
 1285 1660 1285 1660 1261 1602 c 0,18,19
 1223 1512 1223 1512 1202 1363 c 0,20,21
 1181 1224 1181 1224 1174 997 c 1,22,-1
 1172 602 l 1,23,-1
 1172 601 l 1,24,-1
 1172 579 l 1,25,-1
 1227 637 l 1,26,-1
 1248 657 l 1,27,28
 1399 795 1399 795 1550 855 c 0,29,30
 1635 888 1635 888 1709 888 c 0,31,32
 1824 888 1824 888 1909 803 c 0,33,34
 2001 711 2001 711 2017 574 c 0,35,36
 2019 552 2019 552 2019 530 c 0,37,38
 2019 360 2019 360 1895 200 c 0,39,40
 1793 69 1793 69 1660 12 c 0,41,42
 1594 -16 1594 -16 1534 -16 c 0,43,44
 1430 -16 1430 -16 1394 39 c 0,45,46
 1379 61 1379 61 1379 91 c 0,47,48
 1379 143 1379 143 1422 186 c 0,49,50
 1461 224 1461 224 1515 224 c 0,51,52
 1552 224 1552 224 1594 190 c 0,53,54
 1635 159 1635 159 1659 154 c 0,55,56
 1668 152 1668 152 1678 152 c 0,57,58
 1737 152 1737 152 1779 179 c 2,59,-1
 1785 183 l 2,60,61
 1813 203 1813 203 1836 285 c 0,62,63
 1851 340 1851 340 1851 390 c 0,64,65
 1851 560 1851 560 1726 664 c 0,66,67
 1658 721 1658 721 1573 721 c 0,68,69
 1465 721 1465 721 1355 651 c 0,70,71
 1216 562 1216 562 1178 421 c 0,72,73
 1169 385 1169 385 1167 348 c 0,74,75
 1164 283 1164 283 1160 -42 c 0,76,77
 1157 -259 1157 -259 1143 -391 c 0,78,79
 1117 -639 1117 -639 1041 -779 c 0,80,81
 1014 -829 1014 -829 976 -877 c 0,82,83
 882 -991 882 -991 828 -996 c 0,84,85
 814 -996 814 -996 814 -982 c 0,86,87
 814 -958 814 -958 839 -930 c 0,88,89
 883 -880 883 -880 905 -833 c 0,90,91
 952 -730 952 -730 974 -540 c 0,92,93
 997 -348 997 -348 999 207 c 0,94,95
 999 221 999 221 999 233 c 2,96,-1
 999 242 l 1,97,-1
 981 224 l 2,98,99
 753 1 753 1 498 -15 c 0,100,101
 480 -16 480 -16 462 -16 c 0,102,103
 335 -16 335 -16 248 81 c 128,-1,104
 161 178 161 178 161 315 c 0,105,106
 161 508 161 508 332 699 c 1,107,-1
 323 700 l 1,108,109
 129 700 129 700 94 769 c 0,110,111
 85 788 85 788 85 815 c 0,112,113
 85 875 85 875 152 940 c 0,114,115
 201 986 201 986 231 986 c 0,116,117
 249 986 249 986 249 969 c 0,118,119
 249 958 249 958 233 928 c 1,120,121
 245 886 245 886 277 871 c 0,122,123
 325 849 325 849 521 846 c 0,124,125
 568 846 568 846 638 846 c 0,0,1
1000 725 m 1,126,127
 992 709 992 709 701 698 c 0,128,129
 639 696 639 696 604 696 c 0,130,131
 420 696 420 696 394 662 c 0,132,133
 333 584 333 584 329 468 c 0,134,135
 328 462 328 462 328 457 c 0,136,137
 328 328 328 328 409 240 c 0,138,139
 417 230 417 230 426 222 c 0,140,141
 502 152 502 152 599 152 c 0,142,143
 708 152 708 152 808 196 c 0,144,145
 932 252 932 252 971 324 c 0,146,147
 1002 381 1002 381 1004 507 c 0,148,149
 1004 524 1004 524 1004 601 c 0,150,151
 1004 651 1004 651 1004 679 c 0,152,153
 1004 725 1004 725 1003 725 c 2,154,-1
 1000 725 l 1,126,127
EndSplineSet
EndChar

StartChar: uniE800
Encoding: 59392 59392 127
Width: 2037
Flags: W
LayerCount: 2
Fore
SplineSet
590 639 m 256,0,1
 553 639 553 639 510 676 c 0,2,3
 470 711 470 711 448 718 c 0,4,5
 436 721 436 721 424 721 c 0,6,7
 366 721 366 721 321 693 c 0,8,9
 312 687 312 687 308 682 c 0,10,11
 253 610 253 610 248 498 c 1,12,-1
 248 486 l 2,13,14
 248 332 248 332 349 231 c 0,15,16
 427 152 427 152 532 152 c 0,17,18
 626 152 626 152 735 195 c 0,19,20
 832 234 832 234 880 293 c 0,21,22
 929 355 929 355 934 464 c 0,23,24
 934 465 934 465 934 607 c 0,25,26
 934 1075 934 1075 972 1288 c 0,27,28
 979 1325 979 1325 988 1365 c 0,29,30
 1026 1538 1026 1538 1123 1660 c 0,31,32
 1213 1773 1213 1773 1267 1781 c 0,33,34
 1270 1782 1270 1782 1272 1782 c 0,35,36
 1287 1782 1287 1782 1287 1767 c 0,37,38
 1287 1748 1287 1748 1263 1718 c 0,39,40
 1210 1654 1210 1654 1181 1572 c 0,41,42
 1114 1383 1114 1383 1104 997 c 0,43,44
 1101 910 1101 910 1101 579 c 1,45,-1
 1166 645 l 1,46,47
 1319 790 1319 790 1483 856 c 0,48,49
 1567 888 1567 888 1638 888 c 0,50,51
 1754 888 1754 888 1839 803 c 0,52,53
 1931 711 1931 711 1947 574 c 0,54,55
 1949 552 1949 552 1949 530 c 0,56,57
 1949 356 1949 356 1821 196 c 0,58,59
 1718 66 1718 66 1586 11 c 0,60,61
 1521 -16 1521 -16 1464 -16 c 0,62,63
 1358 -16 1358 -16 1322 40 c 0,64,65
 1309 61 1309 61 1309 90 c 0,66,67
 1309 146 1309 146 1355 188 c 0,68,69
 1394 224 1394 224 1444 224 c 0,70,71
 1482 224 1482 224 1524 190 c 0,72,73
 1563 159 1563 159 1587 154 c 0,74,75
 1597 152 1597 152 1607 152 c 0,76,77
 1719 152 1719 152 1754 247 c 0,78,79
 1779 312 1779 312 1780 390 c 0,80,81
 1780 517 1780 517 1706 613 c 0,82,83
 1683 642 1683 642 1655 664 c 0,84,85
 1584 721 1584 721 1502 721 c 0,86,87
 1396 721 1396 721 1286 650 c 0,88,89
 1148 561 1148 561 1109 419 c 0,90,91
 1099 385 1099 385 1097 348 c 0,92,93
 1092 280 1092 280 1092 -6 c 0,94,95
 1091 -357 1091 -357 1049 -549 c 0,96,97
 1005 -754 1005 -754 906 -877 c 0,98,99
 826 -977 826 -977 771 -994 c 0,100,101
 764 -996 764 -996 758 -996 c 0,102,103
 744 -996 744 -996 744 -982 c 0,104,105
 744 -963 744 -963 798 -891 c 0,106,107
 825 -854 825 -854 831 -841 c 0,108,109
 892 -717 892 -717 908 -482 c 0,110,111
 915 -384 915 -384 925 52 c 2,112,-1
 929 233 l 1,113,-1
 929 242 l 1,114,-1
 912 225 l 1,115,116
 702 23 702 23 465 -11 c 0,117,118
 427 -16 427 -16 392 -16 c 0,119,120
 272 -16 272 -16 184 75 c 0,121,122
 118 143 118 143 91 248 c 0,123,124
 80 293 80 293 80 342 c 0,125,126
 80 508 80 508 200 666 c 0,127,128
 301 800 301 800 433 858 c 0,129,130
 502 888 502 888 564 888 c 0,131,132
 714 888 714 888 723 785 c 0,133,134
 724 779 724 779 724 772 c 0,135,136
 724 706 724 706 663 664 c 0,137,138
 627 639 627 639 590 639 c 256,0,1
EndSplineSet
EndChar

StartChar: uniED71
Encoding: 60785 60785 128
Width: 0
Flags: W
LayerCount: 2
Fore
SplineSet
-831 -413 m 0,0,1
 -831 -341 -831 -341 -761 -264 c 0,2,3
 -687 -183 -687 -183 -604 -171 c 0,4,5
 -593 -169 -593 -169 -582 -169 c 0,6,7
 -493 -169 -493 -169 -448 -237 c 0,8,9
 -422 -277 -422 -277 -422 -328 c 0,10,11
 -422 -412 -422 -412 -502 -493 c 0,12,13
 -573 -566 -573 -566 -648 -577 c 0,14,15
 -657 -578 -657 -578 -666 -578 c 0,16,17
 -766 -578 -766 -578 -809 -504 c 0,18,19
 -831 -466 -831 -466 -831 -413 c 0,0,1
-536 -419 m 0,20,21
 -536 -381 -536 -381 -564 -340 c 0,22,23
 -603 -283 -603 -283 -674 -283 c 0,24,25
 -708 -283 -708 -283 -714 -299 c 0,26,27
 -718 -308 -718 -308 -718 -326 c 0,28,29
 -718 -420 -718 -420 -630 -454 c 0,30,31
 -602 -465 -602 -465 -581 -465 c 0,32,33
 -546 -465 -546 -465 -540 -449 c 0,34,35
 -536 -440 -536 -440 -536 -419 c 0,20,21
EndSplineSet
EndChar

StartChar: uniED70
Encoding: 60784 60784 129
Width: 0
Flags: W
LayerCount: 2
Fore
SplineSet
-494 -410 m 4,0,1
 -494 -335 -494 -335 -427 -257 c 4,2,3
 -354 -171 -354 -171 -265 -160 c 4,4,5
 -254 -159 -254 -159 -244 -159 c 6,6,-1
 -242 -159 l 6,7,8
 -163 -159 -163 -159 -116 -220 c 4,9,10
 -84 -263 -84 -263 -84 -318 c 4,11,12
 -84 -394 -84 -394 -154 -473 c 4,13,14
 -228 -556 -228 -556 -314 -568 c 4,15,16
 -325 -569 -325 -569 -336 -569 c 4,17,18
 -416 -569 -416 -569 -463 -506 c 4,19,20
 -494 -464 -494 -464 -494 -410 c 4,0,1
-198 -407 m 4,21,22
 -198 -363 -198 -363 -230 -323 c 4,23,24
 -269 -272 -269 -272 -338 -272 c 4,25,26
 -370 -272 -370 -272 -377 -288 c 4,27,28
 -380 -297 -380 -297 -380 -316 c 4,29,30
 -380 -355 -380 -355 -353 -397 c 4,31,32
 -314 -455 -314 -455 -243 -455 c 4,33,34
 -210 -455 -210 -455 -203 -440 c 4,35,36
 -198 -430 -198 -430 -198 -407 c 4,21,22
EndSplineSet
EndChar

StartChar: uniED83
Encoding: 60803 60803 130
Width: 0
Flags: W
LayerCount: 2
Fore
SplineSet
-1241 1568 m 0,0,1
 -1241 1581 -1241 1581 -1168 1652 c 0,2,3
 -1116 1703 -1116 1703 -1105 1703 c 0,4,5
 -1092 1703 -1092 1703 -1020 1629 c 0,6,7
 -970 1578 -970 1578 -970 1568 c 0,8,9
 -970 1552 -970 1552 -1051 1477 c 0,10,11
 -1098 1433 -1098 1433 -1105 1433 c 0,12,13
 -1118 1433 -1118 1433 -1190 1506 c 0,14,15
 -1241 1557 -1241 1557 -1241 1568 c 0,0,1
-876 1568 m 0,16,17
 -876 1583 -876 1583 -800 1655 c 0,18,19
 -750 1703 -750 1703 -740 1703 c 0,20,21
 -727 1703 -727 1703 -655 1630 c 0,22,23
 -604 1578 -604 1578 -604 1568 c 0,24,25
 -604 1552 -604 1552 -686 1476 c 0,26,27
 -732 1433 -732 1433 -740 1433 c 0,28,29
 -751 1433 -751 1433 -822 1503 c 0,30,31
 -876 1557 -876 1557 -876 1568 c 0,16,17
-1058 1307 m 0,32,33
 -1058 1319 -1058 1319 -984 1391 c 0,34,35
 -933 1442 -933 1442 -923 1442 c 0,36,37
 -909 1442 -909 1442 -837 1368 c 0,38,39
 -788 1317 -788 1317 -788 1307 c 0,40,41
 -788 1294 -788 1294 -858 1225 c 0,42,43
 -911 1172 -911 1172 -923 1172 c 0,44,45
 -938 1172 -938 1172 -1013 1251 c 0,46,47
 -1058 1299 -1058 1299 -1058 1307 c 0,32,33
EndSplineSet
EndChar

StartChar: uniE06A
Encoding: 57450 57450 131
Width: 854
Flags: W
LayerCount: 2
Fore
SplineSet
195 1349 m 2,0,-1
 194 1475 l 2,1,2
 194 1506 194 1506 196 1511 c 0,3,4
 215 1566 215 1566 283 1619 c 0,5,6
 325 1651 325 1651 346 1651 c 0,7,8
 358 1651 358 1651 360 1640 c 2,9,-1
 363 1497 l 2,10,11
 363 1344 363 1344 319 1251 c 0,12,13
 294 1199 294 1199 251 1147 c 0,14,15
 194 1079 194 1079 142 1055 c 0,16,17
 129 1048 129 1048 121 1048 c 0,18,19
 108 1048 108 1048 106 1063 c 0,20,21
 106 1083 106 1083 129 1111 c 0,22,23
 169 1158 169 1158 183 1217 c 0,24,25
 195 1271 195 1271 195 1349 c 2,0,-1
508 1349 m 2,26,-1
 507 1475 l 2,27,28
 507 1506 507 1506 509 1511 c 0,29,30
 528 1566 528 1566 597 1619 c 0,31,32
 638 1651 638 1651 660 1651 c 0,33,34
 671 1651 671 1651 673 1639 c 2,35,-1
 677 1501 l 1,36,37
 677 1345 677 1345 630 1248 c 0,38,39
 605 1198 605 1198 564 1147 c 0,40,41
 515 1087 515 1087 461 1058 c 0,42,43
 444 1048 444 1048 434 1048 c 0,44,45
 423 1048 423 1048 420 1062 c 0,46,47
 420 1080 420 1080 443 1110 c 0,48,49
 487 1168 487 1168 500 1244 c 0,50,51
 508 1290 508 1290 508 1349 c 2,26,-1
EndSplineSet
EndChar

StartChar: uniE069
Encoding: 57449 57449 132
Width: 1044
Flags: W
LayerCount: 2
Fore
SplineSet
743 678 m 0,0,1
 817 678 817 678 858 714 c 0,2,3
 883 736 883 736 895 740 c 0,4,5
 902 742 902 742 910 742 c 0,6,7
 923 742 923 742 923 728 c 0,8,9
 922 700 922 700 874 649 c 0,10,11
 785 553 785 553 667 538 c 0,12,13
 648 536 648 536 629 536 c 0,14,15
 584 536 584 536 412 568 c 0,16,17
 319 585 319 585 285 585 c 0,18,19
 217 585 217 585 161 545 c 0,20,21
 129 522 129 522 115 522 c 0,22,23
 104 522 104 522 102 532 c 0,24,25
 102 559 102 559 146 609 c 0,26,27
 230 706 230 706 352 723 c 0,28,29
 374 726 374 726 396 726 c 0,30,31
 460 726 460 726 593 698 c 0,32,33
 689 678 689 678 743 678 c 0,0,1
401 413 m 0,34,35
 457 413 457 413 596 384 c 0,36,37
 690 365 690 365 738 365 c 0,38,39
 818 365 818 365 855 399 c 0,40,41
 878 421 878 421 889 424 c 0,42,43
 898 428 898 428 910 428 c 0,44,45
 923 428 923 428 923 415 c 0,46,47
 922 387 922 387 874 336 c 0,48,49
 785 240 785 240 667 225 c 0,50,51
 648 223 648 223 629 223 c 0,52,53
 564 223 564 223 432 251 c 0,54,55
 337 271 337 271 284 271 c 0,56,57
 215 271 215 271 161 231 c 0,58,59
 130 209 130 209 115 209 c 0,60,61
 104 209 104 209 102 218 c 0,62,63
 102 247 102 247 147 298 c 0,64,65
 233 395 233 395 358 411 c 0,66,67
 379 413 379 413 401 413 c 0,34,35
EndSplineSet
EndChar

StartChar: uni60AD
Encoding: 24749 24749 133
Width: 0
Flags: W
LayerCount: 2
Fore
SplineSet
-962 1568 m 0,0,1
 -962 1583 -962 1583 -887 1655 c 0,2,3
 -837 1703 -837 1703 -827 1703 c 0,4,5
 -814 1703 -814 1703 -742 1630 c 0,6,7
 -691 1578 -691 1578 -691 1568 c 0,8,9
 -691 1552 -691 1552 -773 1476 c 0,10,11
 -819 1433 -819 1433 -827 1433 c 0,12,13
 -838 1433 -838 1433 -909 1503 c 0,14,15
 -962 1557 -962 1557 -962 1568 c 0,0,1
-596 1568 m 0,16,17
 -596 1582 -596 1582 -522 1654 c 0,18,19
 -471 1703 -471 1703 -461 1703 c 0,20,21
 -448 1703 -448 1703 -376 1629 c 0,22,23
 -326 1578 -326 1578 -326 1568 c 0,24,25
 -326 1552 -326 1552 -407 1477 c 0,26,27
 -454 1433 -454 1433 -461 1433 c 0,28,29
 -473 1433 -473 1433 -542 1501 c 0,30,31
 -596 1556 -596 1556 -596 1568 c 0,16,17
-779 1307 m 0,32,33
 -779 1321 -779 1321 -706 1392 c 0,34,35
 -655 1442 -655 1442 -644 1442 c 0,36,37
 -631 1442 -631 1442 -561 1370 c 0,38,39
 -509 1317 -509 1317 -509 1305 c 0,40,41
 -509 1295 -509 1295 -577 1227 c 0,42,43
 -632 1172 -632 1172 -644 1172 c 0,44,45
 -660 1172 -660 1172 -732 1247 c 0,46,47
 -779 1297 -779 1297 -779 1307 c 0,32,33
EndSplineSet
EndChar

StartChar: uniE07C
Encoding: 57468 57468 134
Width: 1167
Flags: W
LayerCount: 2
Fore
SplineSet
804 206 m 0,0,1
 804 174 804 174 753 122 c 0,2,3
 661 26 661 26 525 6 c 0,4,5
 493 1 493 1 461 1 c 0,6,7
 290 1 290 1 169 120 c 0,8,9
 66 221 66 221 59 365 c 1,10,-1
 59 383 l 2,11,12
 59 518 59 518 162 659 c 0,13,14
 266 803 266 803 416 868 c 0,15,16
 506 906 506 906 595 906 c 0,17,18
 793 906 793 906 915 773 c 0,19,20
 1035 641 1035 641 1035 430 c 0,21,22
 1035 348 1035 348 1022 259 c 0,23,24
 963 -142 963 -142 631 -556 c 0,25,26
 529 -683 529 -683 417 -791 c 0,27,28
 357 -849 357 -849 325 -849 c 0,29,30
 310 -849 310 -849 310 -834 c 0,31,32
 310 -802 310 -802 377 -733 c 0,33,34
 867 -231 867 -231 867 292 c 0,35,36
 867 498 867 498 746 623 c 0,37,38
 634 738 634 738 462 738 c 0,39,40
 331 738 331 738 276 682 c 0,41,42
 264 670 264 670 257 655 c 0,43,44
 228 597 228 597 228 522 c 0,45,46
 228 398 228 398 312 299 c 0,47,48
 392 205 392 205 518 178 c 0,49,50
 559 169 559 169 599 169 c 0,51,52
 674 169 674 169 749 206 c 0,53,54
 779 221 779 221 791 221 c 0,55,56
 804 221 804 221 804 206 c 0,0,1
EndSplineSet
EndChar

StartChar: uniED81
Encoding: 60801 60801 135
Width: 0
Flags: W
LayerCount: 2
Fore
SplineSet
-874 1568 m 0,0,1
 -874 1583 -874 1583 -799 1655 c 0,2,3
 -749 1703 -749 1703 -739 1703 c 0,4,5
 -726 1703 -726 1703 -654 1630 c 0,6,7
 -603 1578 -603 1578 -603 1568 c 0,8,9
 -603 1552 -603 1552 -685 1476 c 0,10,11
 -731 1433 -731 1433 -739 1433 c 0,12,13
 -750 1433 -750 1433 -822 1505 c 0,14,15
 -874 1557 -874 1557 -874 1568 c 0,0,1
-508 1568 m 0,16,17
 -508 1582 -508 1582 -434 1654 c 0,18,19
 -383 1703 -383 1703 -373 1703 c 0,20,21
 -360 1703 -360 1703 -288 1629 c 0,22,23
 -238 1578 -238 1578 -238 1568 c 0,24,25
 -238 1552 -238 1552 -319 1477 c 0,26,27
 -366 1433 -366 1433 -373 1433 c 0,28,29
 -385 1433 -385 1433 -454 1501 c 0,30,31
 -508 1556 -508 1556 -508 1568 c 0,16,17
-691 1307 m 1,32,-1
 -690 1315 l 1,33,34
 -683 1327 -683 1327 -613 1395 c 0,35,36
 -565 1442 -565 1442 -556 1442 c 0,37,38
 -542 1442 -542 1442 -469 1365 c 0,39,40
 -421 1315 -421 1315 -421 1306 c 0,41,42
 -421 1295 -421 1295 -489 1227 c 0,43,44
 -544 1172 -544 1172 -556 1172 c 0,45,46
 -577 1172 -577 1172 -690 1299 c 1,47,-1
 -691 1307 l 1,32,-1
EndSplineSet
EndChar

StartChar: uniEC1F
Encoding: 60447 60447 136
Width: 0
Flags: W
LayerCount: 2
Fore
SplineSet
-549 438 m 0,0,1
 -467 438 -467 438 -429 470 c 0,2,3
 -399 495 -399 495 -394 498 c 0,4,5
 -380 507 -380 507 -360 509 c 2,6,-1
 -358 509 l 1,7,-1
 -354 509 l 2,8,9
 -347 509 -347 509 -346 497 c 0,10,11
 -346 469 -346 469 -396 417 c 0,12,13
 -486 321 -486 321 -609 300 c 0,14,15
 -638 295 -638 295 -667 295 c 0,16,17
 -738 295 -738 295 -873 325 c 0,18,19
 -992 351 -992 351 -1064 351 c 0,20,21
 -1154 351 -1154 351 -1199 311 c 0,22,23
 -1225 287 -1225 287 -1232 284 c 0,24,25
 -1243 279 -1243 279 -1258 279 c 0,26,27
 -1271 279 -1271 279 -1271 292 c 0,28,29
 -1271 321 -1271 321 -1220 374 c 0,30,31
 -1130 468 -1130 468 -1005 489 c 0,32,33
 -977 493 -977 493 -948 493 c 0,34,35
 -874 493 -874 493 -745 464 c 0,36,37
 -627 438 -627 438 -549 438 c 0,0,1
EndSplineSet
EndChar

StartChar: quoteleft
Encoding: 8216 8216 137
Width: 436
Flags: W
LayerCount: 2
Fore
SplineSet
87 1277 m 0,0,1
 87 1426 87 1426 199 1556 c 0,2,3
 262 1629 262 1629 313 1648 c 0,4,5
 323 1651 323 1651 330 1651 c 0,6,7
 344 1651 344 1651 344 1638 c 0,8,9
 344 1618 344 1618 314 1580 c 0,10,11
 269 1523 269 1523 259 1473 c 0,12,13
 254 1449 254 1449 254 1423 c 0,14,15
 254 1305 254 1305 334 1219 c 0,16,17
 344 1208 344 1208 344 1202 c 0,18,19
 344 1159 344 1159 271 1097 c 0,20,21
 216 1048 216 1048 190 1048 c 0,22,23
 179 1048 179 1048 151 1088 c 0,24,25
 87 1176 87 1176 87 1277 c 0,0,1
EndSplineSet
EndChar

StartChar: quoteright
Encoding: 8217 8217 138
Width: 436
Flags: W
LayerCount: 2
Fore
SplineSet
91 1498 m 0,0,1
 91 1542 91 1542 163 1604 c 0,2,3
 218 1652 218 1652 243 1652 c 0,4,5
 257 1652 257 1652 288 1609 c 0,6,7
 347 1524 347 1524 348 1423 c 0,8,9
 350 1276 350 1276 237 1145 c 0,10,11
 174 1073 174 1073 121 1053 c 0,12,13
 111 1048 111 1048 104 1048 c 0,14,15
 94 1048 94 1048 90 1062 c 1,16,17
 90 1083 90 1083 120 1122 c 0,18,19
 164 1178 164 1178 175 1227 c 0,20,21
 180 1251 180 1251 180 1279 c 0,22,23
 180 1394 180 1394 101 1481 c 0,24,25
 91 1491 91 1491 91 1498 c 0,0,1
EndSplineSet
EndChar

StartChar: uni60B3
Encoding: 24755 24755 139
Width: 1157
Flags: W
LayerCount: 2
Fore
SplineSet
215 221 m 0,0,1
 141 221 141 221 111 290 c 0,2,3
 97 322 97 322 97 366 c 0,4,5
 97 548 97 548 241 704 c 0,6,7
 357 829 357 829 510 880 c 0,8,9
 580 903 580 903 642 903 c 0,10,11
 785 903 785 903 891 814 c 1,12,13
 1013 705 1013 705 1015 538 c 0,14,15
 1015 186 1015 186 667 -198 c 0,16,17
 576 -300 576 -300 363 -496 c 2,18,-1
 252 -598 l 1,19,-1
 347 -590 l 1,20,-1
 373 -590 l 2,21,22
 460 -590 460 -590 585 -611 c 2,23,-1
 648 -622 l 2,24,25
 709 -631 709 -631 755 -631 c 0,26,27
 878 -631 878 -631 979 -549 c 2,28,-1
 1045 -493 l 2,29,30
 1069 -475 1069 -475 1088 -475 c 0,31,32
 1099 -475 1099 -475 1102 -486 c 0,33,34
 1103 -488 1103 -488 1103 -490 c 0,35,36
 1103 -529 1103 -529 1023 -606 c 0,37,38
 909 -716 909 -716 771 -768 c 0,39,40
 689 -799 689 -799 618 -799 c 0,41,42
 562 -799 562 -799 431 -777 c 0,43,44
 323 -758 323 -758 243 -758 c 0,45,46
 136 -758 136 -758 57 -777 c 0,47,48
 38 -782 38 -782 25 -782 c 128,-1,49
 12 -782 12 -782 12 -769 c 0,50,51
 12 -717 12 -717 260 -495 c 2,52,-1
 316 -444 l 1,53,-1
 515 -257 l 1,54,55
 747 -25 747 -25 815 189 c 0,56,57
 848 292 848 292 848 398 c 0,58,59
 848 549 848 549 740 646 c 0,60,61
 642 735 642 735 506 735 c 0,62,63
 437 735 437 735 369 709 c 0,64,65
 327 692 327 692 311 670 c 0,66,67
 271 615 271 615 265 528 c 0,68,69
 264 518 264 518 264 509 c 0,70,71
 264 478 264 478 298 447 c 0,72,73
 333 414 333 414 342 395 c 0,74,75
 350 376 350 376 350 354 c 0,76,77
 350 315 350 315 321 274 c 0,78,79
 283 221 283 221 215 221 c 0,0,1
EndSplineSet
EndChar

StartChar: uniED4F
Encoding: 60751 60751 140
Width: 0
Flags: W
LayerCount: 2
Fore
SplineSet
-1250 1 m 0,0,1
 -1250 14 -1250 14 -1177 85 c 0,2,3
 -1124 136 -1124 136 -1114 136 c 0,4,5
 -1101 136 -1101 136 -1030 64 c 0,6,7
 -979 11 -979 11 -979 1 c 0,8,9
 -979 -11 -979 -11 -1053 -83 c 0,10,11
 -1104 -134 -1104 -134 -1114 -134 c 0,12,13
 -1128 -134 -1128 -134 -1201 -58 c 0,14,15
 -1250 -8 -1250 -8 -1250 1 c 0,0,1
-901 1 m 1,16,-1
 -900 9 l 1,17,18
 -893 21 -893 21 -823 89 c 0,19,20
 -774 136 -774 136 -766 136 c 0,21,22
 -753 136 -753 136 -682 64 c 0,23,24
 -631 11 -631 11 -631 1 c 0,25,26
 -631 -12 -631 -12 -705 -84 c 0,27,28
 -756 -134 -756 -134 -766 -134 c 0,29,30
 -784 -134 -784 -134 -900 -7 c 1,31,-1
 -901 1 l 1,16,-1
EndSplineSet
EndChar

StartChar: uniED80
Encoding: 60800 60800 141
Width: 0
Flags: W
LayerCount: 2
Fore
SplineSet
-588 1560 m 0,0,1
 -588 1574 -588 1574 -512 1646 c 0,2,3
 -462 1694 -462 1694 -453 1694 c 0,4,5
 -439 1694 -439 1694 -367 1621 c 0,6,7
 -318 1570 -318 1570 -318 1560 c 0,8,9
 -318 1546 -318 1546 -390 1475 c 0,10,11
 -442 1424 -442 1424 -453 1424 c 0,12,13
 -465 1424 -465 1424 -538 1498 c 0,14,15
 -588 1550 -588 1550 -588 1560 c 0,0,1
-240 1560 m 0,16,17
 -240 1572 -240 1572 -166 1644 c 0,18,19
 -115 1694 -115 1694 -105 1694 c 0,20,21
 -90 1694 -90 1694 -16 1618 c 0,22,23
 30 1569 30 1569 30 1560 c 0,24,25
 30 1546 30 1546 -47 1471 c 0,26,27
 -96 1424 -96 1424 -104 1424 c 0,28,29
 -119 1424 -119 1424 -194 1502 c 0,30,31
 -240 1551 -240 1551 -240 1560 c 0,16,17
-414 1307 m 0,32,33
 -414 1319 -414 1319 -340 1391 c 0,34,35
 -289 1442 -289 1442 -279 1442 c 0,36,37
 -265 1442 -265 1442 -193 1368 c 0,38,39
 -144 1317 -144 1317 -144 1307 c 0,40,41
 -144 1294 -144 1294 -214 1225 c 0,42,43
 -267 1172 -267 1172 -279 1172 c 0,44,45
 -294 1172 -294 1172 -369 1251 c 0,46,47
 -414 1299 -414 1299 -414 1307 c 0,32,33
EndSplineSet
EndChar

StartChar: uni60B7
Encoding: 24759 24759 142
Width: 487
Flags: W
LayerCount: 2
Fore
SplineSet
124 436 m 0,0,1
 124 449 124 449 198 520 c 0,2,3
 250 571 250 571 260 571 c 0,4,5
 273 571 273 571 343 500 c 0,6,7
 395 447 395 447 395 436 c 0,8,9
 395 423 395 423 323 352 c 0,10,11
 271 301 271 301 260 301 c 0,12,13
 246 301 246 301 172 379 c 0,14,15
 124 427 124 427 124 436 c 0,0,1
EndSplineSet
EndChar

StartChar: uniEC0F
Encoding: 60431 60431 143
Width: 0
Flags: W
LayerCount: 2
Fore
SplineSet
-1271 373 m 0,0,1
 -1269 410 -1269 410 -1206 462 c 0,2,3
 -1163 498 -1163 498 -1144 498 c 0,4,5
 -1138 498 -1138 498 -1102 485 c 0,6,7
 -1063 471 -1063 471 -1010 466 c 0,8,9
 -990 464 -990 464 -751 464 c 0,10,11
 -499 464 -499 464 -456 470 c 0,12,13
 -427 475 -427 475 -382 492 c 0,14,15
 -366 498 -366 498 -358 498 c 0,16,17
 -346 498 -346 498 -346 486 c 0,18,19
 -346 454 -346 454 -387 413 c 0,20,21
 -451 347 -451 347 -567 329 c 0,22,23
 -607 323 -607 323 -693 322 c 0,24,25
 -732 322 -732 322 -867 322 c 0,26,27
 -1124 322 -1124 322 -1169 329 c 0,28,29
 -1201 333 -1201 333 -1249 351 c 1,30,31
 -1270 366 -1270 366 -1271 373 c 0,0,1
EndSplineSet
EndChar

StartChar: uni60B9
Encoding: 24761 24761 144
Width: 522
Flags: W
LayerCount: 2
Fore
SplineSet
125 193 m 0,0,1
 125 220 125 220 176 277 c 0,2,3
 237 346 237 346 279 346 c 0,4,5
 293 346 293 346 323 303 c 0,6,7
 382 217 382 217 382 117 c 0,8,9
 382 -32 382 -32 270 -161 c 0,10,11
 208 -233 208 -233 157 -253 c 0,12,13
 147 -257 147 -257 140 -257 c 0,14,15
 127 -257 127 -257 125 -242 c 0,16,17
 125 -222 125 -222 155 -186 c 0,18,19
 199 -131 199 -131 210 -81 c 0,20,21
 215 -57 215 -57 215 -28 c 0,22,23
 215 90 215 90 136 175 c 0,24,25
 125 186 125 186 125 193 c 0,0,1
EndSplineSet
EndChar

StartChar: uni60BA
Encoding: 24762 24762 145
Width: 487
Flags: W
LayerCount: 2
Fore
SplineSet
124 155 m 0,0,1
 124 167 124 167 198 239 c 0,2,3
 250 290 250 290 260 290 c 0,4,5
 274 290 274 290 347 213 c 0,6,7
 395 164 395 164 395 154 c 0,8,9
 395 142 395 142 327 74 c 0,10,11
 273 20 273 20 260 20 c 0,12,13
 244 20 244 20 171 98 c 0,14,15
 124 146 124 146 124 155 c 0,0,1
EndSplineSet
EndChar

StartChar: uniE06B
Encoding: 57451 57451 146
Width: 854
Flags: W
LayerCount: 2
Fore
SplineSet
196 -483 m 2,0,-1
 193 -343 l 2,1,2
 193 -283 193 -283 271 -218 c 0,3,4
 322 -176 322 -176 347 -176 c 0,5,6
 359 -176 359 -176 362 -230 c 0,7,8
 363 -263 363 -263 363 -338 c 0,9,10
 363 -541 363 -541 265 -664 c 0,11,12
 252 -680 252 -680 229 -705 c 0,13,14
 172 -768 172 -768 130 -778 c 0,15,16
 126 -779 126 -779 122 -779 c 0,17,18
 108 -779 108 -779 106 -765 c 0,19,20
 106 -746 106 -746 130 -716 c 0,21,22
 174 -661 174 -661 187 -592 c 0,23,24
 196 -545 196 -545 196 -483 c 2,0,-1
507 -338 m 2,25,26
 507 -284 507 -284 583 -221 c 0,27,28
 635 -176 635 -176 660 -176 c 0,29,30
 673 -176 673 -176 675 -223 c 0,31,32
 677 -253 677 -253 677 -324 c 0,33,34
 677 -545 677 -545 577 -667 c 0,35,36
 566 -680 566 -680 543 -705 c 0,37,38
 478 -775 478 -775 434 -779 c 0,39,40
 421 -779 421 -779 420 -766 c 0,41,42
 420 -743 420 -743 442 -716 c 0,43,44
 479 -673 479 -673 493 -623 c 0,45,46
 509 -565 509 -565 509 -474 c 2,47,-1
 507 -338 l 2,25,26
EndSplineSet
EndChar

StartChar: uniE034
Encoding: 57396 57396 147
Width: 966
Flags: W
LayerCount: 2
Fore
SplineSet
598 686 m 2,0,-1
 472 688 l 1,1,-1
 467 348 l 2,2,3
 465 299 465 299 462 277 c 0,4,5
 443 143 443 143 341 43 c 0,6,7
 285 -12 285 -12 246 -16 c 0,8,9
 232 -16 232 -16 232 -3 c 0,10,11
 232 -2 232 -2 232 0 c 0,12,13
 232 15 232 15 252 43 c 0,14,15
 290 96 290 96 298 174 c 0,16,17
 303 240 303 240 303 537 c 0,18,19
 303 647 303 647 273 683 c 1,20,-1
 267 689 l 2,21,22
 255 700 255 700 231 701 c 0,23,24
 223 702 223 702 211 702 c 0,25,26
 189 702 189 702 154 676 c 0,27,28
 125 654 125 654 106 654 c 0,29,30
 92 654 92 654 92 669 c 0,31,32
 92 710 92 710 160 773 c 0,33,34
 243 852 243 852 328 868 c 0,35,36
 344 871 344 871 358 871 c 0,37,38
 421 868 421 868 471 861 c 0,39,40
 570 854 570 854 754 854 c 0,41,42
 945 854 945 854 1124 868 c 0,43,44
 1153 871 1153 871 1174 871 c 0,45,46
 1189 871 1189 871 1189 857 c 0,47,48
 1189 828 1189 828 1137 772 c 0,49,50
 1085 714 1085 714 1044 705 c 0,51,52
 979 691 979 691 649 687 c 0,53,54
 619 686 619 686 598 686 c 2,0,-1
EndSplineSet
EndChar

StartChar: uniE02D
Encoding: 57389 57389 148
Width: 557
Flags: W
LayerCount: 2
Fore
SplineSet
134 -16 m 0,0,1
 119 -16 119 -16 119 -2 c 0,2,3
 119 13 119 13 141 46 c 0,4,5
 180 102 180 102 185 174 c 0,6,7
 190 240 190 240 190 622 c 0,8,9
 190 919 190 919 202 1070 c 0,10,11
 212 1189 212 1189 230 1295 c 0,12,13
 279 1584 279 1584 440 1728 c 0,14,15
 452 1739 452 1739 464 1748 c 0,16,17
 506 1782 506 1782 530 1782 c 0,18,19
 544 1782 544 1782 544 1767 c 0,20,21
 544 1748 544 1748 512 1707 c 0,22,23
 455 1634 455 1634 432 1569 c 0,24,25
 362 1358 362 1358 358 855 c 0,26,27
 358 811 358 811 358 765 c 0,28,29
 358 342 358 342 349 277 c 0,30,31
 330 143 330 143 229 44 c 0,32,33
 172 -12 172 -12 134 -16 c 0,0,1
EndSplineSet
EndChar

StartChar: uniE031
Encoding: 57393 57393 149
Width: 1157
Flags: W
LayerCount: 2
Fore
SplineSet
162 544 m 1,0,1
 150 548 150 548 148 559 c 0,2,3
 148 594 148 594 234 681 c 0,4,5
 354 803 354 803 487 865 c 0,6,7
 560 900 560 900 631 906 c 1,8,9
 858 906 858 906 934 781 c 0,10,11
 962 734 962 734 962 680 c 0,12,13
 962 470 962 470 770 282 c 0,14,15
 707 219 707 219 627 165 c 1,16,17
 665 157 665 157 806 153 c 0,18,19
 821 152 821 152 831 152 c 0,20,21
 918 152 918 152 982 187 c 0,22,23
 1021 209 1021 209 1058 244 c 2,24,-1
 1080 265 l 2,25,26
 1129 308 1129 308 1157 308 c 0,27,28
 1171 308 1171 308 1171 293 c 0,29,30
 1171 264 1171 264 1105 193 c 0,31,32
 995 74 995 74 857 18 c 0,33,34
 773 -16 773 -16 694 -16 c 0,35,36
 657 -16 657 -16 486 -3 c 0,37,38
 473 -2 473 -2 465 -2 c 2,39,-1
 357 2 l 1,40,41
 235 2 235 2 152 -13 c 0,42,43
 137 -16 137 -16 125 -16 c 0,44,45
 116 -16 116 -16 112 -3 c 1,46,47
 112 17 112 17 144 60 c 0,48,49
 201 140 201 140 285 155 c 0,50,51
 561 203 561 203 698 311 c 0,52,53
 731 337 731 337 746 360 c 0,54,55
 794 433 794 433 794 535 c 0,56,57
 794 639 794 639 689 697 c 0,58,59
 614 738 614 738 517 738 c 0,60,61
 404 738 404 738 301 646 c 2,62,-1
 219 570 l 2,63,64
 186 544 186 544 162 544 c 1,0,1
EndSplineSet
EndChar

StartChar: uni60BF
Encoding: 24767 24767 150
Width: 1314
Flags: W
LayerCount: 2
Fore
SplineSet
113 1132 m 0,0,1
 113 1269 113 1269 214 1413 c 0,2,3
 317 1561 317 1561 467 1628 c 0,4,5
 558 1669 558 1669 651 1669 c 0,6,7
 794 1669 794 1669 898 1576 c 1,8,9
 1012 1467 1012 1467 1014 1307 c 0,10,11
 1014 1066 1014 1066 868 822 c 0,12,13
 789 689 789 689 645 528 c 1,14,15
 693 520 693 520 725 495 c 0,16,17
 790 444 790 444 880 292 c 0,18,19
 940 190 940 190 999 161 c 0,20,21
 1017 152 1017 152 1033 152 c 0,22,23
 1117 152 1117 152 1201 220 c 0,24,25
 1256 266 1256 266 1261 269 c 0,26,27
 1280 282 1280 282 1296 282 c 0,28,29
 1311 282 1311 282 1311 269 c 0,30,31
 1311 233 1311 233 1236 158 c 0,32,33
 1130 51 1130 51 1010 6 c 0,34,35
 951 -16 951 -16 900 -16 c 0,36,37
 823 -16 823 -16 746 91 c 0,38,39
 736 104 736 104 665 217 c 0,40,41
 600 321 600 321 551 347 c 0,42,43
 528 359 528 359 504 359 c 0,44,45
 484 359 484 359 474 351 c 0,46,47
 470 347 470 347 459 336 c 2,48,-1
 173 64 l 2,49,50
 93 -16 93 -16 58 -16 c 0,51,52
 44 -16 44 -16 44 -1 c 0,53,54
 44 41 44 41 184 174 c 2,55,-1
 280 263 l 1,56,-1
 444 417 l 1,57,58
 727 693 727 693 807 929 c 0,59,60
 817 958 817 958 824 987 c 0,61,62
 847 1079 847 1079 847 1164 c 0,63,64
 847 1317 847 1317 739 1413 c 0,65,66
 642 1501 642 1501 515 1501 c 0,67,68
 419 1501 419 1501 353 1461 c 0,69,70
 341 1454 341 1454 334 1447 c 0,71,72
 306 1419 306 1419 289 1344 c 0,73,74
 281 1308 281 1308 281 1276 c 0,75,76
 281 1246 281 1246 315 1213 c 0,77,78
 350 1179 350 1179 359 1158 c 0,79,80
 366 1140 366 1140 366 1119 c 0,81,82
 366 1078 366 1078 336 1038 c 0,83,84
 298 987 298 987 231 987 c 0,85,86
 160 987 160 987 129 1055 c 0,87,88
 113 1089 113 1089 113 1132 c 0,0,1
EndSplineSet
EndChar

StartChar: uniE066
Encoding: 57446 57446 151
Width: 1132
Flags: W
LayerCount: 2
Fore
SplineSet
224 1243 m 0,0,1
 184 1243 184 1243 148 1215 c 0,2,3
 121 1194 121 1194 102 1194 c 0,4,5
 86 1194 86 1194 88 1211 c 0,6,7
 92 1249 92 1249 153 1309 c 0,8,9
 242 1397 242 1397 341 1410 c 1,10,-1
 365 1411 l 1,11,-1
 366 1411 l 1,12,13
 428 1407 428 1407 451 1343 c 0,14,15
 461 1313 461 1313 465 1268 c 0,16,17
 465 1259 465 1259 467 1233 c 2,18,-1
 467 1211 l 1,19,20
 575 1298 575 1298 658 1320 c 0,21,22
 702 1332 702 1332 751 1332 c 0,23,24
 848 1332 848 1332 910 1257 c 0,25,26
 958 1197 958 1197 958 1116 c 0,27,28
 958 945 958 945 787 772 c 1,29,-1
 768 752 l 1,30,31
 839 742 839 742 888 677 c 0,32,33
 931 619 931 619 931 541 c 0,34,35
 931 305 931 305 678 118 c 0,36,37
 556 28 556 28 428 -19 c 1,38,-1
 382 -34 l 1,39,40
 320 -241 320 -241 203 -373 c 0,41,42
 186 -392 186 -392 167 -411 c 0,43,44
 104 -474 104 -474 71 -474 c 0,45,46
 56 -474 56 -474 56 -460 c 0,47,48
 56 -436 56 -436 116 -361 c 0,49,50
 146 -325 146 -325 153 -312 c 0,51,52
 243 -154 243 -154 274 193 c 0,53,54
 299 473 299 473 299 1025 c 0,55,56
 299 1184 299 1184 271 1222 c 0,57,58
 255 1243 255 1243 224 1243 c 0,0,1
790 976 m 0,59,60
 790 1071 790 1071 723 1125 c 0,61,62
 675 1164 675 1164 608 1164 c 0,63,64
 552 1164 552 1164 503 1141 c 0,65,66
 490 1135 490 1135 487 1130 c 0,67,68
 458 1081 458 1081 458 637 c 2,69,-1
 458 632 l 1,70,-1
 512 675 l 2,71,72
 545 698 545 698 589 720 c 0,73,74
 696 776 696 776 736 821 c 0,75,76
 790 882 790 882 790 976 c 0,59,60
763 396 m 0,77,78
 763 494 763 494 699 549 c 0,79,80
 655 587 655 587 595 587 c 0,81,82
 497 587 497 587 470 531 c 0,83,84
 454 500 454 500 450 428 c 0,85,86
 442 259 442 259 421 136 c 0,87,88
 418 120 418 120 415 109 c 1,89,-1
 416 108 l 1,90,91
 468 108 468 108 591 166 c 0,92,93
 679 207 679 207 710 238 c 0,94,95
 754 281 754 281 762 378 c 0,96,97
 763 388 763 388 763 396 c 0,77,78
EndSplineSet
EndChar

StartChar: uniE065
Encoding: 57445 57445 152
Width: 696
Flags: W
LayerCount: 2
Fore
SplineSet
225 1088 m 0,0,1
 225 1270 225 1270 347 1418 c 0,2,3
 411 1496 411 1496 467 1519 c 0,4,5
 479 1524 479 1524 486 1524 c 0,6,7
 500 1524 500 1524 500 1510 c 0,8,9
 500 1489 500 1489 470 1451 c 0,10,11
 422 1392 422 1392 406 1337 c 0,12,13
 394 1291 394 1291 394 1235 c 0,14,15
 394 1122 394 1122 437 934 c 0,16,17
 478 754 478 754 484 668 c 0,18,19
 486 641 486 641 486 615 c 0,20,21
 486 433 486 433 364 284 c 0,22,23
 301 207 301 207 245 183 c 0,24,25
 234 178 234 178 226 178 c 0,26,27
 214 182 214 182 211 193 c 0,28,29
 211 217 211 217 240 250 c 0,30,31
 282 298 282 298 298 338 c 0,32,33
 318 393 318 393 318 472 c 0,34,35
 318 586 318 586 277 756 c 0,36,37
 236 925 236 925 229 1009 c 0,38,39
 225 1048 225 1048 225 1088 c 0,0,1
EndSplineSet
EndChar

StartChar: uniE068
Encoding: 57448 57448 153
Width: 1323
Flags: W
LayerCount: 2
Fore
SplineSet
471 594 m 0,0,1
 558 594 558 594 727 558 c 0,2,3
 869 528 869 528 937 528 c 0,4,5
 1054 528 1054 528 1120 580 c 0,6,7
 1153 607 1153 607 1160 610 c 0,8,9
 1169 614 1169 614 1180 614 c 0,10,11
 1193 614 1193 614 1193 601 c 0,12,13
 1193 572 1193 572 1143 522 c 0,14,15
 1015 390 1015 390 846 386 c 0,16,17
 839 386 839 386 833 386 c 0,18,19
 743 386 743 386 591 419 c 0,20,21
 443 452 443 452 356 452 c 0,22,23
 252 452 252 452 183 399 c 0,24,25
 148 372 148 372 138 368 c 0,26,27
 131 366 131 366 124 366 c 0,28,29
 112 366 112 366 111 379 c 0,30,31
 111 408 111 408 164 461 c 0,32,33
 304 593 304 593 471 594 c 0,0,1
EndSplineSet
EndChar

StartChar: uni60C3
Encoding: 24771 24771 154
Width: 522
Flags: W
LayerCount: 2
Fore
SplineSet
108 718 m 0,0,1
 108 731 108 731 180 801 c 0,2,3
 233 853 233 853 244 853 c 0,4,5
 256 853 256 853 326 782 c 0,6,7
 378 729 378 729 378 718 c 0,8,9
 378 703 378 703 300 628 c 0,10,11
 252 583 252 583 244 583 c 0,12,13
 229 583 229 583 156 659 c 0,14,15
 108 709 108 709 108 718 c 0,0,1
125 193 m 0,16,17
 125 220 125 220 176 277 c 0,18,19
 237 346 237 346 279 346 c 0,20,21
 293 346 293 346 323 303 c 0,22,23
 382 217 382 217 382 117 c 0,24,25
 382 -32 382 -32 270 -161 c 0,26,27
 208 -233 208 -233 157 -253 c 0,28,29
 147 -257 147 -257 140 -257 c 0,30,31
 127 -257 127 -257 125 -242 c 0,32,33
 125 -222 125 -222 155 -186 c 0,34,35
 199 -131 199 -131 210 -81 c 0,36,37
 215 -57 215 -57 215 -28 c 0,38,39
 215 90 215 90 136 175 c 0,40,41
 125 186 125 186 125 193 c 0,16,17
EndSplineSet
EndChar

StartChar: uni60C4
Encoding: 24772 24772 155
Width: 1216
Flags: W
LayerCount: 2
Fore
SplineSet
333 871 m 0,0,1
 412 871 412 871 429 763 c 0,2,3
 436 722 436 722 436 654 c 0,4,5
 436 576 436 576 437 576 c 0,6,7
 439 576 439 576 459 600 c 0,8,9
 490 635 490 635 535 675 c 0,10,11
 714 833 714 833 877 875 c 0,12,13
 928 889 928 889 974 889 c 0,14,15
 1092 889 1092 889 1180 798 c 0,16,17
 1247 729 1247 729 1274 624 c 0,18,19
 1285 579 1285 579 1285 529 c 0,20,21
 1285 357 1285 357 1160 198 c 0,22,23
 1057 67 1057 67 924 11 c 0,24,25
 858 -16 858 -16 799 -16 c 0,26,27
 738 -16 738 -16 676 18 c 0,28,29
 613 54 613 54 579 64 c 0,30,31
 533 77 533 77 472 77 c 0,32,33
 290 77 290 77 239 -45 c 0,34,35
 237 -49 237 -49 232 -62 c 0,36,37
 207 -130 207 -130 207 -209 c 0,38,39
 207 -412 207 -412 345 -560 c 0,40,41
 454 -676 454 -676 597 -708 c 1,42,-1
 619 -712 l 2,43,44
 657 -719 657 -719 699 -719 c 0,45,46
 802 -719 802 -719 883 -684 c 0,47,48
 920 -668 920 -668 928 -651 c 0,49,50
 938 -629 938 -629 938 -600 c 0,51,52
 938 -547 938 -547 906 -511 c 0,53,54
 893 -496 893 -496 893 -489 c 0,55,56
 893 -448 893 -448 964 -385 c 0,57,58
 1020 -336 1020 -336 1045 -336 c 0,59,60
 1058 -336 1058 -336 1079 -367 c 0,61,62
 1106 -407 1106 -407 1106 -458 c 0,63,64
 1106 -557 1106 -557 1012 -670 c 0,65,66
 903 -799 903 -799 742 -855 c 0,67,68
 652 -887 652 -887 561 -887 c 0,69,70
 342 -887 342 -887 192 -727 c 0,71,72
 78 -606 78 -606 47 -444 c 1,73,-1
 43 -416 l 2,74,75
 39 -384 39 -384 39 -351 c 0,76,77
 39 -126 39 -126 226 65 c 1,78,-1
 245 83 l 1,79,80
 265 148 265 148 267 280 c 0,81,82
 268 342 268 342 268 542 c 0,83,84
 268 703 268 703 199 703 c 0,85,86
 153 703 153 703 119 676 c 0,87,88
 93 655 93 655 71 654 c 0,89,90
 57 654 57 654 57 669 c 0,91,92
 57 712 57 712 128 775 c 0,93,94
 214 852 214 852 301 868 c 0,95,96
 318 871 318 871 333 871 c 0,0,1
609 246 m 0,97,98
 720 246 720 246 798 201 c 0,99,100
 854 169 854 169 865 165 c 0,101,102
 898 152 898 152 938 152 c 0,103,104
 1010 152 1010 152 1051 183 c 0,105,106
 1079 206 1079 206 1101 284 c 0,107,108
 1116 336 1116 336 1116 385 c 0,109,110
 1116 545 1116 545 1014 644 c 0,111,112
 946 711 946 711 861 720 c 0,113,114
 850 721 850 721 837 721 c 0,115,116
 757 721 757 721 661 672 c 0,117,118
 496 588 496 588 448 424 c 0,119,120
 438 388 438 388 429 301 c 0,121,122
 424 244 424 244 409 199 c 1,123,124
 500 235 500 235 549 242 c 0,125,126
 577 246 577 246 609 246 c 0,97,98
EndSplineSet
EndChar

StartChar: uniEBE8
Encoding: 60392 60392 156
Width: 819
Flags: W
LayerCount: 2
Fore
SplineSet
-444 149 m 2,0,-1
 -29 142 l 1,1,2
 425 142 425 142 539 204 c 0,3,4
 575 225 575 225 591 257 c 0,5,6
 616 308 616 308 616 374 c 0,7,8
 616 535 616 535 488 608 c 0,9,10
 426 644 426 644 372 644 c 0,11,12
 303 644 303 644 246 595 c 0,13,14
 207 562 207 562 197 557 c 0,15,16
 183 550 183 550 169 550 c 2,17,-1
 168 550 l 2,18,19
 151 550 151 550 151 566 c 0,20,21
 151 607 151 607 230 676 c 0,22,23
 327 761 327 761 427 786 c 0,24,25
 457 793 457 793 482 793 c 0,26,27
 605 793 605 793 688 702 c 0,28,29
 766 615 766 615 766 491 c 0,30,31
 766 339 766 339 648 204 c 0,32,33
 613 165 613 165 571 131 c 0,34,35
 485 62 485 62 364 32 c 0,36,37
 200 -8 200 -8 -120 -8 c 1,38,-1
 -584 0 l 2,39,40
 -591 0 -591 0 -595 0 c 0,41,42
 -614 0 -614 0 -614 16 c 0,43,44
 -614 38 -614 38 -588 75 c 0,45,46
 -536 149 -536 149 -444 149 c 2,0,-1
EndSplineSet
EndChar

